999
dxfrw 0.6.3
  0
SECTION
  2
HEADER
  9
$ACADVER
  1
AC1021
  9
$DWGCODEPAGE
  3
ANSI_1252
  9
$INSBASE
 10
0
 20
0
 30
0
  9
$EXTMIN
 10
0.370063
 20
0.208822
 30
0
  9
$EXTMAX
 10
17.2782
 20
17.6243
 30
0
  9
$LIMMIN
 10
0
 20
0
  9
$LIMMAX
 10
420
 20
297
  9
$ORTHOMODE
 70
    0
  9
$REGENMODE
 70
    1
  9
$FILLMODE
 70
    0
  9
$QTEXTMODE
 70
    0
  9
$MIRRTEXT
 70
    0
  9
$LTSCALE
 40
1
  9
$ATTMODE
 70
    0
  9
$TEXTSIZE
 40
2.5
  9
$TRACEWID
 40
15.68
  9
$TEXTSTYLE
  7
STANDARD
  9
$CLAYER
  8
0
  9
$CELTYPE
  6
BYLAYER
  9
$CECOLOR
 62
  256
  9
$CELTSCALE
 40
1
  9
$DISPSILH
 70
    0
  9
$DIMSCALE
 40
2.5
  9
$DIMASZ
 40
2.5
  9
$DIMEXO
 40
0.625
  9
$DIMDLI
 40
3.75
  9
$DIMRND
 40
0
  9
$DIMDLE
 40
0
  9
$DIMEXE
 40
1.25
  9
$DIMTP
 40
0
  9
$DIMTM
 40
0
  9
$DIMTXT
 40
2.5
  9
$DIMCEN
 40
2.5
  9
$DIMTSZ
 40
0
  9
$DIMTOL
 70
    0
  9
$DIMLIM
 70
    0
  9
$DIMTIH
 70
    0
  9
$DIMTOH
 70
    0
  9
$DIMSE1
 70
    0
  9
$DIMSE2
 70
    0
  9
$DIMTAD
 70
    1
  9
$DIMZIN
 70
    8
  9
$DIMBLK
  1

  9
$DIMASO
 70
    1
  9
$DIMSHO
 70
    1
  9
$DIMPOST
  1

  9
$DIMAPOST
  1

  9
$DIMALT
 70
    0
  9
$DIMALTD
 70
    3
  9
$DIMALTF
 40
0.03937
  9
$DIMLFAC
 40
1
  9
$DIMTOFL
 70
    1
  9
$DIMTVP
 40
0
  9
$DIMTIX
 70
    0
  9
$DIMSOXD
 70
    0
  9
$DIMSAH
 70
    0
  9
$DIMBLK1
  1

  9
$DIMBLK2
  1

  9
$DIMSTYLE
  2
Standard
  9
$DIMCLRD
 70
    0
  9
$DIMCLRE
 70
    0
  9
$DIMCLRT
 70
    0
  9
$DIMTFAC
 40
1
  9
$DIMGAP
 40
0.625
  9
$DIMJUST
 70
    0
  9
$DIMSD1
 70
    0
  9
$DIMSD2
 70
    0
  9
$DIMTOLJ
 70
    0
  9
$DIMTZIN
 70
    8
  9
$DIMALTZ
 70
    0
  9
$DIMALTTZ
 70
    0
  9
$DIMUPT
 70
    0
  9
$DIMDEC
 70
    2
  9
$DIMTDEC
 70
    2
  9
$DIMALTU
 70
    2
  9
$DIMALTTD
 70
    3
  9
$DIMTXSTY
  7
STANDARD
  9
$DIMAUNIT
 70
    0
  9
$DIMADEC
 70
    0
  9
$DIMALTRND
 40
0
  9
$DIMAZIN
 70
    0
  9
$DIMDSEP
 70
   44
  9
$DIMATFIT
 70
    3
  9
$DIMFRAC
 70
    0
  9
$DIMLDRBLK
  1
STANDARD
  9
$DIMLUNIT
 70
    2
  9
$DIMLWD
 70
   -2
  9
$DIMLWE
 70
   -2
  9
$DIMTMOVE
 70
    0
  9
$DIMFXL
 40
1
  9
$DIMFXLON
 70
    0
  9
$DIMJOGANG
 40
0.7854
  9
$DIMTFILL
 70
    0
  9
$DIMTFILLCLR
 70
    0
  9
$DIMARCSYM
 70
    0
  9
$DIMLTYPE
  6

  9
$DIMLTEX1
  6

  9
$DIMLTEX2
  6

  9
$LUNITS
 70
    2
  9
$LUPREC
 70
    4
  9
$SKETCHINC
 40
1
  9
$FILLETRAD
 40
0
  9
$AUNITS
 70
    0
  9
$AUPREC
 70
    2
  9
$MENU
  1
.
  9
$ELEVATION
 40
0
  9
$PELEVATION
 40
0
  9
$THICKNESS
 40
0
  9
$LIMCHECK
 70
    0
  9
$CHAMFERA
 40
0
  9
$CHAMFERB
 40
0
  9
$CHAMFERC
 40
0
  9
$CHAMFERD
 40
0
  9
$SKPOLY
 70
    0
  9
$USRTIMER
 70
    1
  9
$ANGBASE
 50
0
  9
$ANGDIR
 70
    0
  9
$PDMODE
 70
   34
  9
$PDSIZE
 40
0
  9
$PLINEWID
 40
0
  9
$SPLFRAME
 70
    1
  9
$SPLINETYPE
 70
    2
  9
$SPLINESEGS
 70
    8
  9
$HANDSEED
  5
20000
  9
$SURFTAB1
 70
    6
  9
$SURFTAB2
 70
    6
  9
$SURFTYPE
 70
    6
  9
$SURFU
 70
    6
  9
$SURFV
 70
    6
  9
$UCSBASE
  2

  9
$UCSNAME
  2

  9
$UCSORG
 10
0
 20
0
 30
0
  9
$UCSXDIR
 10
1
 20
0
 30
0
  9
$UCSYDIR
 10
0
 20
1
 30
0
  9
$UCSORTHOREF
  2

  9
$UCSORTHOVIEW
 70
    0
  9
$UCSORGTOP
 10
0
 20
0
 30
0
  9
$UCSORGBOTTOM
 10
0
 20
0
 30
0
  9
$UCSORGLEFT
 10
0
 20
0
 30
0
  9
$UCSORGRIGHT
 10
0
 20
0
 30
0
  9
$UCSORGFRONT
 10
0
 20
0
 30
0
  9
$UCSORGBACK
 10
0
 20
0
 30
0
  9
$PUCSBASE
  2

  9
$PUCSNAME
  2

  9
$PUCSORG
 10
0
 20
0
 30
0
  9
$PUCSXDIR
 10
1
 20
0
 30
0
  9
$PUCSYDIR
 10
0
 20
1
 30
0
  9
$PUCSORTHOREF
  2

  9
$PUCSORTHOVIEW
 70
    0
  9
$PUCSORGTOP
 10
0
 20
0
 30
0
  9
$PUCSORGBOTTOM
 10
0
 20
0
 30
0
  9
$PUCSORGLEFT
 10
0
 20
0
 30
0
  9
$PUCSORGRIGHT
 10
0
 20
0
 30
0
  9
$PUCSORGFRONT
 10
0
 20
0
 30
0
  9
$PUCSORGBACK
 10
0
 20
0
 30
0
  9
$USERI1
 70
    0
  9
$USERI2
 70
    0
  9
$USERI3
 70
    0
  9
$USERI4
 70
    0
  9
$USERI5
 70
    0
  9
$USERR1
 40
0
  9
$USERR2
 40
0
  9
$USERR3
 40
0
  9
$USERR4
 40
0
  9
$USERR5
 40
0
  9
$WORLDVIEW
 70
    1
  9
$SHADEDGE
 70
    3
  9
$SHADEDIF
 70
   70
  9
$TILEMODE
 70
    1
  9
$MAXACTVP
 70
   64
  9
$PINSBASE
 10
0
 20
0
 30
0
  9
$PLIMCHECK
 70
    0
  9
$PEXTMIN
 10
0
 20
0
 30
0
  9
$PEXTMAX
 10
0
 20
0
 30
0
  9
$SNAPSTYLE
 70
    0
  9
$PLIMMIN
 10
0
 20
0
  9
$PLIMMAX
 10
210
 20
297
  9
$UNITMODE
 70
    0
  9
$VISRETAIN
 70
    1
  9
$PLINEGEN
 70
    0
  9
$PSLTSCALE
 70
    1
  9
$TREEDEPTH
 70
 3020
  9
$CMLSTYLE
  2
Standard
  9
$CMLJUST
 70
    0
  9
$CMLSCALE
 40
20
  9
$PROXYGRAPHICS
 70
    1
  9
$MEASUREMENT
 70
    1
  9
$CELWEIGHT
370
   -1
  9
$ENDCAPS
280
    0
  9
$JOINSTYLE
280
    0
  9
$LWDISPLAY
290
    0
  9
$INSUNITS
 70
    4
  9
$HYPERLINKBASE
  1

  9
$STYLESHEET
  1

  9
$XEDIT
290
    1
  9
$CEPSNTYPE
380
    0
  9
$PSTYLEMODE
290
    1
  9
$EXTNAMES
290
    1
  9
$PSVPSCALE
 40
1
  9
$OLESTARTUP
290
    0
  9
$SORTENTS
280
  127
  9
$INDEXCTL
280
    0
  9
$HIDETEXT
280
    1
  9
$XCLIPFRAME
290
    0
  9
$HALOGAP
280
    0
  9
$OBSCOLOR
 70
  257
  9
$OBSLTYPE
280
    0
  9
$INTERSECTIONDISPLAY
280
    0
  9
$INTERSECTIONCOLOR
 70
  257
  9
$DIMASSOC
280
    1
  9
$PROJECTNAME
  1

  9
$CAMERADISPLAY
290
    0
  9
$LENSLENGTH
 40
50
  9
$CAMERAHEIGHT
 40
0
  9
$STEPSPERSEC
 40
2
  9
$STEPSIZE
 40
50
  9
$3DDWFPREC
 40
2
  9
$PSOLWIDTH
 40
5
  9
$PSOLHEIGHT
 40
80
  9
$LOFTANG1
 40
1.570796326794897
  9
$LOFTANG2
 40
1.570796326794897
  9
$LOFTMAG1
 40
0
  9
$LOFTMAG2
 40
0
  9
$LOFTPARAM
 70
    7
  9
$LOFTNORMALS
280
    1
  9
$LATITUDE
 40
1
  9
$LONGITUDE
 40
1
  9
$NORTHDIRECTION
 40
0
  9
$TIMEZONE
 70
-8000
  9
$LIGHTGLYPHDISPLAY
280
    1
  9
$TILEMODELIGHTSYNCH
280
    1
  9
$SOLIDHIST
280
    1
  9
$SHOWHIST
280
    1
  9
$DWFFRAME
280
    2
  9
$DGNFRAME
280
    0
  9
$REALWORLDSCALE
290
    1
  9
$INTERFERECOLOR
 62
    1
  9
$CSHADOW
280
    0
  9
$SHADOWPLANELOCATION
 40
0
  0
ENDSEC
  0
SECTION
  2
CLASSES
  0
ENDSEC
  0
SECTION
  2
TABLES
  0
TABLE
  2
VPORT
  5
8
330
0
100
AcDbSymbolTable
 70
    1
  0
VPORT
  5
31
330
2
100
AcDbSymbolTableRecord
100
AcDbViewportTableRecord
  2
*ACTIVE
 70
    0
 10
0
 20
0
 11
1
 21
1
 12
-9.163703478859068
 22
-1.439229771033532
 13
0
 23
0
 14
10
 24
10
 15
10
 25
10
 16
0
 26
0
 36
1
 17
0
 27
0
 37
0
 40
2.186171804101567
 41
1.7
 42
50
 43
0
 44
0
 50
0
 51
0
 71
    0
 72
  100
 73
    1
 74
    3
 75
    0
 76
    1
 77
    0
 78
    0
281
    0
 65
    1
110
0
120
0
130
0
111
1
121
0
131
0
112
0
122
1
132
0
 79
    0
146
0
348
10020
 60
    7
 61
    5
292
1
282
    1
141
0
142
0
 63
  250
421
3358443
  0
ENDTAB
  0
TABLE
  2
LTYPE
  5
5
330
0
100
AcDbSymbolTable
 70
    4
  0
LTYPE
  5
14
330
5
100
AcDbSymbolTableRecord
100
AcDbLinetypeTableRecord
  2
ByBlock
 70
    0
  3

 72
   65
 73
    0
 40
0
  0
LTYPE
  5
15
330
5
100
AcDbSymbolTableRecord
100
AcDbLinetypeTableRecord
  2
ByLayer
 70
    0
  3

 72
   65
 73
    0
 40
0
  0
LTYPE
  5
16
330
5
100
AcDbSymbolTableRecord
100
AcDbLinetypeTableRecord
  2
Continuous
 70
    0
  3
Solid line
 72
   65
 73
    0
 40
0
  0
LTYPE
  5
32
330
5
100
AcDbSymbolTableRecord
100
AcDbLinetypeTableRecord
  2
DOT
 70
    0
  3
Dot . . . . . . . . . . . . . . . . . . . . . .
 72
   65
 73
    2
 40
6.35
 49
0
 74
    0
 49
-6.35
 74
    0
  0
LTYPE
  5
33
330
5
100
AcDbSymbolTableRecord
100
AcDbLinetypeTableRecord
  2
DOTTINY
 70
    0
  3
Dot (.15x) .....................................
 72
   65
 73
    2
 40
0.9525
 49
0
 74
    0
 49
-0.9525
 74
    0
  0
LTYPE
  5
34
330
5
100
AcDbSymbolTableRecord
100
AcDbLinetypeTableRecord
  2
DOT2
 70
    0
  3
Dot (.5x) .....................................
 72
   65
 73
    2
 40
3.175
 49
0
 74
    0
 49
-3.175
 74
    0
  0
LTYPE
  5
35
330
5
100
AcDbSymbolTableRecord
100
AcDbLinetypeTableRecord
  2
DOTX2
 70
    0
  3
Dot (2x) .  .  .  .  .  .  .  .  .  .  .  .  .
 72
   65
 73
    2
 40
12.7
 49
0
 74
    0
 49
-12.7
 74
    0
  0
LTYPE
  5
36
330
5
100
AcDbSymbolTableRecord
100
AcDbLinetypeTableRecord
  2
DASHED
 70
    0
  3
Dashed _ _ _ _ _ _ _ _ _ _ _ _ _ _ _ _ _
 72
   65
 73
    2
 40
19.05
 49
12.7
 74
    0
 49
-6.35
 74
    0
  0
LTYPE
  5
37
330
5
100
AcDbSymbolTableRecord
100
AcDbLinetypeTableRecord
  2
DASHEDTINY
 70
    0
  3
Dashed (.15x) _ _ _ _ _ _ _ _ _ _ _ _ _ _ _ _ _
 72
   65
 73
    2
 40
2.8575
 49
1.905
 74
    0
 49
-0.9525
 74
    0
  0
LTYPE
  5
38
330
5
100
AcDbSymbolTableRecord
100
AcDbLinetypeTableRecord
  2
DASHED2
 70
    0
  3
Dashed (.5x) _ _ _ _ _ _ _ _ _ _ _ _ _ _ _ _ _
 72
   65
 73
    2
 40
9.524999999999999
 49
6.35
 74
    0
 49
-3.175
 74
    0
  0
LTYPE
  5
39
330
5
100
AcDbSymbolTableRecord
100
AcDbLinetypeTableRecord
  2
DASHEDX2
 70
    0
  3
Dashed (2x) ____  ____  ____  ____  ____  ___
 72
   65
 73
    2
 40
38.09999999999999
 49
25.4
 74
    0
 49
-12.7
 74
    0
  0
LTYPE
  5
3A
330
5
100
AcDbSymbolTableRecord
100
AcDbLinetypeTableRecord
  2
DASHDOT
 70
    0
  3
Dash dot __ . __ . __ . __ . __ . __ . __ . __
 72
   65
 73
    4
 40
25.4
 49
12.7
 74
    0
 49
-6.35
 74
    0
 49
0
 74
    0
 49
-6.35
 74
    0
  0
LTYPE
  5
3B
330
5
100
AcDbSymbolTableRecord
100
AcDbLinetypeTableRecord
  2
DASHDOTTINY
 70
    0
  3
Dash dot (.15x) _._._._._._._._._._._._._._._.
 72
   65
 73
    4
 40
3.81
 49
1.905
 74
    0
 49
-0.9525
 74
    0
 49
0
 74
    0
 49
-0.9525
 74
    0
  0
LTYPE
  5
3C
330
5
100
AcDbSymbolTableRecord
100
AcDbLinetypeTableRecord
  2
DASHDOT2
 70
    0
  3
Dash dot (.5x) _._._._._._._._._._._._._._._.
 72
   65
 73
    4
 40
12.7
 49
6.35
 74
    0
 49
-3.175
 74
    0
 49
0
 74
    0
 49
-3.175
 74
    0
  0
LTYPE
  5
3D
330
5
100
AcDbSymbolTableRecord
100
AcDbLinetypeTableRecord
  2
DASHDOTX2
 70
    0
  3
Dash dot (2x) ____  .  ____  .  ____  .  ___
 72
   65
 73
    4
 40
50.8
 49
25.4
 74
    0
 49
-12.7
 74
    0
 49
0
 74
    0
 49
-12.7
 74
    0
  0
LTYPE
  5
3E
330
5
100
AcDbSymbolTableRecord
100
AcDbLinetypeTableRecord
  2
DIVIDE
 70
    0
  3
Divide ____ . . ____ . . ____ . . ____ . . ____
 72
   65
 73
    6
 40
31.75
 49
12.7
 74
    0
 49
-6.35
 74
    0
 49
0
 74
    0
 49
-6.35
 74
    0
 49
0
 74
    0
 49
-6.35
 74
    0
  0
LTYPE
  5
3F
330
5
100
AcDbSymbolTableRecord
100
AcDbLinetypeTableRecord
  2
DIVIDETINY
 70
    0
  3
Divide (.15x) __..__..__..__..__..__..__..__.._
 72
   65
 73
    6
 40
4.7625
 49
1.905
 74
    0
 49
-0.9525
 74
    0
 49
0
 74
    0
 49
-0.9525
 74
    0
 49
0
 74
    0
 49
-0.9525
 74
    0
  0
LTYPE
  5
40
330
5
100
AcDbSymbolTableRecord
100
AcDbLinetypeTableRecord
  2
DIVIDE2
 70
    0
  3
Divide (.5x) __..__..__..__..__..__..__..__.._
 72
   65
 73
    6
 40
15.875
 49
6.35
 74
    0
 49
-3.175
 74
    0
 49
0
 74
    0
 49
-3.175
 74
    0
 49
0
 74
    0
 49
-3.175
 74
    0
  0
LTYPE
  5
41
330
5
100
AcDbSymbolTableRecord
100
AcDbLinetypeTableRecord
  2
DIVIDEX2
 70
    0
  3
Divide (2x) ________  .  .  ________  .  .  _
 72
   65
 73
    6
 40
63.5
 49
25.4
 74
    0
 49
-12.7
 74
    0
 49
0
 74
    0
 49
-12.7
 74
    0
 49
0
 74
    0
 49
-12.7
 74
    0
  0
LTYPE
  5
42
330
5
100
AcDbSymbolTableRecord
100
AcDbLinetypeTableRecord
  2
BORDER
 70
    0
  3
Border __ __ . __ __ . __ __ . __ __ . __ __ .
 72
   65
 73
    6
 40
44.45
 49
12.7
 74
    0
 49
-6.35
 74
    0
 49
12.7
 74
    0
 49
-6.35
 74
    0
 49
0
 74
    0
 49
-6.35
 74
    0
  0
LTYPE
  5
43
330
5
100
AcDbSymbolTableRecord
100
AcDbLinetypeTableRecord
  2
BORDERTINY
 70
    0
  3
Border (.15x) __.__.__.__.__.__.__.__.__.__.__.
 72
   65
 73
    6
 40
6.6675
 49
1.905
 74
    0
 49
-0.9525
 74
    0
 49
1.905
 74
    0
 49
-0.9525
 74
    0
 49
0
 74
    0
 49
-0.9525
 74
    0
  0
LTYPE
  5
44
330
5
100
AcDbSymbolTableRecord
100
AcDbLinetypeTableRecord
  2
BORDER2
 70
    0
  3
Border (.5x) __.__.__.__.__.__.__.__.__.__.__.
 72
   65
 73
    6
 40
22.225
 49
6.35
 74
    0
 49
-3.175
 74
    0
 49
6.35
 74
    0
 49
-3.175
 74
    0
 49
0
 74
    0
 49
-3.175
 74
    0
  0
LTYPE
  5
45
330
5
100
AcDbSymbolTableRecord
100
AcDbLinetypeTableRecord
  2
BORDERX2
 70
    0
  3
Border (2x) ____  ____  .  ____  ____  .  ___
 72
   65
 73
    6
 40
88.89999999999999
 49
25.4
 74
    0
 49
-12.7
 74
    0
 49
25.4
 74
    0
 49
-12.7
 74
    0
 49
0
 74
    0
 49
-12.7
 74
    0
  0
LTYPE
  5
46
330
5
100
AcDbSymbolTableRecord
100
AcDbLinetypeTableRecord
  2
CENTER
 70
    0
  3
Center ____ _ ____ _ ____ _ ____ _ ____ _ ____
 72
   65
 73
    4
 40
50.8
 49
31.75
 74
    0
 49
-6.35
 74
    0
 49
6.35
 74
    0
 49
-6.35
 74
    0
  0
LTYPE
  5
47
330
5
100
AcDbSymbolTableRecord
100
AcDbLinetypeTableRecord
  2
CENTERTINY
 70
    0
  3
Center (.15x) ___ _ ___ _ ___ _ ___ _ ___ _ ___
 72
   65
 73
    4
 40
7.619999999999999
 49
4.7625
 74
    0
 49
-0.9525
 74
    0
 49
0.9525
 74
    0
 49
-0.9525
 74
    0
  0
LTYPE
  5
48
330
5
100
AcDbSymbolTableRecord
100
AcDbLinetypeTableRecord
  2
CENTER2
 70
    0
  3
Center (.5x) ___ _ ___ _ ___ _ ___ _ ___ _ ___
 72
   65
 73
    4
 40
28.575
 49
19.05
 74
    0
 49
-3.175
 74
    0
 49
3.175
 74
    0
 49
-3.175
 74
    0
  0
LTYPE
  5
49
330
5
100
AcDbSymbolTableRecord
100
AcDbLinetypeTableRecord
  2
CENTERX2
 70
    0
  3
Center (2x) ________  __  ________  __  _____
 72
   65
 73
    4
 40
101.6
 49
63.5
 74
    0
 49
-12.7
 74
    0
 49
12.7
 74
    0
 49
-12.7
 74
    0
  0
ENDTAB
  0
TABLE
  2
LAYER
  5
2
330
0
100
AcDbSymbolTable
 70
    1
  0
LAYER
  5
10
330
2
100
AcDbSymbolTableRecord
100
AcDbLayerTableRecord
  2
0
 70
    0
 62
    7
  6
CONTINUOUS
370
   -3
390
F
  0
ENDTAB
  0
TABLE
  2
STYLE
  5
3
330
0
100
AcDbSymbolTable
 70
    3
  0
STYLE
  5
4A
330
2
100
AcDbSymbolTableRecord
100
AcDbTextStyleTableRecord
  2
Standard
 70
    0
 40
0
 41
1
 50
0
 71
    0
 42
1
  3
txt
  4

  0
ENDTAB
  0
TABLE
  2
VIEW
  5
6
330
0
100
AcDbSymbolTable
 70
    0
  0
ENDTAB
  0
TABLE
  2
UCS
  5
7
330
0
100
AcDbSymbolTable
 70
    0
  0
ENDTAB
  0
TABLE
  2
APPID
  5
9
330
0
100
AcDbSymbolTable
 70
    1
  0
APPID
  5
12
330
9
100
AcDbSymbolTableRecord
100
AcDbRegAppTableRecord
  2
ACAD
 70
    0
  0
APPID
  5
4B
330
9
100
AcDbSymbolTableRecord
100
AcDbRegAppTableRecord
  2
LibreCad
 70
    0
  0
ENDTAB
  0
TABLE
  2
DIMSTYLE
  5
A
330
0
100
AcDbSymbolTable
 70
    1
100
AcDbDimStyleTable
 71
    1
  0
DIMSTYLE
105
4C
330
A
100
AcDbSymbolTableRecord
100
AcDbDimStyleTableRecord
  2
Standard
 70
    0
 40
1
 41
2.5
 42
0.625
 43
0.38
 44
1.25
 45
0
 46
0
 47
0
 48
0
 49
1
140
2.5
141
0.09
142
2.5
143
25.4
144
1
145
0
146
1
147
0.625
148
0
 71
    0
 72
    0
 73
    0
 74
    1
 75
    0
 76
    0
 77
    0
 78
    1
 79
    0
170
    0
171
    2
172
    0
173
    0
174
    0
175
    0
176
    0
177
    0
178
    0
179
    0
271
    2
272
    4
273
    2
274
    2
275
    0
276
    0
277
    2
278
    0
279
    0
280
    0
281
    0
282
    0
283
    1
284
    0
285
    0
286
    0
288
    0
289
    3
340
standard
341

371
   -2
372
   -2
  0
ENDTAB
  0
TABLE
  2
BLOCK_RECORD
  5
1
330
0
100
AcDbSymbolTable
 70
    2
  0
BLOCK_RECORD
  5
1F
330
1
100
AcDbSymbolTableRecord
100
AcDbBlockTableRecord
  2
*Model_Space
 70
    0
280
    1
281
    0
  0
BLOCK_RECORD
  5
1E
330
1
100
AcDbSymbolTableRecord
100
AcDbBlockTableRecord
  2
*Paper_Space
 70
    0
280
    1
281
    0
  0
ENDTAB
  0
ENDSEC
  0
SECTION
  2
BLOCKS
  0
BLOCK
  5
20
330
1F
100
AcDbEntity
  8
0
100
AcDbBlockBegin
  2
*Model_Space
 70
    0
 10
0
 20
0
 30
0
  3
*Model_Space
  1

  0
ENDBLK
  5
21
330
1F
100
AcDbEntity
  8
0
100
AcDbBlockEnd
  0
BLOCK
  5
1C
330
1B
100
AcDbEntity
  8
0
100
AcDbBlockBegin
  2
*Paper_Space
 70
    0
 10
0
 20
0
 30
0
  3
*Paper_Space
  1

  0
ENDBLK
  5
1D
330
1F
100
AcDbEntity
  8
0
100
AcDbBlockEnd
  0
ENDSEC
  0
SECTION
  2
ENTITIES
  0
LWPOLYLINE
  5
4D
100
AcDbEntity
  8
0
  6
ByLayer
 62
    0
370
   -1
100
AcDbPolyline
 90
  651
 70
    1
 43
0
 10
2.67839
 20
17.5806
 10
2.67156
 20
17.5647
 10
2.65224
 20
17.5163
 10
2.62646
 20
17.4474
 10
2.60514
 20
17.3851
 10
2.59467
 20
17.3511
 10
2.59229
 20
17.3403
 10
2.58996
 20
17.3303
 10
2.58051
 20
17.3006
 10
2.56608
 20
17.28
 10
2.54557
 20
17.2764
 10
2.52289
 20
17.284
 10
2.5159
 20
17.2875
 10
2.5076
 20
17.2917
 10
2.48042
 20
17.2993
 10
2.44575
 20
17.2997
 10
2.41314
 20
17.2892
 10
2.39035
 20
17.2743
 10
2.38396
 20
17.2681
 10
2.37478
 20
17.2588
 10
2.3514
 20
17.2269
 10
2.30979
 20
17.1626
 10
2.26318
 20
17.0831
 10
2.21571
 20
16.9962
 10
2.1716
 20
16.9097
 10
2.13493
 20
16.8314
 10
2.10986
 20
16.7692
 10
2.10064
 20
16.7403
 10
2.10064
 20
16.7306
 10
2.10064
 20
16.7278
 10
2.10553
 20
16.7193
 10
2.11888
 20
16.7033
 10
2.13872
 20
16.685
 10
2.15679
 20
16.671
 10
2.16314
 20
16.6667
 10
2.16928
 20
16.6625
 10
2.18756
 20
16.6496
 10
2.20742
 20
16.6344
 10
2.22076
 20
16.6229
 10
2.22564
 20
16.6182
 10
2.22564
 20
16.6167
 10
2.22564
 20
16.6137
 10
2.22021
 20
16.6049
 10
2.20546
 20
16.5782
 10
2.18343
 20
16.5406
 10
2.16308
 20
16.5069
 10
2.15619
 20
16.4958
 10
2.14887
 20
16.4836
 10
2.12831
 20
16.4463
 10
2.10286
 20
16.3953
 10
2.0829
 20
16.3487
 10
2.0734
 20
16.3218
 10
2.07146
 20
16.3125
 10
2.06483
 20
16.2847
 10
2.01551
 20
16.1581
 10
1.93983
 20
16.0382
 10
1.92008
 20
16.0139
 10
1.90728
 20
15.9983
 10
1.87181
 20
15.9489
 10
1.83203
 20
15.884
 10
1.80501
 20
15.8276
 10
1.79508
 20
15.7975
 10
1.79508
 20
15.7875
 10
1.79508
 20
15.7806
 10
1.78674
 20
15.7594
 10
1.77001
 20
15.724
 10
1.7659
 20
15.7167
 10
1.76129
 20
15.7078
 10
1.75071
 20
15.6794
 10
1.74121
 20
15.6276
 10
1.7354
 20
15.5424
 10
1.73199
 20
15.4387
 10
1.73118
 20
15.4042
 10
1.73068
 20
15.379
 10
1.72814
 20
15.3033
 10
1.72385
 20
15.2192
 10
1.71903
 20
15.1604
 10
1.71588
 20
15.1375
 10
1.71451
 20
15.1361
 10
1.71311
 20
15.1347
 10
1.68485
 20
15.1406
 10
1.61154
 20
15.1601
 10
1.50569
 20
15.1917
 10
1.4101
 20
15.2217
 10
1.37842
 20
15.2319
 10
1.32541
 20
15.249
 10
1.16656
 20
15.3001
 10
1.01074
 20
15.35
 10
0.902235
 20
15.3838
 10
0.832194
 20
15.4035
 10
0.791992
 20
15.4115
 10
0.772894
 20
15.4101
 10
0.766168
 20
15.4013
 10
0.763997
 20
15.3908
 10
0.7631289999999999
 20
15.3875
 10
0.761719
 20
15.3829
 10
0.759657
 20
15.3615
 10
0.7631289999999999
 20
15.3469
 10
0.76454
 20
15.3458
 10
0.7669280000000001
 20
15.3435
 10
0.8006720000000001
 20
15.3314
 10
0.890354
 20
15.299
 10
1.01649
 20
15.2547
 10
1.16189
 20
15.2043
 10
1.30946
 20
15.1537
 10
1.44206
 20
15.1089
 10
1.54249
 20
15.0757
 10
1.58068
 20
15.0631
 10
1.59369
 20
15.0597
 10
1.60796
 20
15.0565
 10
1.64931
 20
15.0392
 10
1.67925
 20
15.0119
 10
1.68137
 20
14.9831
 10
1.66157
 20
14.9612
 10
1.65343
 20
14.9569
 10
1.64888
 20
14.9546
 10
1.63493
 20
14.9449
 10
1.60878
 20
14.925
 10
1.57818
 20
14.9
 10
1.55425
 20
14.8793
 10
1.54644
 20
14.8722
 10
1.53862
 20
14.865
 10
1.51449
 20
14.844
 10
1.48167
 20
14.8178
 10
1.45171
 20
14.7961
 10
1.43446
 20
14.785
 10
1.42839
 20
14.7819
 10
1.42247
 20
14.7789
 10
1.40435
 20
14.7664
 10
1.37077
 20
14.7408
 10
1.33192
 20
14.7088
 10
1.30203
 20
14.6825
 10
1.29232
 20
14.6736
 10
1.28277
 20
14.6644
 10
1.25293
 20
14.6381
 10
1.21311
 20
14.6063
 10
1.17741
 20
14.5818
 10
1.15755
 20
14.5704
 10
1.15061
 20
14.5681
 10
1.14404
 20
14.5656
 10
1.12473
 20
14.5576
 10
1.11258
 20
14.5494
 10
1.11214
 20
14.5406
 10
1.11887
 20
14.5307
 10
1.12147
 20
14.5278
 10
1.12934
 20
14.519
 10
1.1448
 20
14.4851
 10
1.15636
 20
14.4254
 10
1.1556
 20
14.3536
 10
1.14703
 20
14.2943
 10
1.14231
 20
14.275
 10
1.13976
 20
14.2654
 10
1.13298
 20
14.2361
 10
1.1263
 20
14.2014
 10
1.12272
 20
14.175
 10
1.12212
 20
14.1632
 10
1.12283
 20
14.1611
 10
1.12386
 20
14.1588
 10
1.11605
 20
14.1383
 10
1.09505
 20
14.1132
 10
1.08952
 20
14.1083
 10
1.0836
 20
14.1032
 10
1.05773
 20
14.0686
 10
1.04085
 20
14.0306
 10
1.0395
 20
14.0236
 10
1.03825
 20
14.0176
 10
1.03147
 20
14.0003
 10
1.01693
 20
13.9717
 10
0.997721
 20
13.9414
 10
0.9815
 20
13.9194
 10
0.97564
 20
13.9125
 10
0.969618
 20
13.9057
 10
0.952854
 20
13.8844
 10
0.935331
 20
13.8575
 10
0.924046
 20
13.8334
 10
0.920085
 20
13.8188
 10
0.920085
 20
13.8139
 10
0.920085
 20
13.8033
 10
0.913792
 20
13.7714
 10
0.902018
 20
13.7275
 10
0.899251
 20
13.7195
 10
0.896431
 20
13.7112
 10
0.882758
 20
13.6589
 10
0.8725039999999999
 20
13.6059
 10
0.871474
 20
13.5972
 10
0.86914
 20
13.5784
 10
0.858996
 20
13.5224
 10
0.838433
 20
13.4599
 10
0.803874
 20
13.3967
 10
0.7634
 20
13.3383
 10
0.74924
 20
13.3194
 10
0.740181
 20
13.3073
 10
0.714085
 20
13.2703
 10
0.6837569999999999
 20
13.224
 10
0.661512
 20
13.1855
 10
0.651964
 20
13.1656
 10
0.650608
 20
13.1597
 10
0.64529
 20
13.137
 10
0.624349
 20
13.0701
 10
0.592936
 20
13.0124
 10
0.552137
 20
12.9814
 10
0.511393
 20
12.9722
 10
0.497831
 20
12.9722
 10
0.489908
 20
12.9722
 10
0.4662
 20
12.9646
 10
0.431532
 20
12.9447
 10
0.399414
 20
12.9166
 10
0.380371
 20
12.8933
 10
0.375651
 20
12.8847
 10
0.374024
 20
12.8817
 10
0.370063
 20
12.8721
 10
0.372993
 20
12.8696
 10
0.385579
 20
12.8779
 10
0.403212
 20
12.8924
 10
0.408962
 20
12.8972
 10
0.419976
 20
12.907
 10
0.458658
 20
12.9297
 10
0.5181210000000001
 20
12.9493
 10
0.584147
 20
12.9555
 10
0.636501
 20
12.951
 10
0.653429
 20
12.9472
 10
0.671442
 20
12.9431
 10
0.768338
 20
12.9467
 10
0.863824
 20
12.9816
 10
0.881185
 20
12.9931
 10
0.893446
 20
13.0014
 10
0.9327260000000001
 20
13.0227
 10
0.982206
 20
13.0353
 10
1.04367
 20
13.032
 10
1.10943
 20
13.019
 10
1.13118
 20
13.0139
 10
1.15679
 20
13.0081
 10
1.23362
 20
12.9902
 10
1.29243
 20
12.9721
 10
1.33485
 20
12.9485
 10
1.37489
 20
12.9185
 10
1.38813
 20
12.9083
 10
1.3966
 20
12.9017
 10
1.42258
 20
12.8822
 10
1.45671
 20
12.8578
 10
1.48639
 20
12.8378
 10
1.50239
 20
12.8278
 10
1.5076
 20
12.825
 10
1.51297
 20
12.8221
 10
1.52989
 20
12.8145
 10
1.54676
 20
12.8129
 10
1.56418
 20
12.8211
 10
1.58231
 20
12.8353
 10
1.58811
 20
12.8403
 10
1.59592
 20
12.8467
 10
1.62235
 20
12.8625
 10
1.65913
 20
12.8729
 10
1.70236
 20
12.872
 10
1.74294
 20
12.8636
 10
1.75618
 20
12.8597
 10
1.76079
 20
12.8586
 10
1.77458
 20
12.8547
 10
1.78874
 20
12.8492
 10
1.79949
 20
12.8417
 10
1.80757
 20
12.8307
 10
1.81381
 20
12.8149
 10
1.81907
 20
12.7928
 10
1.82411
 20
12.7629
 10
1.8284
 20
12.7335
 10
1.82981
 20
12.7236
 10
1.83171
 20
12.7094
 10
1.84207
 20
12.667
 10
1.8654
 20
12.6141
 10
1.90457
 20
12.5563
 10
1.94906
 20
12.5022
 10
1.96451
 20
12.4847
 10
1.97433
 20
12.4737
 10
2.0051
 20
12.4418
 10
2.04036
 20
12.4103
 10
2.07172
 20
12.3888
 10
2.09315
 20
12.3786
 10
2.10064
 20
12.3764
 10
2.10824
 20
12.3743
 10
2.15201
 20
12.3542
 10
2.19299
 20
12.3285
 10
2.19922
 20
12.3236
 10
2.20497
 20
12.3186
 10
2.22412
 20
12.3055
 10
2.25265
 20
12.292
 10
2.28749
 20
12.2822
 10
2.32021
 20
12.2764
 10
2.33117
 20
12.275
 10
2.34153
 20
12.2739
 10
2.3724
 20
12.2682
 10
2.41938
 20
12.2571
 10
2.46631
 20
12.2432
 10
2.49744
 20
12.2321
 10
2.5076
 20
12.2278
 10
2.5165
 20
12.2238
 10
2.54389
 20
12.2134
 10
2.57943
 20
12.2019
 10
2.61029
 20
12.1944
 10
2.62701
 20
12.1917
 10
2.6326
 20
12.1917
 10
2.6786
 20
12.1938
 10
2.81694
 20
12.1954
 10
2.94401
 20
12.1827
 10
3.03413
 20
12.1491
 10
3.09115
 20
12.1069
 10
3.10758
 20
12.0903
 10
3.11442
 20
12.0834
 10
3.13363
 20
12.0616
 10
3.15978
 20
12.0282
 10
3.18311
 20
11.9942
 10
3.19672
 20
11.9717
 10
3.20063
 20
11.9639
 10
3.20546
 20
11.9538
 10
3.236
 20
11.9082
 10
3.26938
 20
11.8757
 10
3.27561
 20
11.8722
 10
3.2819
 20
11.8685
 10
3.30165
 20
11.8585
 10
3.32488
 20
11.8545
 10
3.35644
 20
11.8606
 10
3.39481
 20
11.8723
 10
3.40756
 20
11.8764
 10
3.43067
 20
11.884
 10
3.50239
 20
11.8998
 10
3.59315
 20
11.9077
 10
3.67692
 20
11.8998
 10
3.73324
 20
11.8844
 10
3.75065
 20
11.8764
 10
3.75993
 20
11.8721
 10
3.78842
 20
11.8601
 10
3.81554
 20
11.8523
 10
3.83692
 20
11.852
 10
3.85265
 20
11.8562
 10
3.85758
 20
11.8583
 10
3.86242
 20
11.8608
 10
3.88222
 20
11.8778
 10
3.89231
 20
11.8955
 10
3.89231
 20
11.9014
 10
3.89231
 20
11.9073
 10
3.89958
 20
11.9249
 10
3.91385
 20
11.941
 10
3.91732
 20
11.943
 10
3.92051
 20
11.9448
 10
3.9286
 20
11.9531
 10
3.93587
 20
11.9698
 10
3.93972
 20
11.9954
 10
3.94092
 20
12.0228
 10
3.94092
 20
12.032
 10
3.94092
 20
12.048
 10
3.94646
 20
12.0959
 10
3.96035
 20
12.1302
 10
3.96451
 20
12.1347
 10
3.96869
 20
12.1395
 10
3.9764
 20
12.1582
 10
3.98394
 20
12.2064
 10
3.98828
 20
12.2967
 10
3.99046
 20
12.4086
 10
3.99089
 20
12.4459
 10
3.99137
 20
12.4736
 10
3.99197
 20
12.557
 10
3.99143
 20
12.6502
 10
3.98953
 20
12.7156
 10
3.98779
 20
12.7413
 10
3.98676
 20
12.7431
 10
3.98394
 20
12.7479
 10
3.97424
 20
12.7913
 10
3.95671
 20
12.8874
 10
3.93886
 20
13.0019
 10
3.92833
 20
13.0796
 10
3.92562
 20
13.1056
 10
3.92312
 20
13.1318
 10
3.92507
 20
13.2113
 10
3.94646
 20
13.2868
 10
3.98964
 20
13.3321
 10
4.03847
 20
13.3472
 10
4.05479
 20
13.3472
 10
4.06418
 20
13.3472
 10
4.09244
 20
13.3537
 10
4.11208
 20
13.3691
 10
4.11453
 20
13.3736
 10
4.11626
 20
13.3774
 10
4.13688
 20
13.3958
 10
4.16656
 20
13.4087
 10
4.17285
 20
13.4097
 10
4.18435
 20
13.4122
 10
4.21821
 20
13.4226
 10
4.25879
 20
13.4415
 10
4.29801
 20
13.4685
 10
4.32958
 20
13.4959
 10
4.33951
 20
13.5055
 10
4.35075
 20
13.5166
 10
4.38835
 20
13.5458
 10
4.43739
 20
13.5638
 10
4.50006
 20
13.5616
 10
4.56733
 20
13.5475
 10
4.58951
 20
13.5417
 10
4.60574
 20
13.5377
 10
4.65489
 20
13.5267
 10
4.70757
 20
13.5186
 10
4.75711
 20
13.5165
 10
4.79915
 20
13.5183
 10
4.81315
 20
13.5194
 10
4.8226
 20
13.5204
 10
4.85101
 20
13.5239
 10
4.88162
 20
13.5299
 10
4.90701
 20
13.5391
 10
4.9291
 20
13.553
 10
4.94987
 20
13.5732
 10
4.97131
 20
13.6013
 10
4.99544
 20
13.6389
 10
5.01714
 20
13.6753
 10
5.02425
 20
13.6875
 10
5.03885
 20
13.7132
 10
5.088
 20
13.7871
 10
5.15093
 20
13.8566
 10
5.22071
 20
13.9028
 10
5.28326
 20
13.9267
 10
5.30479
 20
13.9319
 10
5.3209
 20
13.9358
 10
5.36854
 20
13.9507
 10
5.42128
 20
13.9757
 10
5.47374
 20
14.0132
 10
5.52138
 20
14.055
 10
5.53674
 20
14.0694
 10
5.55165
 20
14.0831
 10
5.6225
 20
14.1368
 10
5.69189
 20
14.1739
 10
5.70617
 20
14.1792
 10
5.71539
 20
14.1826
 10
5.74246
 20
14.195
 10
5.77681
 20
14.2143
 10
5.80675
 20
14.235
 10
5.82449
 20
14.25
 10
5.82981
 20
14.2556
 10
5.83919
 20
14.2658
 10
5.87001
 20
14.2946
 10
5.91103
 20
14.3203
 10
5.96143
 20
14.3371
 10
6.01258
 20
14.3464
 10
6.02979
 20
14.3486
 10
6.06451
 20
14.3532
 10
6.16868
 20
14.3679
 10
6.25043
 20
14.3842
 10
6.29753
 20
14.4039
 10
6.32449
 20
14.4253
 10
6.33257
 20
14.4333
 10
6.37842
 20
14.4792
 10
6.24924
 20
14.4806
 10
6.20101
 20
14.4815
 10
6.05647
 20
14.4881
 10
5.91868
 20
14.5033
 10
5.8246
 20
14.5287
 10
5.77621
 20
14.5547
 10
5.76313
 20
14.5667
 10
5.75928
 20
14.5699
 10
5.74908
 20
14.5826
 10
5.73133
 20
14.6094
 10
5.71169
 20
14.6429
 10
5.69694
 20
14.67
 10
5.69228
 20
14.6792
 10
5.68733
 20
14.6896
 10
5.67046
 20
14.72
 10
5.64296
 20
14.7637
 10
5.61333
 20
14.8051
 10
5.59272
 20
14.8308
 10
5.58535
 20
14.8389
 10
5.57769
 20
14.8475
 10
5.55653
 20
14.8746
 10
5.52507
 20
14.9196
 10
5.4949
 20
14.9681
 10
5.47575
 20
15.0022
 10
5.47006
 20
15.0139
 10
5.45811
 20
15.0376
 10
5.42068
 20
15.1083
 10
5.37929
 20
15.1783
 10
5.3464
 20
15.2231
 10
5.3291
 20
15.2399
 10
5.32286
 20
15.2417
 10
5.32004
 20
15.2424
 10
5.28933
 20
15.2483
 10
5.24681
 20
15.2556
 10
5.23812
 20
15.2569
 10
5.22803
 20
15.2581
 10
5.16883
 20
15.2765
 10
5.10476
 20
15.3097
 10
5.09229
 20
15.3181
 10
5.08117
 20
15.3251
 10
5.04719
 20
15.3456
 10
4.986
 20
15.381
 10
4.9165
 20
15.42
 10
4.86399
 20
15.4489
 10
4.84646
 20
15.4583
 10
4.83029
 20
15.4669
 10
4.78239
 20
15.4938
 10
4.72754
 20
15.5264
 10
4.68804
 20
15.5529
 10
4.67182
 20
15.566
 10
4.67008
 20
15.5694
 10
4.66797
 20
15.5736
 10
4.66379
 20
15.5985
 10
4.66797
 20
15.6282
 10
4.67008
 20
15.6347
 10
4.67285
 20
15.6421
 10
4.67736
 20
15.6783
 10
4.66938
 20
15.7194
 10
4.6659
 20
15.7292
 10
4.66118
 20
15.7431
 10
4.65533
 20
15.7876
 10
4.66379
 20
15.8483
 10
4.69206
 20
15.9147
 10
4.72765
 20
15.9722
 10
4.74089
 20
15.9903
 10
4.74761
 20
15.9994
 10
4.76747
 20
16.0275
 10
4.79313
 20
16.0654
 10
4.81489
 20
16.0994
 10
4.82633
 20
16.1185
 10
4.82981
 20
16.125
 10
4.83675
 20
16.1389
 10
4.86572
 20
16.184
 10
4.92264
 20
16.2651
 10
4.9866
 20
16.349
 10
5.02869
 20
16.4004
 10
5.04368
 20
16.4167
 10
5.04867
 20
16.4224
 10
5.06207
 20
16.4408
 10
5.08046
 20
16.471
 10
5.09679
 20
16.5036
 10
5.10639
 20
16.5268
 10
5.10894
 20
16.5347
 10
5.11143
 20
16.5424
 10
5.12011
 20
16.5647
 10
5.13379
 20
16.596
 10
5.14817
 20
16.6244
 10
5.15793
 20
16.6408
 10
5.16174
 20
16.6458
 10
5.16575
 20
16.6515
 10
5.17714
 20
16.6694
 10
5.19678
 20
16.7019
 10
5.21793
 20
16.7394
 10
5.23324
 20
16.7681
 10
5.23812
 20
16.7778
 10
5.24283
 20
16.7874
 10
5.25846
 20
16.8153
 10
5.28028
 20
16.85
 10
5.30078
 20
16.8786
 10
5.31278
 20
16.8931
 10
5.31728
 20
16.8972
 10
5.35064
 20
16.925
 10
5.22564
 20
16.9486
 10
5.1964
 20
16.9543
 10
5.10975
 20
16.9763
 10
5.00493
 20
17.011
 10
4.91917
 20
17.0496
 10
4.87332
 20
17.0772
 10
4.86035
 20
17.0889
 10
4.84733
 20
17.1006
 10
4.8036
 20
17.13
 10
4.73063
 20
17.165
 10
4.6371
 20
17.1951
 10
4.54844
 20
17.2164
 10
4.51867
 20
17.2222
 10
4.49929
 20
17.226
 10
4.44097
 20
17.2364
 10
4.38775
 20
17.2435
 10
4.35385
 20
17.2438
 10
4.33817
 20
17.2403
 10
4.33399
 20
17.2375
 10
4.32281
 20
17.2307
 10
4.28065
 20
17.2242
 10
4.20356
 20
17.2292
 10
4.11421
 20
17.2508
 10
4.04585
 20
17.2765
 10
4.02425
 20
17.2875
 10
4.0166
 20
17.2914
 10
3.97407
 20
17.3099
 10
3.93642
 20
17.3236
 10
3.93121
 20
17.325
 10
3.92128
 20
17.3274
 10
3.89344
 20
17.3424
 10
3.86778
 20
17.3731
 10
3.85439
 20
17.4167
 10
3.85221
 20
17.4585
 10
3.8534
 20
17.4722
 10
3.85411
 20
17.479
 10
3.85525
 20
17.4994
 10
3.85499
 20
17.5215
 10
3.85281
 20
17.5362
 10
3.8501
 20
17.5417
 10
3.84924
 20
17.5417
 10
3.84592
 20
17.5417
 10
3.8361
 20
17.5346
 10
3.80935
 20
17.5151
 10
3.77197
 20
17.486
 10
3.72715
 20
17.4494
 10
3.678
 20
17.4085
 10
3.62756
 20
17.3653
 10
3.57894
 20
17.3228
 10
3.54617
 20
17.2933
 10
3.53537
 20
17.2833
 10
3.5275
 20
17.2761
 10
3.50276
 20
17.2553
 10
3.46625
 20
17.2275
 10
3.43024
 20
17.2033
 10
3.40722
 20
17.1899
 10
3.39925
 20
17.1861
 10
3.39154
 20
17.1821
 10
3.36876
 20
17.1699
 10
3.33257
 20
17.1496
 10
3.29531
 20
17.1274
 10
3.26992
 20
17.1113
 10
3.26172
 20
17.1056
 10
3.2539
 20
17.1004
 10
3.23031
 20
17.0856
 10
3.19906
 20
17.0667
 10
3.17165
 20
17.0508
 10
3.15685
 20
17.0426
 10
3.15201
 20
17.0403
 10
3.14301
 20
17.0362
 10
3.11279
 20
17.0313
 10
3.06885
 20
17.0342
 10
3.02718
 20
17.0479
 10
3.00157
 20
17.0637
 10
2.99507
 20
17.0708
 10
2.99121
 20
17.075
 10
2.95979
 20
17.0997
 10
2.92074
 20
17.1229
 10
2.91314
 20
17.1264
 10
2.90549
 20
17.1299
 10
2.86762
 20
17.1486
 10
2.83951
 20
17.1646
 10
2.83675
 20
17.1667
 10
2.83393
 20
17.1685
 10
2.81119
 20
17.1799
 10
2.78364
 20
17.1913
 10
2.77843
 20
17.1931
 10
2.77106
 20
17.1957
 10
2.75239
 20
17.2129
 10
2.72906
 20
17.2499
 10
2.70942
 20
17.2996
 10
2.69433
 20
17.3576
 10
2.68474
 20
17.42
 10
2.68153
 20
17.4821
 10
2.6856
 20
17.5399
 10
2.69336
 20
17.5772
 10
2.69786
 20
17.5889
 10
2.70036
 20
17.5958
 10
2.70611
 20
17.6174
 10
2.70372
 20
17.6243
 10
2.69353
 20
17.6117
 10
2.68169
 20
17.5886
 10
2.67839
 20
17.5806
  0
LWPOLYLINE
  5
4E
100
AcDbEntity
  8
0
  6
ByLayer
 62
    0
370
   -1
100
AcDbPolyline
 90
  523
 70
    1
 43
0
 10
14.8576
 20
17.1167
 10
14.8358
 20
17.1011
 10
14.7676
 20
17.0592
 10
14.6711
 20
17.0083
 10
14.5846
 20
16.9722
 10
14.5393
 20
16.9583
 10
14.5243
 20
16.9583
 10
14.5181
 20
16.9583
 10
14.4999
 20
16.9557
 10
14.4693
 20
16.9485
 10
14.4368
 20
16.9378
 10
14.4136
 20
16.9286
 10
14.4063
 20
16.925
 10
14.3965
 20
16.9204
 10
14.3688
 20
16.9047
 10
14.3253
 20
16.8776
 10
14.2792
 20
16.8464
 10
14.2339
 20
16.8136
 10
14.1928
 20
16.7817
 10
14.1593
 20
16.7532
 10
14.1367
 20
16.7307
 10
14.1285
 20
16.7203
 10
14.1285
 20
16.7167
 10
14.1285
 20
16.7133
 10
14.1236
 20
16.7032
 10
14.1104
 20
16.6853
 10
14.0904
 20
16.6644
 10
14.0654
 20
16.6422
 10
14.0371
 20
16.6199
 10
14.0071
 20
16.5989
 10
13.9772
 20
16.5807
 10
13.9564
 20
16.5697
 10
13.9492
 20
16.5667
 10
13.9419
 20
16.5637
 10
13.9201
 20
16.5543
 10
13.8881
 20
16.5394
 10
13.857
 20
16.5243
 10
13.8376
 20
16.5144
 10
13.8312
 20
16.5111
 10
13.8233
 20
16.5071
 10
13.7995
 20
16.4954
 10
13.7782
 20
16.4896
 10
13.7587
 20
16.4932
 10
13.739
 20
16.5022
 10
13.7326
 20
16.5056
 10
13.7263
 20
16.509
 10
13.6956
 20
16.5332
 10
13.6725
 20
16.5594
 10
13.6701
 20
16.5639
 10
13.6673
 20
16.5685
 10
13.6542
 20
16.5847
 10
13.6444
 20
16.5897
 10
13.6437
 20
16.5889
 10
13.6426
 20
16.5878
 10
13.6394
 20
16.5671
 10
13.6334
 20
16.5133
 10
13.6267
 20
16.436
 10
13.6215
 20
16.3664
 10
13.6201
 20
16.3431
 10
13.6185
 20
16.3182
 10
13.6122
 20
16.2435
 10
13.6022
 20
16.1497
 10
13.5913
 20
16.0719
 10
13.5842
 20
16.0324
 10
13.5812
 20
16.0208
 10
13.5787
 20
16.0117
 10
13.5719
 20
15.9842
 10
13.5633
 20
15.9458
 10
13.556
 20
15.9107
 10
13.5519
 20
15.8901
 10
13.5506
 20
15.8833
 10
13.5487
 20
15.8696
 10
13.5337
 20
15.8297
 10
13.502
 20
15.7875
 10
13.4588
 20
15.7599
 10
13.4204
 20
15.75
 10
13.4076
 20
15.75
 10
13.3971
 20
15.75
 10
13.3657
 20
15.7462
 10
13.3447
 20
15.7382
 10
13.3437
 20
15.7361
 10
13.3426
 20
15.7344
 10
13.3298
 20
15.7265
 10
13.3131
 20
15.7222
 10
13.3076
 20
15.7222
 10
13.3049
 20
15.7222
 10
13.297
 20
15.7215
 10
13.2894
 20
15.7183
 10
13.2847
 20
15.7108
 10
13.2827
 20
15.6974
 10
13.2834
 20
15.6762
 10
13.2866
 20
15.6456
 10
13.2924
 20
15.6036
 10
13.2985
 20
15.5624
 10
13.3006
 20
15.5486
 10
13.3043
 20
15.5254
 10
13.3191
 20
15.4562
 10
13.3435
 20
15.3692
 10
13.3707
 20
15.2971
 10
13.3893
 20
15.2603
 10
13.3978
 20
15.25
 10
13.4039
 20
15.2428
 10
13.4183
 20
15.2182
 10
13.4345
 20
15.179
 10
13.4441
 20
15.1385
 10
13.4462
 20
15.1115
 10
13.4451
 20
15.1028
 10
13.4447
 20
15.0978
 10
13.4417
 20
15.0831
 10
13.4352
 20
15.0707
 10
13.4242
 20
15.0643
 10
13.4117
 20
15.0625
 10
13.4076
 20
15.0625
 10
13.4
 20
15.0622
 10
13.3777
 20
15.0472
 10
13.3553
 20
15.0047
 10
13.3409
 20
14.9369
 10
13.3356
 20
14.8686
 10
13.3353
 20
14.8458
 10
13.3353
 20
14.8308
 10
13.3369
 20
14.7861
 10
13.3436
 20
14.7421
 10
13.3588
 20
14.7006
 10
13.3784
 20
14.6615
 10
13.3854
 20
14.6486
 10
13.3918
 20
14.6367
 10
13.4094
 20
14.5997
 10
13.4285
 20
14.5499
 10
13.4437
 20
14.4946
 10
13.4536
 20
14.4456
 10
13.4562
 20
14.4292
 10
13.4584
 20
14.4147
 10
13.467
 20
14.3714
 10
13.4799
 20
14.3189
 10
13.4943
 20
14.275
 10
13.5045
 20
14.2507
 10
13.509
 20
14.2431
 10
13.5135
 20
14.2354
 10
13.5352
 20
14.1938
 10
13.5506
 20
14.1576
 10
13.552
 20
14.1528
 10
13.5555
 20
14.1417
 10
13.586
 20
14.0987
 10
13.6545
 20
14.0176
 10
13.738
 20
13.9303
 10
13.7965
 20
13.8752
 10
13.8173
 20
13.8583
 10
13.8301
 20
13.8482
 10
13.8667
 20
13.8151
 10
13.8886
 20
13.7825
 10
13.8843
 20
13.757
 10
13.8628
 20
13.7389
 10
13.8548
 20
13.7347
 10
13.8458
 20
13.7306
 10
13.7962
 20
13.7041
 10
13.6883
 20
13.645
 10
13.5514
 20
13.569
 10
13.4424
 20
13.5079
 10
13.4062
 20
13.4875
 10
13.397
 20
13.4823
 10
13.3694
 20
13.4669
 10
13.3251
 20
13.4425
 10
13.279
 20
13.4174
 10
13.2473
 20
13.4002
 10
13.2368
 20
13.3944
 10
13.2244
 20
13.3878
 10
13.188
 20
13.3669
 10
13.1617
 20
13.3479
 10
13.1531
 20
13.3331
 10
13.1557
 20
13.3214
 10
13.1576
 20
13.318
 10
13.1593
 20
13.3146
 10
13.1716
 20
13.2996
 10
13.1829
 20
13.2917
 10
13.1867
 20
13.2917
 10
13.1922
 20
13.2917
 10
13.2088
 20
13.3011
 10
13.2607
 20
13.3266
 10
13.3352
 20
13.3644
 10
13.4252
 20
13.411
 10
13.5235
 20
13.4624
 10
13.6227
 20
13.5149
 10
13.7156
 20
13.5648
 10
13.7753
 20
13.5974
 10
13.7951
 20
13.6083
 10
13.808
 20
13.6156
 10
13.8471
 20
13.6368
 10
13.8883
 20
13.6576
 10
13.9199
 20
13.6708
 10
13.9432
 20
13.6768
 10
13.9592
 20
13.6756
 10
13.969
 20
13.6673
 10
13.9742
 20
13.6523
 10
13.9757
 20
13.636
 10
13.9757
 20
13.6305
 10
13.9757
 20
13.6156
 10
13.9978
 20
13.5708
 10
14.0538
 20
13.4761
 10
14.1279
 20
13.3704
 10
14.1843
 20
13.2997
 10
14.2049
 20
13.2778
 10
14.214
 20
13.268
 10
14.2408
 20
13.2376
 10
14.2865
 20
13.1842
 10
14.3362
 20
13.1249
 10
14.3721
 20
13.0813
 10
14.3839
 20
13.0667
 10
14.3986
 20
13.0482
 10
14.4435
 20
12.9936
 10
14.4975
 20
12.9325
 10
14.5503
 20
12.8804
 10
14.6058
 20
12.834
 10
14.6683
 20
12.7903
 10
14.7418
 20
12.746
 10
14.8304
 20
12.698
 10
14.9111
 20
12.6566
 10
14.9382
 20
12.6431
 10
14.9524
 20
12.6361
 10
14.9962
 20
12.6168
 10
15.0335
 20
12.6063
 10
15.0532
 20
12.6114
 10
15.059
 20
12.6268
 10
15.059
 20
12.6319
 10
15.059
 20
12.6376
 10
15.086
 20
12.6545
 10
15.1608
 20
12.6483
 10
15.274
 20
12.6156
 10
15.381
 20
12.574
 10
15.416
 20
12.5583
 10
15.4428
 20
12.5463
 10
15.5247
 20
12.5126
 10
15.6342
 20
12.4716
 10
15.725
 20
12.4419
 10
15.7651
 20
12.4306
 10
15.7785
 20
12.4306
 10
15.7818
 20
12.4306
 10
15.7918
 20
12.4333
 10
15.8114
 20
12.4405
 10
15.8346
 20
12.4511
 10
15.8529
 20
12.4605
 10
15.8589
 20
12.4639
 10
15.916
 20
12.4958
 10
15.9769
 20
12.4639
 10
15.9831
 20
12.4606
 10
16.0018
 20
12.4513
 10
16.0246
 20
12.441
 10
16.0426
 20
12.4339
 10
16.0512
 20
12.4309
 10
16.0533
 20
12.4306
 10
16.0564
 20
12.4306
 10
16.0657
 20
12.4342
 10
16.0861
 20
12.4443
 10
16.1117
 20
12.4593
 10
16.1326
 20
12.473
 10
16.1396
 20
12.4778
 10
16.1474
 20
12.4831
 10
16.1717
 20
12.498
 10
16.2068
 20
12.5177
 10
16.2411
 20
12.5348
 10
16.2626
 20
12.5445
 10
16.2701
 20
12.5472
 10
16.2778
 20
12.5504
 10
16.3004
 20
12.5621
 10
16.3262
 20
12.5811
 10
16.3501
 20
12.606
 10
16.3686
 20
12.6304
 10
16.3743
 20
12.6389
 10
16.3797
 20
12.6472
 10
16.3985
 20
12.6707
 10
16.43
 20
12.704
 10
16.4658
 20
12.736
 10
16.4936
 20
12.7574
 10
16.5035
 20
12.7639
 10
16.5214
 20
12.776
 10
16.579
 20
12.8065
 10
16.6513
 20
12.8283
 10
16.7257
 20
12.8301
 10
16.7876
 20
12.8187
 10
16.8075
 20
12.8125
 10
16.8167
 20
12.8098
 10
16.8447
 20
12.8029
 10
16.8761
 20
12.7983
 10
16.9029
 20
12.7996
 10
16.9264
 20
12.8073
 10
16.9476
 20
12.8222
 10
16.9681
 20
12.8449
 10
16.989
 20
12.8762
 10
17.0062
 20
12.9065
 10
17.0117
 20
12.9167
 10
17.0165
 20
12.9257
 10
17.0324
 20
12.9522
 10
17.0563
 20
12.9869
 10
17.0818
 20
13.0198
 10
17.1082
 20
13.0493
 10
17.134
 20
13.0745
 10
17.1582
 20
13.094
 10
17.1793
 20
13.1067
 10
17.1922
 20
13.1111
 10
17.1964
 20
13.1111
 10
17.2029
 20
13.1111
 10
17.2221
 20
13.1176
 10
17.2475
 20
13.1303
 10
17.2519
 20
13.1334
 10
17.2564
 20
13.1366
 10
17.2683
 20
13.1478
 10
17.2767
 20
13.1636
 10
17.2782
 20
13.1861
 10
17.2756
 20
13.2122
 10
17.2743
 20
13.2208
 10
17.2731
 20
13.229
 10
17.2672
 20
13.2533
 10
17.2562
 20
13.2809
 10
17.2399
 20
13.306
 10
17.2232
 20
13.3248
 10
17.2172
 20
13.3306
 10
17.2124
 20
13.3353
 10
17.1988
 20
13.3508
 10
17.1837
 20
13.3719
 10
17.1738
 20
13.3915
 10
17.1701
 20
13.4031
 10
17.1701
 20
13.407
 10
17.1701
 20
13.4134
 10
17.1568
 20
13.4325
 10
17.1207
 20
13.476
 10
17.0675
 20
13.5322
 10
17.0031
 20
13.5955
 10
16.9329
 20
13.6605
 10
16.8631
 20
13.7218
 10
16.7989
 20
13.7738
 10
16.76
 20
13.8026
 10
16.7465
 20
13.8111
 10
16.7219
 20
13.8268
 10
16.65
 20
13.8761
 10
16.5567
 20
13.9447
 10
16.4818
 20
14.0051
 10
16.4472
 20
14.0368
 10
16.441
 20
14.0458
 10
16.4357
 20
14.0535
 10
16.4256
 20
14.0801
 10
16.4212
 20
14.1194
 10
16.4282
 20
14.1588
 10
16.4404
 20
14.1856
 10
16.4464
 20
14.1931
 10
16.4499
 20
14.1976
 10
16.4624
 20
14.2236
 10
16.4665
 20
14.2469
 10
16.466
 20
14.25
 10
16.4649
 20
14.2531
 10
16.4654
 20
14.2633
 10
16.4697
 20
14.2826
 10
16.4776
 20
14.3051
 10
16.4851
 20
14.3222
 10
16.4881
 20
14.3278
 10
16.4933
 20
14.3372
 10
16.5106
 20
14.3887
 10
16.5174
 20
14.4463
 10
16.5174
 20
14.4653
 10
16.5174
 20
14.4769
 10
16.5185
 20
14.5117
 10
16.5239
 20
14.5431
 10
16.536
 20
14.5672
 10
16.5518
 20
14.586
 10
16.5575
 20
14.5917
 10
16.5624
 20
14.5968
 10
16.5786
 20
14.6108
 10
16.6057
 20
14.6312
 10
16.6351
 20
14.6507
 10
16.656
 20
14.6629
 10
16.6632
 20
14.6667
 10
16.6732
 20
14.6719
 10
16.7272
 20
14.7124
 10
16.779
 20
14.766
 10
16.7882
 20
14.7778
 10
16.7981
 20
14.7907
 10
16.8258
 20
14.8314
 10
16.8399
 20
14.8786
 10
16.8315
 20
14.9428
 10
16.8097
 20
15.0213
 10
16.8021
 20
15.0472
 10
16.7936
 20
15.075
 10
16.7847
 20
15.211
 10
16.8183
 20
15.3351
 10
16.8311
 20
15.3569
 10
16.8365
 20
15.3664
 10
16.8508
 20
15.3958
 10
16.8636
 20
15.4367
 10
16.8719
 20
15.4907
 10
16.8771
 20
15.5497
 10
16.8785
 20
15.5694
 10
16.8793
 20
15.5858
 10
16.8836
 20
15.6349
 10
16.8907
 20
15.689
 10
16.8997
 20
15.731
 10
16.9068
 20
15.7531
 10
16.9104
 20
15.7597
 10
16.9139
 20
15.7667
 10
16.9274
 20
15.8146
 10
16.934
 20
15.8683
 10
16.934
 20
15.8861
 10
16.934
 20
15.8968
 10
16.9356
 20
15.9286
 10
16.941
 20
15.9611
 10
16.9515
 20
15.9885
 10
16.964
 20
16.0089
 10
16.9688
 20
16.0153
 10
16.9732
 20
16.0219
 10
17.0032
 20
16.0671
 10
17.0353
 20
16.1164
 10
17.041
 20
16.125
 10
17.0446
 20
16.1312
 10
17.0563
 20
16.15
 10
17.0701
 20
16.1712
 10
17.0814
 20
16.1868
 10
17.0867
 20
16.1935
 10
17.0881
 20
16.1944
 10
17.0929
 20
16.1981
 10
17.1037
 20
16.2136
 10
17.1165
 20
16.2429
 10
17.1253
 20
16.2783
 10
17.1285
 20
16.3061
 10
17.1285
 20
16.3153
 10
17.1285
 20
16.3667
 10
17.0394
 20
16.2736
 10
17.0307
 20
16.2644
 10
17.0036
 20
16.2374
 10
16.9714
 20
16.2078
 10
16.9465
 20
16.1879
 10
16.936
 20
16.1806
 10
16.9325
 20
16.1806
 10
16.9297
 20
16.1803
 10
16.9104
 20
16.1667
 10
16.8892
 20
16.1421
 10
16.8854
 20
16.1361
 10
16.8824
 20
16.1314
 10
16.871
 20
16.1189
 10
16.849
 20
16.0994
 10
16.8219
 20
16.0792
 10
16.7917
 20
16.0594
 10
16.761
 20
16.0417
 10
16.7317
 20
16.0272
 10
16.7061
 20
16.0175
 10
16.6915
 20
16.0139
 10
16.6868
 20
16.0139
 10
16.6835
 20
16.0139
 10
16.6738
 20
16.0161
 10
16.6513
 20
16.0221
 10
16.6226
 20
16.031
 10
16.5987
 20
16.0389
 10
16.591
 20
16.0417
 10
16.5788
 20
16.0458
 10
16.5081
 20
16.0618
 10
16.4421
 20
16.0694
 10
16.4201
 20
16.0694
 10
16.3983
 20
16.0694
 10
16.3331
 20
16.0769
 10
16.2644
 20
16.0921
 10
16.2535
 20
16.0958
 10
16.2444
 20
16.0992
 10
16.2171
 20
16.1079
 10
16.1742
 20
16.12
 10
16.1304
 20
16.1308
 10
16.1008
 20
16.1372
 10
16.091
 20
16.1389
 10
16.0035
 20
16.1569
 10
15.9549
 20
16.1139
 10
15.9493
 20
16.109
 10
15.9314
 20
16.096
 10
15.9033
 20
16.079
 10
15.8743
 20
16.0649
 10
15.8546
 20
16.0574
 10
15.8479
 20
16.0556
 10
15.8396
 20
16.0535
 10
15.8096
 20
16.0447
 10
15.75
 20
16.0265
 10
15.6774
 20
16.0035
 10
15.6188
 20
15.9843
 10
15.5992
 20
15.9778
 10
15.5806
 20
15.9718
 10
15.524
 20
15.9547
 10
15.4594
 20
15.9367
 10
15.4122
 20
15.9257
 10
15.3924
 20
15.9226
 10
15.3896
 20
15.9236
 10
15.3864
 20
15.925
 10
15.3699
 20
15.9397
 10
15.3554
 20
15.9608
 10
15.3535
 20
15.9653
 10
15.3513
 20
15.9701
 10
15.3282
 20
15.9956
 10
15.2961
 20
16.0167
 10
15.2894
 20
16.0194
 10
15.2785
 20
16.024
 10
15.2483
 20
16.0453
 10
15.2149
 20
16.084
 10
15.1903
 20
16.1343
 10
15.1778
 20
16.1793
 10
15.1756
 20
16.1944
 10
15.1743
 20
16.2022
 10
15.1697
 20
16.2254
 10
15.1614
 20
16.2633
 10
15.1514
 20
16.3036
 10
15.1436
 20
16.3322
 10
15.1408
 20
16.3417
 10
15.1342
 20
16.3633
 10
15.1174
 20
16.4293
 10
15.0954
 20
16.5297
 10
15.0792
 20
16.6215
 10
15.0729
 20
16.6679
 10
15.0729
 20
16.6833
 10
15.0729
 20
16.6885
 10
15.0701
 20
16.7039
 10
15.0629
 20
16.7317
 10
15.0524
 20
16.7631
 10
15.0429
 20
16.7867
 10
15.0394
 20
16.7944
 10
15.0313
 20
16.8126
 10
15.0097
 20
16.8686
 10
14.9786
 20
16.9599
 10
14.9518
 20
17.0506
 10
14.9383
 20
17.1042
 10
14.9353
 20
17.1222
 10
14.9271
 20
17.1667
 10
14.8576
 20
17.1167
  0
LWPOLYLINE
  5
4F
100
AcDbEntity
  8
0
  6
ByLayer
 62
    0
370
   -1
100
AcDbPolyline
 90
  859
 70
    1
 43
0
 10
8.04508
 20
16.5944
 10
8.04025
 20
16.5844
 10
8.027559999999999
 20
16.5535
 10
8.01779
 20
16.5143
 10
8.013999999999999
 20
16.4651
 10
8.014110000000001
 20
16.4121
 10
8.01454
 20
16.3944
 10
8.014760000000001
 20
16.3804
 10
8.01671
 20
16.3385
 10
8.020720000000001
 20
16.2832
 10
8.02582
 20
16.2349
 10
8.02946
 20
16.2086
 10
8.03119
 20
16.2
 10
8.0364
 20
16.1767
 10
8.0466
 20
16.1054
 10
8.04312
 20
16.0258
 10
8.01807
 20
15.9456
 10
7.98204
 20
15.8722
 10
7.96869
 20
15.8486
 10
7.96485
 20
15.8421
 10
7.95503
 20
15.8211
 10
7.94401
 20
15.791
 10
7.93664
 20
15.7619
 10
7.93397
 20
15.7436
 10
7.93397
 20
15.7375
 10
7.93397
 20
15.7011
 10
7.90983
 20
15.5918
 10
7.85856
 20
15.466
 10
7.84506
 20
15.4431
 10
7.83963
 20
15.434
 10
7.82374
 20
15.4069
 10
7.80496
 20
15.3742
 10
7.79053
 20
15.3483
 10
7.7839
 20
15.3361
 10
7.78256
 20
15.3333
 10
7.77696
 20
15.3226
 10
7.75738
 20
15.2429
 10
7.74815
 20
15.1264
 10
7.74783
 20
15.0972
 10
7.74761
 20
15.0681
 10
7.73682
 20
14.9804
 10
7.70057
 20
14.8776
 10
7.63103
 20
14.7725
 10
7.54899
 20
14.6785
 10
7.52007
 20
14.6486
 10
7.50831
 20
14.6365
 10
7.47336
 20
14.6
 10
7.43506
 20
14.5587
 10
7.40474
 20
14.5243
 10
7.38183
 20
14.496
 10
7.366
 20
14.4733
 10
7.35678
 20
14.4554
 10
7.35363
 20
14.4419
 10
7.35488
 20
14.434
 10
7.35618
 20
14.4319
 10
7.35721
 20
14.4306
 10
7.36019
 20
14.4206
 10
7.36572
 20
14.3971
 10
7.37196
 20
14.365
 10
7.3769
 20
14.3371
 10
7.37842
 20
14.3278
 10
7.38162
 20
14.3068
 10
7.39453
 20
14.2444
 10
7.41487
 20
14.1719
 10
7.43778
 20
14.1146
 10
7.45438
 20
14.0847
 10
7.46175
 20
14.0764
 10
7.47
 20
14.0671
 10
7.49024
 20
14.0353
 10
7.52126
 20
13.9771
 10
7.54785
 20
13.9158
 10
7.56082
 20
13.8782
 10
7.56315
 20
13.8653
 10
7.56446
 20
13.8588
 10
7.56461
 20
13.8383
 10
7.55757
 20
13.8056
 10
7.5401
 20
13.7614
 10
7.51807
 20
13.7152
 10
7.51036
 20
13.7
 10
7.50174
 20
13.6833
 10
7.47715
 20
13.6324
 10
7.45828
 20
13.583
 10
7.44982
 20
13.5383
 10
7.44786
 20
13.4981
 10
7.44786
 20
13.4847
 10
7.44786
 20
13.4737
 10
7.44672
 20
13.4406
 10
7.44299
 20
13.4089
 10
7.43608
 20
13.3873
 10
7.42882
 20
13.3763
 10
7.42563
 20
13.3736
 10
7.42264
 20
13.3712
 10
7.41542
 20
13.3618
 10
7.40978
 20
13.3453
 10
7.40858
 20
13.3219
 10
7.4106
 20
13.2971
 10
7.41174
 20
13.2889
 10
7.41401
 20
13.2726
 10
7.41379
 20
13.2225
 10
7.39833
 20
13.1693
 10
7.36387
 20
13.1262
 10
7.32346
 20
13.0977
 10
7.30897
 20
13.0903
 10
7.30089
 20
13.0863
 10
7.27567
 20
13.076
 10
7.23742
 20
13.063
 10
7.19917
 20
13.053
 10
7.17426
 20
13.0481
 10
7.1659
 20
13.0472
 10
7.15582
 20
13.0462
 10
7.09212
 20
13.0384
 10
7.02772
 20
13.0285
 10
7.01731
 20
13.0264
 10
7.00689
 20
13.0246
 10
6.97244
 20
13.0206
 10
6.90636
 20
13.0139
 10
6.82801
 20
13.0073
 10
6.76682
 20
13.0028
 10
6.74647
 20
13.0014
 10
6.71983
 20
13.0001
 10
6.64014
 20
12.9946
 10
6.55843
 20
12.9844
 10
6.48221
 20
12.9674
 10
6.41461
 20
12.9475
 10
6.39231
 20
12.9403
 10
6.37397
 20
12.9345
 10
6.31847
 20
12.9183
 10
6.23497
 20
12.8958
 10
6.15201
 20
12.8754
 10
6.09793
 20
12.8633
 10
6.07981
 20
12.8597
 10
6.06771
 20
12.8573
 10
6.03157
 20
12.8498
 10
5.99387
 20
12.8412
 10
5.96457
 20
12.833
 10
5.94157
 20
12.8245
 10
5.92275
 20
12.8147
 10
5.90593
 20
12.8029
 10
5.88906
 20
12.7881
 10
5.87472
 20
12.7741
 10
5.87007
 20
12.7694
 10
5.86111
 20
12.7601
 10
5.83251
 20
12.7337
 10
5.79785
 20
12.7113
 10
5.75792
 20
12.6986
 10
5.7181
 20
12.6928
 10
5.70481
 20
12.6917
 10
5.69749
 20
12.691
 10
5.66883
 20
12.6799
 10
5.64925
 20
12.6577
 10
5.64649
 20
12.6514
 10
5.64404
 20
12.6462
 10
5.62369
 20
12.6184
 10
5.59853
 20
12.5948
 10
5.59369
 20
12.5917
 10
5.58524
 20
12.5862
 10
5.56635
 20
12.5595
 10
5.5574
 20
12.5162
 10
5.56689
 20
12.47
 10
5.58621
 20
12.4375
 10
5.59506
 20
12.4291
 10
5.59967
 20
12.4249
 10
5.61208
 20
12.4105
 10
5.63238
 20
12.3839
 10
5.65343
 20
12.3529
 10
5.66824
 20
12.329
 10
5.67285
 20
12.3209
 10
5.67942
 20
12.3095
 10
5.69743
 20
12.2742
 10
5.71153
 20
12.2268
 10
5.71913
 20
12.1548
 10
5.72319
 20
12.0648
 10
5.72424
 20
12.0347
 10
5.73258
 20
11.825
 10
5.77843
 20
11.7805
 10
5.78282
 20
11.7762
 10
5.79633
 20
11.7631
 10
5.81168
 20
11.749
 10
5.82292
 20
11.7396
 10
5.82699
 20
11.7361
 10
5.8284
 20
11.7361
 10
5.83024
 20
11.7361
 10
5.83594
 20
11.7349
 10
5.8546
 20
11.7316
 10
5.88135
 20
11.7268
 10
5.90517
 20
11.7223
 10
5.91314
 20
11.7208
 10
5.93408
 20
11.7171
 10
5.99576
 20
11.699
 10
6.07525
 20
11.6646
 10
6.14594
 20
11.6209
 10
6.18951
 20
11.5847
 10
6.20204
 20
11.5709
 10
6.22086
 20
11.55
 10
6.26801
 20
11.4789
 10
6.32406
 20
11.3667
 10
6.36312
 20
11.2514
 10
6.3781
 20
11.1754
 10
6.37842
 20
11.15
 10
6.37842
 20
11.1366
 10
6.3814
 20
11.0963
 10
6.39208
 20
11.0535
 10
6.41297
 20
11.0149
 10
6.43756
 20
10.9835
 10
6.44646
 20
10.9736
 10
6.45068
 20
10.9689
 10
6.46311
 20
10.9542
 10
6.47683
 20
10.9366
 10
6.48611
 20
10.9231
 10
6.48953
 20
10.9172
 10
6.48953
 20
10.9153
 10
6.48953
 20
10.9118
 10
6.49593
 20
10.9014
 10
6.50857
 20
10.8861
 10
6.51172
 20
10.8834
 10
6.51937
 20
10.8754
 10
6.54286
 20
10.8382
 10
6.58154
 20
10.7677
 10
6.61447
 20
10.6978
 10
6.62842
 20
10.6651
 10
6.62842
 20
10.6542
 10
6.62842
 20
10.6477
 10
6.63758
 20
10.6282
 10
6.65582
 20
10.6042
 10
6.66038
 20
10.6
 10
6.67919
 20
10.5823
 10
6.73519
 20
10.5285
 10
6.78618
 20
10.4768
 10
6.81874
 20
10.4391
 10
6.83393
 20
10.4174
 10
6.83811
 20
10.4097
 10
6.84088
 20
10.4039
 10
6.86274
 20
10.3755
 10
6.88878
 20
10.3549
 10
6.89367
 20
10.3528
 10
6.89817
 20
10.3504
 10
6.91721
 20
10.341
 10
6.95703
 20
10.3217
 10
7.00754
 20
10.2975
 10
7.04926
 20
10.2776
 10
7.06315
 20
10.2708
 10
7.19786
 20
10.2042
 10
7.34788
 20
10.2125
 10
7.36257
 20
10.2133
 10
7.40685
 20
10.2148
 10
7.45757
 20
10.2155
 10
7.49468
 20
10.2143
 10
7.51069
 20
10.2125
 10
7.51313
 20
10.2111
 10
7.51633
 20
10.2092
 10
7.52403
 20
10.1999
 10
7.53733
 20
10.1795
 10
7.55176
 20
10.1527
 10
7.56625
 20
10.1219
 10
7.57954
 20
10.09
 10
7.59044
 20
10.0596
 10
7.59788
 20
10.0333
 10
7.60064
 20
10.0188
 10
7.60064
 20
10.0139
 10
7.60064
 20
10.0048
 10
7.59435
 20
9.97749
 10
7.58257
 20
9.9445
 10
7.57981
 20
9.93892
 10
7.57699
 20
9.93371
 10
7.56521
 20
9.905279999999999
 10
7.55897
 20
9.884650000000001
 10
7.55897
 20
9.87776
 10
7.55897
 20
9.87125
 10
7.57129
 20
9.851610000000001
 10
7.60861
 20
9.810280000000001
 10
7.67144
 20
9.75299
 10
7.73785
 20
9.697319999999999
 10
7.76036
 20
9.67914
 10
7.77442
 20
9.66797
 10
7.81532
 20
9.6326
 10
7.85562
 20
9.58751
 10
7.8941
 20
9.526859999999999
 10
7.93158
 20
9.45688
 10
7.94368
 20
9.43332
 10
7.95915
 20
9.40326
 10
8.003310000000001
 20
9.31174
 10
8.03342
 20
9.230079999999999
 10
8.038790000000001
 20
9.16949
 10
8.02929
 20
9.125220000000001
 10
8.02425
 20
9.11111
 10
8.021750000000001
 20
9.10331
 10
8.015510000000001
 20
9.07943
 10
8.006830000000001
 20
9.039759999999999
 10
7.99924
 20
8.99729
 10
7.99479
 20
8.96707
 10
7.99371
 20
8.95692
 10
7.99257
 20
8.94422
 10
7.99083
 20
8.90582
 10
7.99365
 20
8.866540000000001
 10
8.00379
 20
8.829040000000001
 10
8.01774
 20
8.794600000000001
 10
8.02285
 20
8.78331
 10
8.027240000000001
 20
8.77393
 10
8.038679999999999
 20
8.744680000000001
 10
8.053879999999999
 20
8.699170000000001
 10
8.066789999999999
 20
8.652290000000001
 10
8.07389
 20
8.62044
 10
8.07563
 20
8.609690000000001
 10
8.0779
 20
8.59657
 10
8.08371
 20
8.55681
 10
8.084149999999999
 20
8.52051
 10
8.075419999999999
 20
8.4879
 10
8.061249999999999
 20
8.45622
 10
8.05621
 20
8.44586
 10
8.050459999999999
 20
8.43403
 10
8.034829999999999
 20
8.397740000000001
 10
8.031140000000001
 20
8.378360000000001
 10
8.045249999999999
 20
8.38786
 10
8.06944
 20
8.416499999999999
 10
8.07704
 20
8.42637
 10
8.080349999999999
 20
8.43078
 10
8.08996
 20
8.444279999999999
 10
8.099830000000001
 20
8.460559999999999
 10
8.10704
 20
8.47711
 10
8.11187
 20
8.49567
 10
8.11469
 20
8.51807
 10
8.11589
 20
8.54617
 10
8.11567
 20
8.58165
 10
8.11486
 20
8.61524
 10
8.11453
 20
8.62642
 10
8.11431
 20
8.63743
 10
8.11469
 20
8.67046
 10
8.12022
 20
8.698460000000001
 10
8.13536
 20
8.720000000000001
 10
8.15701
 20
8.738670000000001
 10
8.1645
 20
8.74447
 10
8.17079
 20
8.74929
 10
8.19037
 20
8.76286
 10
8.22162
 20
8.78321
 10
8.25413
 20
8.803280000000001
 10
8.27647
 20
8.81657
 10
8.28396
 20
8.82086
 10
8.29411
 20
8.82607
 10
8.322749999999999
 20
8.84538
 10
8.365180000000001
 20
8.882490000000001
 10
8.41596
 20
8.93707
 10
8.46419
 20
8.99447
 10
8.47982
 20
9.01389
 10
8.4961
 20
9.03401
 10
8.546329999999999
 20
9.09347
 10
8.59868
 20
9.14936
 10
8.64404
 20
9.18853
 10
8.67774
 20
9.21143
 10
8.68951
 20
9.21804
 10
8.69749
 20
9.2226
 10
8.72179
 20
9.23579
 10
8.750220000000001
 20
9.25037
 10
8.77192
 20
9.260249999999999
 10
8.78093
 20
9.26389
 10
8.78396
 20
9.26389
 10
8.78928
 20
9.26389
 10
8.80528
 20
9.270289999999999
 10
8.84543
 20
9.288740000000001
 10
8.90272
 20
9.31842
 10
8.957470000000001
 20
9.34825
 10
8.97564
 20
9.35835
 10
8.98335
 20
9.363009999999999
 10
9.00732
 20
9.375870000000001
 10
9.03776
 20
9.38997
 10
9.063470000000001
 20
9.39936
 10
9.07671
 20
9.40278
 10
9.08117
 20
9.40278
 10
9.08897
 20
9.40278
 10
9.11242
 20
9.41911
 10
9.141220000000001
 20
9.45904
 10
9.14785
 20
9.47081
 10
9.15522
 20
9.4846
 10
9.18181
 20
9.5236
 10
9.223850000000001
 20
9.57189
 10
9.271649999999999
 20
9.613440000000001
 10
9.30946
 20
9.63889
 10
9.32286
 20
9.64583
 10
9.328720000000001
 20
9.64899
 10
9.35824
 20
9.67535
 10
9.38222
 20
9.70871
 10
9.38536
 20
9.71528
 10
9.38813
 20
9.72222
 10
9.40653
 20
9.75244
 10
9.42632
 20
9.77018
 10
9.429790000000001
 20
9.77083
 10
9.433260000000001
 20
9.77192
 10
9.44933
 20
9.77881
 10
9.48394
 20
9.794969999999999
 10
9.528969999999999
 20
9.817170000000001
 10
9.567170000000001
 20
9.83649
 10
9.57981
 20
9.84304
 10
9.59614
 20
9.851570000000001
 10
9.64589
 20
9.87565
 10
9.69819
 20
9.89621
 10
9.745760000000001
 20
9.90793
 10
9.78478
 20
9.91297
 10
9.79785
 20
9.9139
 10
9.809850000000001
 20
9.914759999999999
 10
9.845969999999999
 20
9.916180000000001
 10
9.87907
 20
9.914440000000001
 10
9.90175
 20
9.90826
 10
9.914870000000001
 20
9.90056
 10
9.91868
 20
9.89725
 10
9.92215
 20
9.89415
 10
9.93343
 20
9.88564
 10
9.94228
 20
9.8865
 10
9.94797
 20
9.90349
 10
9.952209999999999
 20
9.931100000000001
 10
9.9534
 20
9.94026
 10
9.955080000000001
 20
9.9529
 10
9.9649
 20
9.990069999999999
 10
9.98915
 20
10.053
 10
10.0296
 20
10.137
 10
10.0742
 20
10.2219
 10
10.0895
 20
10.25
 10
10.0933
 20
10.2574
 10
10.1038
 20
10.28
 10
10.1183
 20
10.3149
 10
10.1313
 20
10.3504
 10
10.1388
 20
10.374
 10
10.1409
 20
10.3819
 10
10.1432
 20
10.3911
 10
10.1525
 20
10.418
 10
10.1709
 20
10.4639
 10
10.1938
 20
10.514
 10
10.2121
 20
10.5506
 10
10.2187
 20
10.5625
 10
10.225
 20
10.5742
 10
10.2428
 20
10.6097
 10
10.2638
 20
10.6563
 10
10.2796
 20
10.6965
 10
10.2867
 20
10.718
 10
10.2881
 20
10.725
 10
10.2899
 20
10.7337
 10
10.3028
 20
10.766
 10
10.3222
 20
10.7844
 10
10.327
 20
10.7861
 10
10.3336
 20
10.7884
 10
10.3579
 20
10.7819
 10
10.3997
 20
10.7438
 10
10.4612
 20
10.6619
 10
10.5287
 20
10.5605
 10
10.5506
 20
10.5264
 10
10.5634
 20
10.5066
 10
10.6018
 20
10.4473
 10
10.6664
 20
10.3478
 10
10.7394
 20
10.236
 10
10.8152
 20
10.1198
 10
10.8887
 20
10.0074
 10
10.9545
 20
9.9069
 10
11.0075
 20
9.826280000000001
 10
11.0335
 20
9.78674
 10
11.0423
 20
9.7736
 10
11.049
 20
9.76361
 10
11.0702
 20
9.734260000000001
 10
11.0907
 20
9.71599
 10
11.112
 20
9.715439999999999
 10
11.1349
 20
9.72532
 10
11.1423
 20
9.72917
 10
11.1463
 20
9.73122
 10
11.1583
 20
9.73725
 10
11.1692
 20
9.74451
 10
11.1743
 20
9.75375
 10
11.1725
 20
9.767580000000001
 10
11.163
 20
9.788740000000001
 10
11.145
 20
9.819990000000001
 10
11.1176
 20
9.864039999999999
 10
11.0892
 20
9.90875
 10
11.0798
 20
9.92361
 10
11.0731
 20
9.934570000000001
 10
11.0527
 20
9.96724
 10
11.024
 20
10.0132
 10
10.9972
 20
10.056
 10
10.981
 20
10.0818
 10
10.9756
 20
10.0903
 10
10.9705
 20
10.0987
 10
10.9548
 20
10.1239
 10
10.93
 20
10.1633
 10
10.9043
 20
10.2036
 10
10.8869
 20
10.2311
 10
10.8812
 20
10.2403
 10
10.8737
 20
10.2519
 10
10.8516
 20
10.2867
 10
10.8069
 20
10.357
 10
10.7522
 20
10.4429
 10
10.6928
 20
10.5363
 10
10.6338
 20
10.629
 10
10.5806
 20
10.7128
 10
10.5381
 20
10.7795
 10
10.5183
 20
10.8105
 10
10.5117
 20
10.8209
 10
10.5082
 20
10.8267
 10
10.4984
 20
10.8443
 10
10.4937
 20
10.8599
 10
10.4972
 20
10.8726
 10
10.5058
 20
10.884
 10
10.509
 20
10.8875
 10
10.512
 20
10.8909
 10
10.5393
 20
10.9054
 10
10.5742
 20
10.9136
 10
10.5812
 20
10.9139
 10
10.5877
 20
10.9143
 10
10.6188
 20
10.9175
 10
10.6395
 20
10.9216
 10
10.6409
 20
10.9222
 10
10.6423
 20
10.9233
 10
10.6535
 20
10.9268
 10
10.6804
 20
10.9337
 10
10.7178
 20
10.9422
 10
10.7507
 20
10.9492
 10
10.7617
 20
10.9514
 10
10.7735
 20
10.9539
 10
10.8089
 20
10.9623
 10
10.8572
 20
10.9755
 10
10.9008
 20
10.9895
 10
10.9259
 20
10.9989
 10
10.934
 20
11.0028
 10
10.9506
 20
11.0102
 10
11.001
 20
11.0314
 10
11.0583
 20
11.0523
 10
11.105
 20
11.0651
 10
11.1319
 20
11.0694
 10
11.1409
 20
11.0694
 10
11.1498
 20
11.0694
 10
11.1768
 20
11.0804
 10
11.2062
 20
11.1045
 10
11.2117
 20
11.1111
 10
11.2164
 20
11.1168
 10
11.2326
 20
11.1322
 10
11.2636
 20
11.1578
 10
11.3006
 20
11.1848
 10
11.3296
 20
11.2038
 10
11.3395
 20
11.2097
 10
11.3627
 20
11.224
 10
11.4711
 20
11.3157
 10
11.5753
 20
11.4421
 10
11.5965
 20
11.4736
 10
11.6075
 20
11.4902
 10
11.6469
 20
11.5356
 10
11.7147
 20
11.5988
 10
11.7962
 20
11.6602
 10
11.8645
 20
11.7037
 10
11.8881
 20
11.7167
 10
11.9034
 20
11.725
 10
11.9909
 20
11.7884
 10
12.0895
 20
11.8774
 10
12.1103
 20
11.8986
 10
12.1229
 20
11.9112
 10
12.1611
 20
11.9487
 10
12.2043
 20
11.9898
 10
12.2351
 20
12.0176
 10
12.2457
 20
12.0278
 10
12.2492
 20
12.0278
 10
12.2515
 20
12.0278
 10
12.2585
 20
12.0234
 10
12.2742
 20
12.0113
 10
12.2942
 20
11.9932
 10
12.3107
 20
11.9766
 10
12.3159
 20
11.9708
 10
12.3232
 20
11.9633
 10
12.3457
 20
11.9407
 10
12.3696
 20
11.9189
 10
12.3896
 20
11.9052
 10
12.4077
 20
11.8991
 10
12.4259
 20
11.9007
 10
12.4462
 20
11.9093
 10
12.4704
 20
11.925
 10
12.4932
 20
11.9416
 10
12.5007
 20
11.9472
 10
12.5338
 20
11.9723
 10
12.632
 20
12.0493
 10
12.7351
 20
12.1361
 10
12.8235
 20
12.2199
 10
12.8892
 20
12.2889
 10
12.9104
 20
12.3125
 10
12.9258
 20
12.3295
 10
12.9711
 20
12.3815
 10
13.0131
 20
12.4342
 10
13.0385
 20
12.4736
 10
13.048
 20
12.4953
 10
13.0493
 20
12.5028
 10
13.0506
 20
12.5125
 10
13.0484
 20
12.5425
 10
13.0373
 20
12.5839
 10
13.0186
 20
12.6198
 10
13.002
 20
12.6391
 10
12.9951
 20
12.6431
 10
12.9895
 20
12.6462
 10
12.9767
 20
12.6622
 10
12.9799
 20
12.6856
 10
13.0042
 20
12.7124
 10
13.0375
 20
12.7352
 10
13.0493
 20
12.7416
 10
13.0572
 20
12.7462
 10
13.0808
 20
12.7603
 10
13.1143
 20
12.7811
 10
13.1455
 20
12.8017
 10
13.1641
 20
12.8148
 10
13.1701
 20
12.8194
 10
13.1759
 20
12.8237
 10
13.1937
 20
12.8362
 10
13.2225
 20
12.8556
 10
13.2529
 20
12.8749
 10
13.274
 20
12.8877
 10
13.2812
 20
12.8917
 10
13.2865
 20
12.8947
 10
13.3022
 20
12.9045
 10
13.3237
 20
12.9193
 10
13.3445
 20
12.935
 10
13.3631
 20
12.9504
 10
13.3784
 20
12.9643
 10
13.3889
 20
12.9757
 10
13.3936
 20
12.9833
 10
13.3915
 20
12.9861
 10
13.3909
 20
12.9861
 10
13.3887
 20
12.9861
 10
13.3822
 20
12.983
 10
13.364
 20
12.9745
 10
13.3388
 20
12.9621
 10
13.3164
 20
12.951
 10
13.309
 20
12.9472
 10
13.2812
 20
12.933
 10
13.1593
 20
12.888
 10
13.0388
 20
12.8729
 10
13.0117
 20
12.8736
 10
12.988
 20
12.8738
 10
12.917
 20
12.8789
 10
12.8504
 20
12.8939
 10
12.8064
 20
12.9207
 10
12.7843
 20
12.9501
 10
12.7798
 20
12.9611
 10
12.7777
 20
12.9667
 10
12.7567
 20
12.9959
 10
12.7294
 20
13.0195
 10
12.7242
 20
13.0222
 10
12.7186
 20
13.025
 10
12.6902
 20
13.048
 10
12.6673
 20
13.0764
 10
12.6645
 20
13.0819
 10
12.6617
 20
13.0869
 10
12.6511
 20
13.1003
 10
12.6313
 20
13.1205
 10
12.6076
 20
13.1402
 10
12.589
 20
13.1532
 10
12.5826
 20
13.157
 10
12.5633
 20
13.1683
 10
12.5142
 20
13.2171
 10
12.4817
 20
13.2972
 10
12.4843
 20
13.4003
 10
12.5096
 20
13.498
 10
12.5215
 20
13.5292
 10
12.5297
 20
13.5503
 10
12.5533
 20
13.6143
 10
12.5733
 20
13.6764
 10
12.5838
 20
13.723
 10
12.5867
 20
13.7516
 10
12.5867
 20
13.7611
 10
12.5867
 20
13.7701
 10
12.5923
 20
13.7968
 10
12.6086
 20
13.8403
 10
12.6348
 20
13.89
 10
12.6607
 20
13.9312
 10
12.6701
 20
13.9444
 10
12.6736
 20
13.9493
 10
12.694
 20
13.9881
 10
12.7131
 20
14.0344
 10
12.7159
 20
14.0431
 10
12.719
 20
14.0521
 10
12.73
 20
14.0787
 10
12.7516
 20
14.1272
 10
12.778
 20
14.1824
 10
12.7989
 20
14.2239
 10
12.8062
 20
14.2375
 10
12.8132
 20
14.251
 10
12.8334
 20
14.2915
 10
12.857
 20
14.3417
 10
12.8747
 20
14.3825
 10
12.8825
 20
14.4028
 10
12.884
 20
14.4083
 10
12.8851
 20
14.4135
 10
12.8882
 20
14.4289
 10
12.8878
 20
14.4396
 10
12.8816
 20
14.4419
 10
12.8718
 20
14.4389
 10
12.8687
 20
14.4375
 10
12.8415
 20
14.4258
 10
12.7565
 20
14.3989
 10
12.6733
 20
14.3942
 10
12.6118
 20
14.4243
 10
12.5736
 20
14.4724
 10
12.5645
 20
14.4903
 10
12.5617
 20
14.496
 10
12.5516
 20
14.5122
 10
12.5333
 20
14.5382
 10
12.5118
 20
14.5653
 10
12.4953
 20
14.5843
 10
12.4895
 20
14.5903
 10
12.4707
 20
14.6107
 10
12.423
 20
14.68
 10
12.3701
 20
14.7835
 10
12.3379
 20
14.8842
 10
12.3303
 20
14.946
 10
12.334
 20
14.9653
 10
12.3348
 20
14.9707
 10
12.3337
 20
14.9878
 10
12.3264
 20
15.0178
 10
12.3122
 20
15.0556
 10
12.2966
 20
15.0901
 10
12.2909
 20
15.1014
 10
12.2854
 20
15.1131
 10
12.2688
 20
15.1481
 10
12.244
 20
15.2004
 10
12.2198
 20
15.2522
 10
12.2043
 20
15.286
 10
12.1992
 20
15.2972
 10
12.1891
 20
15.3192
 10
12.1518
 20
15.3818
 10
12.0907
 20
15.4653
 10
12.0252
 20
15.5362
 10
11.981
 20
15.574
 10
11.9645
 20
15.5833
 10
11.9468
 20
15.5935
 10
11.9015
 20
15.6376
 10
11.8261
 20
15.731
 10
11.7463
 20
15.8529
 10
11.6877
 20
15.9574
 10
11.6701
 20
15.9931
 10
11.5881
 20
16.1597
 10
11.5715
 20
16.1153
 10
11.5696
 20
16.1097
 10
11.5611
 20
16.0942
 10
11.5442
 20
16.07
 10
11.5228
 20
16.0456
 10
11.5054
 20
16.0287
 10
11.4992
 20
16.0236
 10
11.4901
 20
16.0161
 10
11.4631
 20
15.9931
 10
11.4259
 20
15.9597
 10
11.3893
 20
15.9256
 10
11.3553
 20
15.8924
 10
11.3256
 20
15.8621
 10
11.3021
 20
15.8365
 10
11.2867
 20
15.8175
 10
11.2812
 20
15.8096
 10
11.2812
 20
15.8069
 10
11.2812
 20
15.8043
 10
11.2734
 20
15.796
 10
11.2522
 20
15.7772
 10
11.2208
 20
15.7536
 10
11.1923
 20
15.734
 10
11.1826
 20
15.7278
 10
11.1701
 20
15.7194
 10
11.134
 20
15.6928
 10
11.0947
 20
15.6589
 10
11.0622
 20
15.6238
 10
11.0405
 20
15.5949
 10
11.034
 20
15.5847
 10
11.0198
 20
15.5626
 10
10.9737
 20
15.4982
 10
10.8992
 20
15.4032
 10
10.8133
 20
15.3035
 10
10.7428
 20
15.2275
 10
10.7187
 20
15.2028
 10
10.7067
 20
15.1906
 10
10.6712
 20
15.1533
 10
10.624
 20
15.1026
 10
10.5829
 20
15.0569
 10
10.5605
 20
15.0311
 10
10.5534
 20
15.0222
 10
10.5471
 20
15.0146
 10
10.5269
 20
14.9926
 10
10.4959
 20
14.9624
 10
10.4641
 20
14.935
 10
10.4428
 20
14.9186
 10
10.4353
 20
14.9139
 10
10.4264
 20
14.9083
 10
10.399
 20
14.8931
 10
10.3679
 20
14.8812
 10
10.3338
 20
14.8768
 10
10.2995
 20
14.8771
 10
10.2881
 20
14.8778
 10
10.2773
 20
14.8782
 10
10.2447
 20
14.8782
 10
10.2115
 20
14.8747
 10
10.1844
 20
14.8665
 10
10.165
 20
14.8567
 10
10.159
 20
14.8528
 10
10.152
 20
14.8485
 10
10.1304
 20
14.8369
 10
10.1043
 20
14.8289
 10
10.0782
 20
14.8301
 10
10.0492
 20
14.8425
 10
10.0148
 20
14.8675
 10
9.97222
 20
14.9065
 10
9.91883
 20
14.9612
 10
9.868600000000001
 20
15.0153
 10
9.852
 20
15.0333
 10
9.83301
 20
15.0539
 10
9.77561
 20
15.1151
 10
9.70025
 20
15.1942
 10
9.63476
 20
15.2611
 10
9.59956
 20
15.2962
 10
9.58811
 20
15.3069
 10
9.57536
 20
15.319
 10
9.53922
 20
15.3574
 10
9.50146
 20
15.4078
 10
9.46918
 20
15.4669
 10
9.444279999999999
 20
15.5239
 10
9.43674
 20
15.5431
 10
9.43468
 20
15.5479
 10
9.42563
 20
15.5613
 10
9.40756
 20
15.5771
 10
9.380100000000001
 20
15.5919
 10
9.350809999999999
 20
15.6036
 10
9.34093
 20
15.6069
 10
9.31315
 20
15.6164
 10
9.190860000000001
 20
15.6522
 10
9.07146
 20
15.6778
 10
9.04508
 20
15.6819
 10
9.030110000000001
 20
15.684
 10
8.94439
 20
15.7088
 10
8.844720000000001
 20
15.7514
 10
8.82286
 20
15.7625
 10
8.80306
 20
15.7725
 10
8.743220000000001
 20
15.8012
 10
8.68061
 20
15.8268
 10
8.62147
 20
15.8433
 10
8.56944
 20
15.8531
 10
8.55203
 20
15.8556
 10
8.53054
 20
15.8587
 10
8.46707
 20
15.874
 10
8.40408
 20
15.9056
 10
8.35042
 20
15.959
 10
8.30686
 20
16.0215
 10
8.29368
 20
16.0431
 10
8.2864
 20
16.0553
 10
8.265940000000001
 20
16.0925
 10
8.24696
 20
16.1335
 10
8.23606
 20
16.1686
 10
8.23258
 20
16.1922
 10
8.23258
 20
16.2
 10
8.23221
 20
16.209
 10
8.22125
 20
16.2579
 10
8.198510000000001
 20
16.3074
 10
8.19228
 20
16.3167
 10
8.1875
 20
16.3244
 10
8.17557
 20
16.3489
 10
8.15967
 20
16.389
 10
8.14578
 20
16.4337
 10
8.13747
 20
16.4678
 10
8.13536
 20
16.4792
 10
8.13325
 20
16.49
 10
8.126139999999999
 20
16.5225
 10
8.11604
 20
16.5637
 10
8.10622
 20
16.5985
 10
8.10026
 20
16.6167
 10
8.09788
 20
16.6222
 10
8.07981
 20
16.6639
 10
8.04508
 20
16.5944
  0
LWPOLYLINE
  5
50
100
AcDbEntity
  8
0
  6
ByLayer
 62
    0
370
   -1
100
AcDbPolyline
 90
  635
 70
    1
 43
0
 10
2.67703
 20
11.3625
 10
2.66715
 20
11.3602
 10
2.63846
 20
11.3491
 10
2.59799
 20
11.3282
 10
2.56196
 20
11.3035
 10
2.54199
 20
11.2861
 10
2.53674
 20
11.2792
 10
2.53461
 20
11.2764
 10
2.52501
 20
11.2705
 10
2.50439
 20
11.27
 10
2.46875
 20
11.2786
 10
2.42589
 20
11.2924
 10
2.41174
 20
11.2972
 10
2.30063
 20
11.3333
 10
2.23813
 20
11.2764
 10
2.2214
 20
11.2611
 10
2.13129
 20
11.1905
 10
2.03358
 20
11.1288
 10
2.01313
 20
11.1181
 10
2.00592
 20
11.1144
 10
1.98568
 20
11.1007
 10
1.96224
 20
11.0781
 10
1.94065
 20
11.0477
 10
1.92372
 20
11.0174
 10
1.91868
 20
11.0069
 10
1.90593
 20
10.9815
 10
1.85553
 20
10.9112
 10
1.76796
 20
10.8153
 10
1.6741
 20
10.737
 10
1.61399
 20
10.7003
 10
1.59229
 20
10.6944
 10
1.57319
 20
10.6889
 10
1.45703
 20
10.6757
 10
1.32769
 20
10.682
 10
1.30203
 20
10.6861
 10
1.29281
 20
10.6877
 10
1.26497
 20
10.691
 10
1.23622
 20
10.6905
 10
1.21077
 20
10.684
 10
1.19043
 20
10.6745
 10
1.18397
 20
10.6708
 10
1.17692
 20
10.6669
 10
1.15733
 20
10.6524
 10
1.13656
 20
10.6273
 10
1.11654
 20
10.5878
 10
1.09804
 20
10.5418
 10
1.09228
 20
10.5264
 10
1.088
 20
10.5138
 10
1.07395
 20
10.4763
 10
1.05393
 20
10.4276
 10
1.03467
 20
10.386
 10
1.02317
 20
10.3639
 10
1.01866
 20
10.3569
 10
1.01503
 20
10.3512
 10
1.00277
 20
10.3346
 10
0.982314
 20
10.3103
 10
0.958985
 20
10.2855
 10
0.934463
 20
10.2618
 10
0.910374
 20
10.2407
 10
0.8884
 20
10.2237
 10
0.8702260000000001
 20
10.2125
 10
0.8607320000000001
 20
10.2083
 10
0.857585
 20
10.2083
 10
0.851833
 20
10.2083
 10
0.834636
 20
10.2
 10
0.808594
 20
10.1833
 10
0.803386
 20
10.1791
 10
0.796332
 20
10.1736
 10
0.779514
 20
10.1514
 10
0.768664
 20
10.1183
 10
0.771376
 20
10.0833
 10
0.7825530000000001
 20
10.0573
 10
0.78814
 20
10.05
 10
0.790907
 20
10.0462
 10
0.800782
 20
10.0241
 10
0.80306
 20
10.0042
 10
0.802029
 20
10.0014
 10
0.8006180000000001
 20
9.996639999999999
 10
0.800131
 20
9.981120000000001
 10
0.807889
 20
9.96289
 10
0.826606
 20
9.94515
 10
0.849556
 20
9.93061
 10
0.857585
 20
9.92637
 10
0.870768
 20
9.91982
 10
0.921115
 20
9.879350000000001
 10
0.9505749999999999
 20
9.8285
 10
0.953396
 20
9.81668
 10
0.954372
 20
9.812279999999999
 10
0.958712
 20
9.79921
 10
0.967068
 20
9.78256
 10
0.9796010000000001
 20
9.76568
 10
0.997288
 20
9.74761
 10
1.02138
 20
9.727320000000001
 10
1.05279
 20
9.70383
 10
1.09277
 20
9.67606
 10
1.12988
 20
9.651260000000001
 10
1.14231
 20
9.64307
 10
1.1556
 20
9.63433
 10
1.19482
 20
9.60693
 10
1.25027
 20
9.566190000000001
 10
1.30203
 20
9.52572
 10
1.33355
 20
9.499510000000001
 10
1.3437
 20
9.49029
 10
1.35297
 20
9.482150000000001
 10
1.38211
 20
9.458880000000001
 10
1.42507
 20
9.42746
 10
1.46729
 20
9.39968
 10
1.49414
 20
9.383850000000001
 10
1.50342
 20
9.37918
 10
1.54454
 20
9.359690000000001
 10
1.66758
 20
9.30007
 10
1.79969
 20
9.23296
 10
1.90283
 20
9.17572
 10
1.98014
 20
9.12608
 10
2.03461
 20
9.081759999999999
 10
2.06939
 20
9.04053
 10
2.08757
 20
9.000170000000001
 10
2.0925
 20
8.96875
 10
2.09229
 20
8.95833
 10
2.0919
 20
8.95074
 10
2.08188
 20
8.90836
 10
2.06347
 20
8.86876
 10
2.05897
 20
8.86253
 10
2.05507
 20
8.85693
 10
2.04449
 20
8.839460000000001
 10
2.03792
 20
8.822749999999999
 10
2.03842
 20
8.81
 10
2.04303
 20
8.801170000000001
 10
2.04508
 20
8.79861
 10
2.04753
 20
8.79574
 10
2.05225
 20
8.78472
 10
2.05268
 20
8.765459999999999
 10
2.04585
 20
8.73714
 10
2.0351
 20
8.706110000000001
 10
2.03119
 20
8.69586
 10
2.02692
 20
8.684189999999999
 10
2.01557
 20
8.6486
 10
2.00771
 20
8.607150000000001
 10
2.00635
 20
8.55974
 10
2.00906
 20
8.51079
 10
2.01036
 20
8.49447
 10
2.01183
 20
8.47846
 10
2.01508
 20
8.43018
 10
2.01417
 20
8.388400000000001
 10
2.0064
 20
8.35835
 10
1.99517
 20
8.336209999999999
 10
1.99089
 20
8.32915
 10
1.98714
 20
8.32329
 10
1.97418
 20
8.30681
 10
1.95096
 20
8.281470000000001
 10
1.9241
 20
8.256349999999999
 10
1.90365
 20
8.23969
 10
1.89649
 20
8.234690000000001
 10
1.87218
 20
8.21701
 10
1.77354
 20
8.12782
 10
1.69433
 20
8.02468
 10
1.67979
 20
8
 10
1.67057
 20
7.98432
 10
1.64567
 20
7.9356
 10
1.63624
 20
7.88146
 10
1.65306
 20
7.81196
 10
1.68619
 20
7.72885
 10
1.69786
 20
7.70139
 10
1.71306
 20
7.66536
 10
1.75022
 20
7.5535
 10
1.77214
 20
7.42622
 10
1.76383
 20
7.31332
 10
1.73828
 20
7.23296
 10
1.72564
 20
7.20833
 10
1.71869
 20
7.19444
 10
1.70638
 20
7.14849
 10
1.69694
 20
7.06999
 10
1.69769
 20
6.98079
 10
1.70481
 20
6.91162
 10
1.70899
 20
6.88889
 10
1.71104
 20
6.87744
 10
1.71294
 20
6.81928
 10
1.70301
 20
6.75211
 10
1.69922
 20
6.73611
 10
1.69607
 20
6.7219
 10
1.685
 20
6.63146
 10
1.68083
 20
6.52501
 10
1.68121
 20
6.50276
 10
1.68164
 20
6.48426
 10
1.68175
 20
6.4286
 10
1.67854
 20
6.37711
 10
1.67042
 20
6.33914
 10
1.66032
 20
6.31364
 10
1.65619
 20
6.30556
 10
1.65235
 20
6.29829
 10
1.63286
 20
6.26563
 10
1.61763
 20
6.2455
 10
1.61589
 20
6.24447
 10
1.61415
 20
6.24343
 10
1.60856
 20
6.23508
 10
1.59799
 20
6.21528
 10
1.58561
 20
6.18821
 10
1.5759
 20
6.16482
 10
1.57286
 20
6.15696
 10
1.5695
 20
6.14865
 10
1.55881
 20
6.12397
 10
1.54486
 20
6.09381
 10
1.53276
 20
6.06988
 10
1.52632
 20
6.05838
 10
1.52425
 20
6.05556
 10
1.51796
 20
6.04785
 10
1.50412
 20
6.02056
 10
1.49035
 20
5.97521
 10
1.48415
 20
5.92492
 10
1.48486
 20
5.88732
 10
1.48676
 20
5.875
 10
1.49647
 20
5.8125
 10
1.58117
 20
5.93056
 10
1.58979
 20
5.94293
 10
1.61719
 20
5.979
 10
1.65369
 20
6.02328
 10
1.68664
 20
6.05871
 10
1.70514
 20
6.07607
 10
1.71175
 20
6.08057
 10
1.71696
 20
6.0841
 10
1.73139
 20
6.09651
 10
1.75114
 20
6.11757
 10
1.76856
 20
6.14094
 10
1.7786
 20
6.15793
 10
1.78119
 20
6.1639
 10
1.78694
 20
6.17643
 10
1.81386
 20
6.20969
 10
1.86778
 20
6.26025
 10
1.93289
 20
6.30746
 10
1.98199
 20
6.33572
 10
1.99924
 20
6.34304
 10
2.00657
 20
6.34603
 10
2.02929
 20
6.35319
 10
2.05963
 20
6.35628
 10
2.10038
 20
6.35206
 10
2.14643
 20
6.34347
 10
2.16174
 20
6.34028
 10
2.18083
 20
6.33681
 10
2.28831
 20
6.32503
 10
2.41314
 20
6.32156
 10
2.44092
 20
6.32221
 10
2.46485
 20
6.32292
 10
2.58794
 20
6.31999
 10
2.69092
 20
6.31076
 10
2.70481
 20
6.30832
 10
2.71582
 20
6.30632
 10
2.74908
 20
6.30094
 10
2.79872
 20
6.29378
 10
2.84754
 20
6.28765
 10
2.87901
 20
6.28424
 10
2.88954
 20
6.28331
 10
2.90207
 20
6.28233
 10
2.93978
 20
6.28006
 10
2.97108
 20
6.28315
 10
2.99457
 20
6.29644
 10
3.01503
 20
6.31657
 10
3.02149
 20
6.32362
 10
3.03244
 20
6.33513
 10
3.06754
 20
6.36762
 10
3.11535
 20
6.4056
 10
3.16032
 20
6.43419
 10
3.1881
 20
6.44749
 10
3.19786
 20
6.44997
 10
3.21181
 20
6.4541
 10
3.25276
 20
6.46957
 10
3.33447
 20
6.50435
 10
3.44607
 20
6.5561
 10
3.55479
 20
6.60861
 10
3.59093
 20
6.62642
 10
3.60476
 20
6.63325
 10
3.64681
 20
6.65289
 10
3.69646
 20
6.67453
 10
3.73465
 20
6.68913
 10
3.75076
 20
6.69444
 10
3.75618
 20
6.69444
 10
3.75971
 20
6.69444
 10
3.7704
 20
6.69081
 10
3.78863
 20
6.68078
 10
3.80871
 20
6.66575
 10
3.82374
 20
6.65213
 10
3.8284
 20
6.64725
 10
3.83464
 20
6.64068
 10
3.87614
 20
6.60889
 10
3.92253
 20
6.58475
 10
3.93121
 20
6.58192
 10
3.94911
 20
6.57682
 10
3.99908
 20
6.54764
 10
4.05686
 20
6.48665
 10
4.10422
 20
6.39936
 10
4.13374
 20
6.31494
 10
4.1409
 20
6.28614
 10
4.14274
 20
6.27806
 10
4.15012
 20
6.25418
 10
4.16396
 20
6.21582
 10
4.18012
 20
6.17617
 10
4.19217
 20
6.14919
 10
4.19646
 20
6.14031
 10
4.20719
 20
6.11914
 10
4.26101
 20
5.97504
 10
4.31207
 20
5.78928
 10
4.32146
 20
5.74724
 10
4.32449
 20
5.73356
 10
4.33556
 20
5.69287
 10
4.35232
 20
5.64763
 10
4.37375
 20
5.60704
 10
4.39447
 20
5.57639
 10
4.40201
 20
5.56668
 10
4.40782
 20
5.55897
 10
4.4241
 20
5.53478
 10
4.44331
 20
5.50196
 10
4.45785
 20
5.47194
 10
4.46457
 20
5.45464
 10
4.46593
 20
5.44862
 10
4.46696
 20
5.44276
 10
4.47407
 20
5.42176
 10
4.49056
 20
5.38026
 10
4.51275
 20
5.32986
 10
4.53163
 20
5.28965
 10
4.53814
 20
5.27636
 10
4.54454
 20
5.26329
 10
4.56256
 20
5.22319
 10
4.58242
 20
5.17367
 10
4.59576
 20
5.13346
 10
4.60064
 20
5.11464
 10
4.60064
 20
5.10835
 10
4.60064
 20
5.10536
 10
4.60092
 20
5.09625
 10
4.60243
 20
5.08822
 10
4.60618
 20
5.0849
 10
4.61312
 20
5.08686
 10
4.62418
 20
5.09446
 10
4.64046
 20
5.10835
 10
4.66282
 20
5.12901
 10
4.6849
 20
5.14996
 10
4.69228
 20
5.15696
 10
4.71528
 20
5.17888
 10
4.78911
 20
5.23958
 10
4.89953
 20
5.31982
 10
5.00319
 20
5.38396
 10
5.06104
 20
5.41325
 10
5.07981
 20
5.41808
 10
5.10829
 20
5.42551
 10
5.19271
 20
5.45236
 10
5.2831
 20
5.49636
 10
5.37528
 20
5.56515
 10
5.46468
 20
5.64594
 10
5.49371
 20
5.67361
 10
5.5089
 20
5.68864
 10
5.55365
 20
5.73454
 10
5.59543
 20
5.78147
 10
5.62104
 20
5.81722
 10
5.63103
 20
5.8374
 10
5.6326
 20
5.84446
 10
5.63536
 20
5.85872
 10
5.66249
 20
5.89996
 10
5.72407
 20
5.96962
 10
5.79992
 20
6.03646
 10
5.8534
 20
6.07411
 10
5.87283
 20
6.08333
 10
5.88032
 20
6.08669
 10
5.90246
 20
6.0976
 10
5.93272
 20
6.11388
 10
5.96013
 20
6.13021
 10
5.97607
 20
6.14063
 10
5.98118
 20
6.14442
 10
5.98703
 20
6.14899
 10
6.01882
 20
6.16982
 10
6.04579
 20
6.18371
 10
6.04926
 20
6.18474
 10
6.05729
 20
6.1875
 10
6.08524
 20
6.18474
 10
6.13222
 20
6.16911
 10
6.17969
 20
6.14253
 10
6.20931
 20
6.11914
 10
6.21729
 20
6.10969
 10
6.22211
 20
6.10417
 10
6.24468
 20
6.08128
 10
6.25743
 20
6.06944
 10
6.26172
 20
6.06944
 10
6.26243
 20
6.06944
 10
6.2646
 20
6.08068
 10
6.26519
 20
6.11133
 10
6.26367
 20
6.15679
 10
6.26129
 20
6.19862
 10
6.26036
 20
6.21251
 10
6.25928
 20
6.22775
 10
6.25646
 20
6.27354
 10
6.25358
 20
6.33507
 10
6.25196
 20
6.38986
 10
6.25168
 20
6.42042
 10
6.25201
 20
6.43056
 10
6.25228
 20
6.43967
 10
6.25157
 20
6.46696
 10
6.24869
 20
6.50993
 10
6.24397
 20
6.55419
 10
6.23981
 20
6.58447
 10
6.23812
 20
6.59446
 10
6.23579
 20
6.60568
 10
6.23025
 20
6.63965
 10
6.22749
 20
6.6766
 10
6.22971
 20
6.71067
 10
6.2346
 20
6.73822
 10
6.23676
 20
6.74724
 10
6.23915
 20
6.75613
 10
6.24414
 20
6.78342
 10
6.25131
 20
6.83333
 10
6.25743
 20
6.89063
 10
6.2609
 20
6.93414
 10
6.26172
 20
6.94862
 10
6.26346
 20
6.9821
 10
6.27658
 20
7.08197
 10
6.30772
 20
7.17068
 10
6.35997
 20
7.22265
 10
6.41818
 20
7.24338
 10
6.43815
 20
7.24582
 10
6.44613
 20
7.2469
 10
6.48742
 20
7.25819
 10
6.5204
 20
7.27431
 10
6.52425
 20
7.27778
 10
6.52806
 20
7.28093
 10
6.55132
 20
7.29704
 10
6.57454
 20
7.30974
 10
6.5784
 20
7.31108
 10
6.58311
 20
7.31282
 10
6.59472
 20
7.32547
 10
6.59663
 20
7.36149
 10
6.58208
 20
7.43338
 10
6.55778
 20
7.52513
 10
6.54926
 20
7.55556
 10
6.5409
 20
7.58513
 10
6.51161
 20
7.67264
 10
6.46903
 20
7.77658
 10
6.42383
 20
7.86203
 10
6.39139
 20
7.90978
 10
6.37842
 20
7.92361
 10
6.36794
 20
7.9349
 10
6.34044
 20
7.97239
 10
6.31119
 20
8.026260000000001
 10
6.29264
 20
8.080830000000001
 10
6.28646
 20
8.119249999999999
 10
6.28674
 20
8.13194
 10
6.28689
 20
8.13954
 10
6.28851
 20
8.162330000000001
 10
6.294
 20
8.179040000000001
 10
6.30626
 20
8.18608
 10
6.32286
 20
8.1875
 10
6.3284
 20
8.1875
 10
6.33421
 20
8.187720000000001
 10
6.35157
 20
8.19021
 10
6.36604
 20
8.200530000000001
 10
6.37663
 20
8.225210000000001
 10
6.38547
 20
8.25939
 10
6.38813
 20
8.27083
 10
6.39133
 20
8.28472
 10
6.39822
 20
8.3271
 10
6.40115
 20
8.387370000000001
 10
6.39649
 20
8.464029999999999
 10
6.38747
 20
8.54318
 10
6.38396
 20
8.56944
 10
6.38254
 20
8.57986
 10
6.36486
 20
8.63336
 10
6.33187
 20
8.68961
 10
6.32286
 20
8.70139
 10
6.30724
 20
8.722390000000001
 10
6.26204
 20
8.78646
 10
6.22108
 20
8.85454
 10
6.19314
 20
8.919
 10
6.17611
 20
8.97439
 10
6.17144
 20
8.99306
 10
6.16525
 20
9.01938
 10
6.14475
 20
9.097759999999999
 10
6.11919
 20
9.17313
 10
6.08925
 20
9.23312
 10
6.05985
 20
9.2775
 10
6.04926
 20
9.29167
 10
6.04329
 20
9.29975
 10
6.02642
 20
9.32465
 10
6.00532
 20
9.35835
 10
5.98807
 20
9.38894
 10
5.97933
 20
9.406470000000001
 10
5.977
 20
9.41249
 10
5.97483
 20
9.41769
 10
5.96588
 20
9.432119999999999
 10
5.94868
 20
9.453670000000001
 10
5.92757
 20
9.47444
 10
5.91075
 20
9.48785
 10
5.90479
 20
9.49164
 10
5.89828
 20
9.496309999999999
 10
5.87939
 20
9.510960000000001
 10
5.84956
 20
9.53543
 10
5.81922
 20
9.562010000000001
 10
5.79883
 20
9.581
 10
5.79232
 20
9.58751
 10
5.7845
 20
9.595319999999999
 10
5.7596
 20
9.617240000000001
 10
5.71539
 20
9.653320000000001
 10
5.66515
 20
9.69125
 10
5.62733
 20
9.717930000000001
 10
5.61453
 20
9.7264
 10
5.60042
 20
9.73579
 10
5.55821
 20
9.763999999999999
 10
5.51606
 20
9.79238
 10
5.48628
 20
9.81321
 10
5.46674
 20
9.82813
 10
5.45568
 20
9.838760000000001
 10
5.45101
 20
9.84674
 10
5.4509
 20
9.853630000000001
 10
5.45269
 20
9.859260000000001
 10
5.4534
 20
9.86111
 10
5.45475
 20
9.86393
 10
5.4751
 20
9.88579
 10
5.50722
 20
9.91183
 10
5.51454
 20
9.91667
 10
5.52149
 20
9.92122
 10
5.5631
 20
9.949870000000001
 10
5.602
 20
9.97781
 10
5.60758
 20
9.98193
 10
5.61344
 20
9.98611
 10
5.63986
 20
10.0052
 10
5.69629
 20
10.0462
 10
5.7691
 20
10.0992
 10
5.83024
 20
10.1436
 10
5.85064
 20
10.1583
 10
5.87185
 20
10.1737
 10
5.93554
 20
10.22
 10
6.01747
 20
10.2795
 10
6.08713
 20
10.3302
 10
6.12386
 20
10.357
 10
6.13536
 20
10.3653
 10
6.14529
 20
10.3725
 10
6.17503
 20
10.3943
 10
6.22146
 20
10.4281
 10
6.26893
 20
10.4626
 10
6.301
 20
10.4855
 10
6.31174
 20
10.4931
 10
6.40479
 20
10.5611
 10
6.37565
 20
10.6
 10
6.34788
 20
10.6389
 10
6.20063
 20
10.5375
 10
6.15858
 20
10.5087
 10
5.92524
 20
10.3465
 10
5.66553
 20
10.165
 10
5.61035
 20
10.1264
 10
5.5919
 20
10.1136
 10
5.53651
 20
10.0749
 10
5.47993
 20
10.0359
 10
5.43788
 20
10.008
 10
5.40771
 20
9.98958
 10
5.38672
 20
9.979329999999999
 10
5.37224
 20
9.97564
 10
5.36154
 20
9.977
 10
5.35422
 20
9.98053
 10
5.352
 20
9.98193
 10
5.34885
 20
9.984059999999999
 10
5.33621
 20
10.003
 10
5.32981
 20
10.0258
 10
5.32981
 20
10.0333
 10
5.32981
 20
10.0398
 10
5.32096
 20
10.0592
 10
5.29665
 20
10.0998
 10
5.26025
 20
10.151
 10
5.215
 20
10.2087
 10
5.16422
 20
10.2689
 10
5.11122
 20
10.3275
 10
5.05925
 20
10.3804
 10
5.02399
 20
10.4134
 10
5.01172
 20
10.4236
 10
5.00028
 20
10.4334
 10
4.963
 20
10.467
 10
4.89193
 20
10.5328
 10
4.80778
 20
10.6125
 10
4.74186
 20
10.6759
 10
4.72006
 20
10.6972
 10
4.69536
 20
10.7212
 10
4.62093
 20
10.7925
 10
4.53847
 20
10.8689
 10
4.46864
 20
10.9294
 10
4.40722
 20
10.9769
 10
4.3501
 20
11.0145
 10
4.29313
 20
11.0451
 10
4.23215
 20
11.0717
 10
4.1805
 20
11.0912
 10
4.16314
 20
11.0972
 10
4.15067
 20
11.1019
 10
4.11344
 20
11.1162
 10
4.06799
 20
11.1344
 10
4.03185
 20
11.15
 10
4.01449
 20
11.1584
 10
4.01036
 20
11.1611
 10
4.00304
 20
11.166
 10
3.95643
 20
11.1854
 10
3.86447
 20
11.2198
 10
3.7736
 20
11.2506
 10
3.73551
 20
11.2639
 10
3.72287
 20
11.2639
 10
3.71951
 20
11.2639
 10
3.70947
 20
11.2514
 10
3.69715
 20
11.2278
 10
3.6951
 20
11.2222
 10
3.69299
 20
11.216
 10
3.67632
 20
11.1899
 10
3.65408
 20
11.1736
 10
3.64925
 20
11.1722
 10
3.63396
 20
11.1684
 10
3.58024
 20
11.1697
 10
3.47683
 20
11.1828
 10
3.35644
 20
11.2088
 10
3.26617
 20
11.2342
 10
3.23676
 20
11.2445
 10
3.2264
 20
11.2481
 10
3.19526
 20
11.2586
 10
3.15701
 20
11.2709
 10
3.12636
 20
11.28
 10
3.11139
 20
11.2841
 10
3.10758
 20
11.2847
 10
3.10374
 20
11.2851
 10
3.08897
 20
11.2882
 10
3.05914
 20
11.2955
 10
3.02219
 20
11.3054
 10
2.99246
 20
11.3139
 10
2.98258
 20
11.3167
 10
2.97185
 20
11.3197
 10
2.93961
 20
11.3282
 10
2.8954
 20
11.3391
 10
2.85482
 20
11.3481
 10
2.83083
 20
11.3529
 10
2.82286
 20
11.3542
 10
2.81418
 20
11.3556
 10
2.77229
 20
11.3622
 10
2.74229
 20
11.3674
 10
2.73953
 20
11.3681
 10
2.73671
 20
11.3684
 10
2.7124
 20
11.3679
 10
2.68257
 20
11.3639
 10
2.67703
 20
11.3625
  0
LWPOLYLINE
  5
51
100
AcDbEntity
  8
0
  6
ByLayer
 62
    0
370
   -1
100
AcDbPolyline
 90
  549
 70
    1
 43
0
 10
14.7061
 20
11.1833
 10
14.7024
 20
11.1771
 10
14.6874
 20
11.1268
 10
14.66
 20
11.02
 10
14.6331
 20
10.9003
 10
14.619
 20
10.8288
 10
14.6158
 20
10.8056
 10
14.6142
 20
10.7937
 10
14.6087
 20
10.7582
 10
14.6006
 20
10.7057
 10
14.5925
 20
10.6546
 10
14.5871
 20
10.622
 10
14.5853
 20
10.6111
 10
14.5832
 20
10.5986
 10
14.5789
 20
10.5428
 10
14.5728
 20
10.4238
 10
14.5678
 20
10.2707
 10
14.565
 20
10.1427
 10
14.5644
 20
10.1
 10
14.5642
 20
10.0697
 10
14.5629
 20
9.97885
 10
14.5611
 20
9.882
 10
14.559
 20
9.80653
 10
14.5563
 20
9.749510000000001
 10
14.5529
 20
9.7079
 10
14.5486
 20
9.67876
 10
14.5433
 20
9.65907
 10
14.5388
 20
9.648870000000001
 10
14.5367
 20
9.64583
 10
14.5322
 20
9.639060000000001
 10
14.5168
 20
9.619960000000001
 10
14.5004
 20
9.613759999999999
 10
14.4837
 20
9.6281
 10
14.4678
 20
9.65474
 10
14.4631
 20
9.6639
 10
14.4593
 20
9.67122
 10
14.4378
 20
9.7066
 10
14.4176
 20
9.73232
 10
14.4144
 20
9.734690000000001
 10
14.4117
 20
9.73714
 10
14.3993
 20
9.752649999999999
 10
14.3726
 20
9.78842
 10
14.3385
 20
9.836919999999999
 10
14.3099
 20
9.878959999999999
 10
14.3006
 20
9.89307
 10
14.2899
 20
9.90896
 10
14.256
 20
9.95557
 10
14.2054
 20
10.0212
 10
14.1549
 20
10.0821
 10
14.1219
 20
10.1189
 10
14.1104
 20
10.1305
 10
14.0146
 20
10.225
 10
13.9507
 20
10.2167
 10
13.9419
 20
10.2157
 10
13.8921
 20
10.2057
 10
13.8472
 20
10.1938
 10
13.8409
 20
10.1917
 10
13.8354
 20
10.1897
 10
13.8185
 20
10.1851
 10
13.7974
 20
10.1837
 10
13.7762
 20
10.188
 10
13.7539
 20
10.1992
 10
13.7292
 20
10.2178
 10
13.7008
 20
10.2446
 10
13.6676
 20
10.2806
 10
13.6381
 20
10.3148
 10
13.6284
 20
10.3264
 10
13.617
 20
10.3397
 10
13.5812
 20
10.3783
 10
13.5343
 20
10.4226
 10
13.4858
 20
10.4612
 10
13.4472
 20
10.4877
 10
13.434
 20
10.4958
 10
13.422
 20
10.5032
 10
13.3866
 20
10.5261
 10
13.3345
 20
10.5618
 10
13.2841
 20
10.5986
 10
13.2524
 20
10.6233
 10
13.2423
 20
10.6319
 10
13.2103
 20
10.6584
 10
13.057
 20
10.7535
 10
12.9017
 20
10.8042
 10
12.8687
 20
10.8083
 10
12.857
 20
10.8099
 10
12.8219
 20
10.8155
 10
12.7749
 20
10.824
 10
12.7331
 20
10.833
 10
12.7096
 20
10.8391
 10
12.702
 20
10.8417
 10
12.6423
 20
10.8597
 10
12.6423
 20
10.818
 10
12.6423
 20
10.8117
 10
12.6381
 20
10.7926
 10
12.6268
 20
10.7549
 10
12.6101
 20
10.7098
 10
12.5949
 20
10.6742
 10
12.5895
 20
10.6625
 10
12.5834
 20
10.6495
 10
12.5658
 20
10.6103
 10
12.5405
 20
10.5523
 10
12.5168
 20
10.4955
 10
12.5023
 20
10.4594
 10
12.4978
 20
10.4472
 10
12.4907
 20
10.4288
 10
12.4656
 20
10.3749
 10
12.427
 20
10.3115
 10
12.3791
 20
10.2527
 10
12.3344
 20
10.2083
 10
12.3187
 20
10.1944
 10
12.3126
 20
10.1892
 10
12.2954
 20
10.1721
 10
12.2713
 20
10.1448
 10
12.2489
 20
10.1159
 10
12.2352
 20
10.0959
 10
12.2312
 20
10.0889
 10
12.227
 20
10.082
 10
12.2132
 20
10.0622
 10
12.1902
 20
10.0327
 10
12.1652
 20
10.0042
 10
12.1472
 20
9.98611
 10
12.1409
 20
9.98058
 10
12.1337
 20
9.9739
 10
12.1112
 20
9.95518
 10
12.0855
 20
9.93994
 10
12.059
 20
9.93257
 10
12.035
 20
9.93056
 10
12.027
 20
9.93056
 10
12.0144
 20
9.93056
 10
11.9765
 20
9.93685
 10
11.9433
 20
9.94863
 10
11.9395
 20
9.95139
 10
11.9337
 20
9.955780000000001
 10
11.9154
 20
9.96744
 10
11.9027
 20
9.969290000000001
 10
11.9004
 20
9.95632
 10
11.9053
 20
9.93479
 10
11.9076
 20
9.92779
 10
11.9092
 20
9.92188
 10
11.9124
 20
9.90354
 10
11.9164
 20
9.871040000000001
 10
11.9191
 20
9.83464
 10
11.9201
 20
9.80761
 10
11.9201
 20
9.79861
 10
11.9201
 20
9.791130000000001
 10
11.9199
 20
9.76867
 10
11.918
 20
9.74274
 10
11.9124
 20
9.71556
 10
11.9008
 20
9.68164
 10
11.8812
 20
9.63564
 10
11.8515
 20
9.57206
 10
11.8096
 20
9.48563
 10
11.7675
 20
9.39953
 10
11.7534
 20
9.37082
 10
11.7394
 20
9.34267
 10
11.6985
 20
9.257429999999999
 10
11.6664
 20
9.180389999999999
 10
11.6496
 20
9.11871
 10
11.6425
 20
9.06831
 10
11.6409
 20
9.05137
 10
11.6375
 20
9.016
 10
11.615
 20
8.91103
 10
11.5678
 20
8.767899999999999
 10
11.5079
 20
8.642189999999999
 10
11.4628
 20
8.573029999999999
 10
11.4437
 20
8.55414
 10
11.4377
 20
8.54861
 10
11.4227
 20
8.52886
 10
11.4185
 20
8.50489
 10
11.4318
 20
8.47879
 10
11.4548
 20
8.45454
 10
11.4631
 20
8.44721
 10
11.4686
 20
8.44308
 10
11.4992
 20
8.41146
 10
11.527
 20
8.37571
 10
11.5312
 20
8.36947
 10
11.5375
 20
8.3591
 10
11.5641
 20
8.33231
 10
11.6103
 20
8.303330000000001
 10
11.6659
 20
8.2845
 10
11.7117
 20
8.27778
 10
11.727
 20
8.27778
 10
11.7338
 20
8.27778
 10
11.7544
 20
8.275130000000001
 10
11.7879
 20
8.26774
 10
11.8233
 20
8.25672
 10
11.8481
 20
8.2469
 10
11.8562
 20
8.24306
 10
11.8646
 20
8.238989999999999
 10
11.891
 20
8.22851
 10
11.9319
 20
8.214790000000001
 10
11.9737
 20
8.203440000000001
 10
12.0021
 20
8.197319999999999
 10
12.0117
 20
8.19586
 10
12.0217
 20
8.194279999999999
 10
12.052
 20
8.18924
 10
12.102
 20
8.180389999999999
 10
12.1551
 20
8.170310000000001
 10
12.1924
 20
8.16254
 10
12.2048
 20
8.15972
 10
12.226
 20
8.1556
 10
12.3247
 20
8.143929999999999
 10
12.4395
 20
8.1441
 10
12.4687
 20
8.14583
 10
12.4804
 20
8.14654
 10
12.5157
 20
8.148490000000001
 10
12.5527
 20
8.150069999999999
 10
12.5813
 20
8.15033
 10
12.6032
 20
8.149139999999999
 10
12.6201
 20
8.146380000000001
 10
12.6337
 20
8.14176
 10
12.6456
 20
8.13519
 10
12.6546
 20
8.12875
 10
12.6576
 20
8.12642
 10
12.6628
 20
8.122350000000001
 10
12.677
 20
8.10801
 10
12.6891
 20
8.085290000000001
 10
12.6966
 20
8.050829999999999
 10
12.701
 20
8.01069
 10
12.702
 20
7.99724
 10
12.7043
 20
7.97131
 10
12.712
 20
7.89344
 10
12.7212
 20
7.81581
 10
12.7303
 20
7.76187
 10
12.7364
 20
7.73682
 10
12.7395
 20
7.72917
 10
12.7437
 20
7.71983
 10
12.753
 20
7.68132
 10
12.7666
 20
7.60747
 10
12.777
 20
7.52821
 10
12.7812
 20
7.47999
 10
12.7812
 20
7.46386
 10
12.7812
 20
7.44715
 10
12.79
 20
7.39697
 10
12.8115
 20
7.30143
 10
12.838
 20
7.20688
 10
12.8551
 20
7.15593
 10
12.8618
 20
7.14307
 10
12.8638
 20
7.13926
 10
12.8886
 20
7.11654
 10
12.9239
 20
7.09586
 10
12.9312
 20
7.09304
 10
12.938
 20
7.09022
 10
12.9578
 20
7.07986
 10
12.9786
 20
7.06358
 10
12.9954
 20
7.0415
 10
13.0071
 20
7.01893
 10
13.0104
 20
7.01112
 10
13.0186
 20
6.99274
 10
13.049
 20
6.94006
 10
13.0999
 20
6.86947
 10
13.1592
 20
6.8041
 10
13.2061
 20
6.76133
 10
13.2229
 20
6.74858
 10
13.231
 20
6.74229
 10
13.2555
 20
6.72331
 10
13.2865
 20
6.699
 10
13.3121
 20
6.67833
 10
13.3249
 20
6.66737
 10
13.3284
 20
6.6639
 10
13.3322
 20
6.66043
 10
13.3517
 20
6.64621
 10
13.3644
 20
6.63889
 10
13.3687
 20
6.63889
 10
13.3711
 20
6.63889
 10
13.3784
 20
6.63553
 10
13.3958
 20
6.62642
 10
13.4183
 20
6.61312
 10
13.4374
 20
6.60129
 10
13.4437
 20
6.59722
 10
13.4497
 20
6.59299
 10
13.4687
 20
6.58154
 10
13.4919
 20
6.57036
 10
13.5105
 20
6.56461
 10
13.5195
 20
6.56396
 10
13.5215
 20
6.56526
 10
13.5253
 20
6.56739
 10
13.5364
 20
6.57476
 10
13.5573
 20
6.58996
 10
13.5827
 20
6.60954
 10
13.6112
 20
6.63232
 10
13.6413
 20
6.65707
 10
13.6716
 20
6.68251
 10
13.7006
 20
6.70742
 10
13.7204
 20
6.72478
 10
13.727
 20
6.73058
 10
13.734
 20
6.73703
 10
13.756
 20
6.75537
 10
13.7883
 20
6.78006
 10
13.8198
 20
6.80186
 10
13.8396
 20
6.81435
 10
13.8465
 20
6.81803
 10
13.8536
 20
6.82161
 10
13.874
 20
6.83425
 10
13.8954
 20
6.8526
 10
13.9121
 20
6.87489
 10
13.9228
 20
6.89561
 10
13.9256
 20
6.90278
 10
13.9288
 20
6.91043
 10
13.9414
 20
6.9476
 10
13.9479
 20
6.97021
 10
13.9479
 20
6.97775
 10
13.9479
 20
6.98236
 10
13.9526
 20
6.9961
 10
13.9658
 20
7.01286
 10
13.9849
 20
7.02735
 10
14.0079
 20
7.03857
 10
14.0326
 20
7.04579
 10
14.0568
 20
7.04813
 10
14.0783
 20
7.04471
 10
14.0917
 20
7.03808
 10
14.095
 20
7.03472
 10
14.0985
 20
7.03163
 10
14.1282
 20
7.01964
 10
14.1679
 20
7.01389
 10
14.1812
 20
7.01389
 10
14.1906
 20
7.01389
 10
14.2188
 20
7.0159
 10
14.2488
 20
7.02556
 10
14.281
 20
7.0485
 10
14.3147
 20
7.07958
 10
14.3257
 20
7.09028
 10
14.3346
 20
7.09907
 10
14.3606
 20
7.12646
 10
14.3964
 20
7.16721
 10
14.4292
 20
7.20768
 10
14.4488
 20
7.234
 10
14.4549
 20
7.24306
 10
14.465
 20
7.25906
 10
14.5018
 20
7.303
 10
14.5538
 20
7.34446
 10
14.6083
 20
7.3661
 10
14.6499
 20
7.36919
 10
14.6632
 20
7.36664
 10
14.6699
 20
7.36561
 10
14.6896
 20
7.35981
 10
14.7083
 20
7.34517
 10
14.7254
 20
7.31592
 10
14.7414
 20
7.27806
 10
14.7465
 20
7.26531
 10
14.7535
 20
7.24685
 10
14.7778
 20
7.19271
 10
14.8124
 20
7.13769
 10
14.8574
 20
7.09125
 10
14.9039
 20
7.05539
 10
14.9201
 20
7.04443
 10
14.926
 20
7.04042
 10
14.9437
 20
7.02783
 10
14.9635
 20
7.01221
 10
14.9804
 20
6.99582
 10
14.9961
 20
6.97694
 10
15.0117
 20
6.95383
 10
15.0283
 20
6.92475
 10
15.0474
 20
6.88797
 10
15.0644
 20
6.85331
 10
15.0701
 20
6.84169
 10
15.0893
 20
6.80263
 10
15.1579
 20
6.69065
 10
15.2489
 20
6.59256
 10
15.3497
 20
6.54269
 10
15.4383
 20
6.5331
 10
15.4672
 20
6.53614
 10
15.5575
 20
6.54585
 10
15.566
 20
6.60275
 10
15.5704
 20
6.63124
 10
15.6047
 20
6.75851
 10
15.6558
 20
6.86703
 10
15.6686
 20
6.88612
 10
15.6747
 20
6.89546
 10
15.6924
 20
6.92383
 10
15.7176
 20
6.96669
 10
15.7414
 20
7.00956
 10
15.7558
 20
7.03771
 10
15.7604
 20
7.04719
 10
15.7651
 20
7.05724
 10
15.7817
 20
7.08615
 10
15.8087
 20
7.12625
 10
15.8397
 20
7.16504
 10
15.8642
 20
7.19168
 10
15.8728
 20
7.19997
 10
15.8832
 20
7.20996
 10
15.9129
 20
7.2416
 10
15.9436
 20
7.28353
 10
15.9713
 20
7.33615
 10
15.9947
 20
7.39122
 10
16.0019
 20
7.40972
 10
16.0078
 20
7.42437
 10
16.0246
 20
7.46853
 10
16.0449
 20
7.52604
 10
16.0608
 20
7.57574
 10
16.0683
 20
7.60243
 10
16.0701
 20
7.61111
 10
16.0722
 20
7.61979
 10
16.0782
 20
7.64703
 10
16.0892
 20
7.69814
 10
16.1017
 20
7.75782
 10
16.1114
 20
7.80404
 10
16.1146
 20
7.81944
 10
16.1186
 20
7.83963
 10
16.1433
 20
7.94706
 10
16.1667
 20
8.03717
 10
16.1701
 20
8.04861
 10
16.1964
 20
8.13194
 10
16.1478
 20
8.17637
 10
16.1394
 20
8.1844
 10
16.1178
 20
8.212400000000001
 10
16.1026
 20
8.24761
 10
16.1033
 20
8.27914
 10
16.1144
 20
8.299530000000001
 10
16.12
 20
8.30414
 10
16.1226
 20
8.30658
 10
16.1293
 20
8.31532
 10
16.1317
 20
8.328670000000001
 10
16.1265
 20
8.34853
 10
16.1167
 20
8.371639999999999
 10
16.1131
 20
8.37918
 10
16.1046
 20
8.398059999999999
 10
16.0894
 20
8.459580000000001
 10
16.0907
 20
8.535970000000001
 10
16.1156
 20
8.60167
 10
16.1492
 20
8.641109999999999
 10
16.1632
 20
8.65001
 10
16.1694
 20
8.653969999999999
 10
16.1878
 20
8.667260000000001
 10
16.2025
 20
8.68371
 10
16.2099
 20
8.70275
 10
16.2118
 20
8.72151
 10
16.2118
 20
8.72775
 10
16.2118
 20
8.734059999999999
 10
16.2133
 20
8.75276
 10
16.2193
 20
8.76932
 10
16.2317
 20
8.780329999999999
 10
16.2468
 20
8.78717
 10
16.2519
 20
8.7889
 10
16.2644
 20
8.79346
 10
16.3346
 20
8.862360000000001
 10
16.4131
 20
8.99164
 10
16.4299
 20
9.02636
 10
16.4407
 20
9.04921
 10
16.4769
 20
9.116149999999999
 10
16.5278
 20
9.199490000000001
 10
16.5781
 20
9.269579999999999
 10
16.6106
 20
9.30817
 10
16.6228
 20
9.31944
 10
16.6282
 20
9.32443
 10
16.644
 20
9.33963
 10
16.6518
 20
9.35037
 10
16.6468
 20
9.355420000000001
 10
16.634
 20
9.357810000000001
 10
16.6297
 20
9.35835
 10
16.6257
 20
9.359
 10
16.6128
 20
9.357469999999999
 10
16.5908
 20
9.351240000000001
 10
16.5669
 20
9.3406
 10
16.5492
 20
9.330349999999999
 10
16.5436
 20
9.32639
 10
16.5317
 20
9.318619999999999
 10
16.4922
 20
9.300129999999999
 10
16.4511
 20
9.29411
 10
16.4212
 20
9.30843
 10
16.4057
 20
9.333880000000001
 10
16.4035
 20
9.34304
 10
16.4006
 20
9.354279999999999
 10
16.3819
 20
9.38531
 10
16.3415
 20
9.42779
 10
16.2878
 20
9.466100000000001
 10
16.2417
 20
9.4899
 10
16.2257
 20
9.49582
 10
16.2169
 20
9.49897
 10
16.165
 20
9.52089
 10
16.1151
 20
9.54551
 10
16.1076
 20
9.55003
 10
16.0888
 20
9.560169999999999
 10
16.0297
 20
9.58539
 10
15.9342
 20
9.61931
 10
15.8367
 20
9.646710000000001
 10
15.7743
 20
9.66004
 10
15.7535
 20
9.66249
 10
15.7451
 20
9.66325
 10
15.7203
 20
9.66656
 10
15.6919
 20
9.671709999999999
 10
15.6714
 20
9.67719
 10
15.6628
 20
9.68061
 10
15.6617
 20
9.68197
 10
15.6607
 20
9.68371
 10
15.6404
 20
9.690810000000001
 10
15.6094
 20
9.69444
 10
15.5992
 20
9.69444
 10
15.5857
 20
9.69444
 10
15.5451
 20
9.703609999999999
 10
15.4871
 20
9.72781
 10
15.4336
 20
9.76243
 10
15.4018
 20
9.79144
 10
15.3936
 20
9.80279
 10
15.3897
 20
9.808109999999999
 10
15.3772
 20
9.823399999999999
 10
15.3636
 20
9.832140000000001
 10
15.3467
 20
9.83074
 10
15.3267
 20
9.823510000000001
 10
15.3201
 20
9.82086
 10
15.3137
 20
9.81842
 10
15.2907
 20
9.809570000000001
 10
15.2443
 20
9.79204
 10
15.1876
 20
9.77083
 10
15.1421
 20
9.75413
 10
15.1269
 20
9.74858
 10
15.0982
 20
9.73856
 10
15.0122
 20
9.70632
 10
14.9269
 20
9.66949
 10
14.8657
 20
9.63574
 10
14.8326
 20
9.61199
 10
14.8229
 20
9.60275
 10
14.814
 20
9.59483
 10
14.7844
 20
9.57465
 10
14.7401
 20
9.551600000000001
 10
14.7001
 20
9.53814
 10
14.679
 20
9.53603
 10
14.6743
 20
9.5389
 10
14.6665
 20
9.544
 10
14.6607
 20
9.585990000000001
 10
14.6507
 20
9.695259999999999
 10
14.644
 20
9.848739999999999
 10
14.6411
 20
10.0283
 10
14.6418
 20
10.2159
 10
14.6464
 20
10.3934
 10
14.6547
 20
10.5428
 10
14.6622
 20
10.6204
 10
14.6674
 20
10.6458
 10
14.6694
 20
10.6556
 10
14.6801
 20
10.7177
 10
14.6894
 20
10.7813
 10
14.691
 20
10.7917
 10
14.6919
 20
10.8017
 10
14.6961
 20
10.8317
 10
14.7049
 20
10.8848
 10
14.7156
 20
10.944
 10
14.724
 20
10.9881
 10
14.7269
 20
11.0028
 10
14.7294
 20
11.0162
 10
14.7369
 20
11.0564
 10
14.7454
 20
11.1033
 10
14.7512
 20
11.1386
 10
14.7535
 20
11.1524
 10
14.7535
 20
11.157
 10
14.7535
 20
11.1609
 10
14.7475
 20
11.1728
 10
14.7339
 20
11.1847
 10
14.7182
 20
11.1894
 10
14.7078
 20
11.1858
 10
14.7061
 20
11.1833
  0
LWPOLYLINE
  5
52
100
AcDbEntity
  8
0
  6
ByLayer
 62
    0
370
   -1
100
AcDbPolyline
 90
  775
 70
    1
 43
0
 10
11.1145
 20
7.60693
 10
11.1145
 20
7.59088
 10
11.1015
 20
7.54264
 10
11.0704
 20
7.44553
 10
11.0336
 20
7.34993
 10
11.011
 20
7.30035
 10
11.0034
 20
7.29025
 10
10.9993
 20
7.2851
 10
10.9882
 20
7.26856
 10
10.9765
 20
7.24685
 10
10.9692
 20
7.22775
 10
10.967
 20
7.21729
 10
10.9673
 20
7.21386
 10
10.9699
 20
7.19775
 10
10.9528
 20
7.14512
 10
10.9044
 20
7.05626
 10
10.8399
 20
6.97368
 10
10.7948
 20
6.93153
 10
10.777
 20
6.92361
 10
10.7707
 20
6.92122
 10
10.751
 20
6.91575
 10
10.7138
 20
6.90717
 10
10.6704
 20
6.89882
 10
10.6368
 20
6.89328
 10
10.6257
 20
6.89165
 10
10.6072
 20
6.8896
 10
10.519
 20
6.86985
 10
10.4322
 20
6.83751
 10
10.4145
 20
6.82915
 10
10.4031
 20
6.82379
 10
10.3683
 20
6.80892
 10
10.3207
 20
6.79118
 10
10.2774
 20
6.77783
 10
10.2522
 20
6.77181
 10
10.2437
 20
6.77083
 10
10.2037
 20
6.76563
 10
10.0844
 20
6.74571
 10
9.960179999999999
 20
6.71772
 10
9.879390000000001
 20
6.68924
 10
9.85064
 20
6.66922
 10
9.85064
 20
6.66249
 10
9.85064
 20
6.65201
 10
9.83806
 20
6.6205
 10
9.80442
 20
6.56478
 10
9.75569
 20
6.50413
 10
9.71317
 20
6.46044
 10
9.69786
 20
6.44721
 10
9.68554
 20
6.43664
 10
9.64925
 20
6.40403
 10
9.58431
 20
6.34413
 10
9.5115
 20
6.27539
 10
9.45736
 20
6.22314
 10
9.43951
 20
6.20557
 10
9.421110000000001
 20
6.18767
 10
9.3649
 20
6.13488
 10
9.306319999999999
 20
6.08356
 10
9.264709999999999
 20
6.05225
 10
9.24681
 20
6.04167
 10
9.24089
 20
6.04167
 10
9.232530000000001
 20
6.04167
 10
9.207509999999999
 20
6.05072
 10
9.17563
 20
6.06808
 10
9.17008
 20
6.07221
 10
9.16456
 20
6.07628
 10
9.146649999999999
 20
6.08669
 10
9.122350000000001
 20
6.09532
 10
9.09407
 20
6.09901
 10
9.06771
 20
6.09912
 10
9.05897
 20
6.09864
 10
9.040469999999999
 20
6.09765
 10
8.984260000000001
 20
6.10796
 10
8.91276
 20
6.14725
 10
8.838649999999999
 20
6.22092
 10
8.77539
 20
6.30436
 10
8.756180000000001
 20
6.33333
 10
8.75201
 20
6.33946
 10
8.738440000000001
 20
6.35699
 10
8.71468
 20
6.38579
 10
8.687989999999999
 20
6.41618
 10
8.6684
 20
6.4375
 10
8.66174
 20
6.44444
 10
8.64611
 20
6.46039
 10
8.602370000000001
 20
6.51139
 10
8.53706
 20
6.59451
 10
8.47851
 20
6.67654
 10
8.44781
 20
6.72401
 10
8.43951
 20
6.74029
 10
8.433260000000001
 20
6.75233
 10
8.41222
 20
6.78722
 10
8.38151
 20
6.82693
 10
8.34299
 20
6.86431
 10
8.30528
 20
6.89469
 10
8.29232
 20
6.90419
 10
8.28478
 20
6.9101
 10
8.26286
 20
6.9285
 10
8.234970000000001
 20
6.9535
 10
8.21181
 20
6.97646
 10
8.199870000000001
 20
6.98969
 10
8.19646
 20
6.99447
 10
8.19331
 20
6.99935
 10
8.17985
 20
7.01633
 10
8.15147
 20
7.04969
 10
8.11496
 20
7.08979
 10
8.084580000000001
 20
7.12158
 10
8.07422
 20
7.13194
 10
8.064069999999999
 20
7.14231
 10
8.03478
 20
7.17443
 10
8.00028
 20
7.21511
 10
7.97461
 20
7.24935
 10
7.96349
 20
7.26704
 10
7.96175
 20
7.27225
 10
7.95964
 20
7.27746
 10
7.94993
 20
7.2971
 10
7.94233
 20
7.30425
 10
7.94228
 20
7.30414
 10
7.94157
 20
7.3035
 10
7.93631
 20
7.29454
 10
7.92367
 20
7.27208
 10
7.90614
 20
7.2399
 10
7.89051
 20
7.21104
 10
7.88536
 20
7.20139
 10
7.86669
 20
7.16694
 10
7.80479
 20
7.06674
 10
7.72021
 20
6.95003
 10
7.63906
 20
6.8604
 10
7.588
 20
6.81694
 10
7.56868
 20
6.80697
 10
7.56153
 20
6.80328
 10
7.54124
 20
6.78982
 10
7.50982
 20
6.76563
 10
7.47863
 20
6.73785
 10
7.45828
 20
6.71712
 10
7.45204
 20
6.70975
 10
7.44362
 20
6.70003
 10
7.42111
 20
6.66846
 10
7.3839
 20
6.61025
 10
7.34375
 20
6.54161
 10
7.3041
 20
6.46892
 10
7.26828
 20
6.39871
 10
7.23986
 20
6.33729
 10
7.22217
 20
6.29113
 10
7.21664
 20
6.2716
 10
7.21869
 20
6.26665
 10
7.22385
 20
6.25319
 10
7.21337
 20
6.20275
 10
7.17437
 20
6.10818
 10
7.11376
 20
6.00711
 10
7.06337
 20
5.94217
 10
7.04368
 20
5.92361
 10
7.03776
 20
5.91808
 10
7.00771
 20
5.88351
 10
6.98394
 20
5.84967
 10
6.98118
 20
5.84446
 10
6.97478
 20
5.83192
 10
6.94336
 20
5.80051
 10
6.88932
 20
5.77935
 10
6.82357
 20
5.78142
 10
6.76774
 20
5.79839
 10
6.75065
 20
5.80697
 10
6.69368
 20
5.8361
 10
6.70204
 20
5.79308
 10
6.7034
 20
5.78683
 10
6.71001
 20
5.76611
 10
6.72439
 20
5.72607
 10
6.74322
 20
5.67822
 10
6.75906
 20
5.64031
 10
6.76454
 20
5.62776
 10
6.77035
 20
5.61501
 10
6.78733
 20
5.57639
 10
6.80843
 20
5.52604
 10
6.82563
 20
5.48247
 10
6.83431
 20
5.45904
 10
6.83675
 20
5.45139
 10
6.83914
 20
5.44379
 10
6.85949
 20
5.39606
 10
6.88465
 20
5.34901
 10
6.88954
 20
5.34169
 10
6.89372
 20
5.33513
 10
6.90386
 20
5.31375
 10
6.9171
 20
5.27849
 10
6.92796
 20
5.24013
 10
6.93392
 20
5.21224
 10
6.93533
 20
5.20281
 10
6.93881
 20
5.17919
 10
6.95839
 20
5.074
 10
6.98703
 20
4.95904
 10
6.99507
 20
4.93056
 10
6.99946
 20
4.91515
 10
7.01064
 20
4.86822
 10
7.01568
 20
4.8214
 10
7.0101
 20
4.78157
 10
6.99854
 20
4.75028
 10
6.99371
 20
4.74029
 10
6.98986
 20
4.73232
 10
6.96224
 20
4.69689
 10
6.92285
 20
4.66846
 10
6.91314
 20
4.6639
 10
6.90685
 20
4.66092
 10
6.88878
 20
4.65001
 10
6.8655
 20
4.63282
 10
6.84592
 20
4.6149
 10
6.83539
 20
4.60303
 10
6.83257
 20
4.59864
 10
6.82943
 20
4.59343
 10
6.80686
 20
4.56674
 10
6.78153
 20
4.54551
 10
6.77701
 20
4.54308
 10
6.77246
 20
4.54064
 10
6.74696
 20
4.51878
 10
6.72353
 20
4.49132
 10
6.72006
 20
4.48611
 10
6.70964
 20
4.46837
 10
6.64774
 20
4.43311
 10
6.53028
 20
4.41928
 10
6.38861
 20
4.44374
 10
6.27756
 20
4.48606
 10
6.24371
 20
4.50553
 10
6.23465
 20
4.51079
 10
6.20649
 20
4.52485
 10
6.19635
 20
4.52447
 10
6.20931
 20
4.50803
 10
6.24126
 20
4.47885
 10
6.28814
 20
4.44043
 10
6.34603
 20
4.39621
 10
6.41075
 20
4.34961
 10
6.46126
 20
4.31521
 10
6.4784
 20
4.30414
 10
6.48719
 20
4.2985
 10
6.51129
 20
4.27794
 10
6.52838
 20
4.25261
 10
6.52875
 20
4.23014
 10
6.51682
 20
4.21539
 10
6.51172
 20
4.21251
 10
6.50613
 20
4.20921
 10
6.49219
 20
4.19439
 10
6.47629
 20
4.16737
 10
6.4656
 20
4.13519
 10
6.46175
 20
4.10986
 10
6.46175
 20
4.1014
 10
6.46175
 20
4.09293
 10
6.46664
 20
4.06749
 10
6.48742
 20
4.02713
 10
6.53321
 20
3.96588
 10
6.59293
 20
3.89344
 10
6.61312
 20
3.86947
 10
6.62358
 20
3.85721
 10
6.65657
 20
3.8215
 10
6.71099
 20
3.76585
 10
6.7716
 20
3.70692
 10
6.83376
 20
3.64899
 10
6.89268
 20
3.5964
 10
6.94374
 20
3.55344
 10
6.98221
 20
3.52453
 10
6.9981
 20
3.51389
 10
7.00342
 20
3.51389
 10
7.00592
 20
3.51389
 10
7.0134
 20
3.51828
 10
7.03119
 20
3.53022
 10
7.05419
 20
3.5479
 10
7.07351
 20
3.56396
 10
7.07981
 20
3.56944
 10
7.08604
 20
3.57497
 10
7.10542
 20
3.59104
 10
7.12842
 20
3.60872
 10
7.14621
 20
3.62067
 10
7.15369
 20
3.625
 10
7.15619
 20
3.625
 10
7.15831
 20
3.625
 10
7.16471
 20
3.62093
 10
7.17854
 20
3.60975
 10
7.19581
 20
3.59337
 10
7.20996
 20
3.57867
 10
7.21451
 20
3.57362
 10
7.23579
 20
3.54969
 10
7.30063
 20
3.47851
 10
7.36486
 20
3.41288
 10
7.41917
 20
3.36546
 10
7.46115
 20
3.33458
 10
7.47564
 20
3.32497
 10
7.49826
 20
3.31017
 10
7.5644
 20
3.26281
 10
7.63271
 20
3.20335
 10
7.69299
 20
3.13422
 10
7.74208
 20
3.06629
 10
7.7576
 20
3.04308
 10
7.76872
 20
3.02626
 10
7.80354
 20
2.97667
 10
7.84332
 20
2.92746
 10
7.88254
 20
2.88921
 10
7.91553
 20
2.86344
 10
7.92703
 20
2.85558
 10
7.93582
 20
2.84944
 10
7.96181
 20
2.83029
 10
7.99507
 20
2.80419
 10
8.023110000000001
 20
2.78022
 10
8.03787
 20
2.76622
 10
8.04232
 20
2.76112
 10
8.04644
 20
2.75629
 10
8.077360000000001
 20
2.73247
 10
8.11242
 20
2.71636
 10
8.11871
 20
2.71528
 10
8.12457
 20
2.71392
 10
8.143330000000001
 20
2.70779
 10
8.17854
 20
2.69482
 10
8.219239999999999
 20
2.67822
 10
8.250170000000001
 20
2.66456
 10
8.26036
 20
2.65972
 10
8.283099999999999
 20
2.64887
 10
8.353569999999999
 20
2.62076
 10
8.46326
 20
2.58247
 10
8.56287
 20
2.55328
 10
8.609920000000001
 20
2.54167
 10
8.62565
 20
2.54167
 10
8.63167
 20
2.54167
 10
8.64974
 20
2.53614
 10
8.66656
 20
2.52501
 10
8.66868
 20
2.52225
 10
8.67042
 20
2.52013
 10
8.67503
 20
2.51307
 10
8.677849999999999
 20
2.50304
 10
8.676220000000001
 20
2.4904
 10
8.669169999999999
 20
2.47347
 10
8.65582
 20
2.45047
 10
8.635249999999999
 20
2.41971
 10
8.6065
 20
2.37939
 10
8.57818
 20
2.34065
 10
8.568680000000001
 20
2.32781
 10
8.55935
 20
2.31494
 10
8.531420000000001
 20
2.27621
 10
8.49349
 20
2.22347
 10
8.45947
 20
2.17567
 10
8.44021
 20
2.14817
 10
8.43397
 20
2.13889
 10
8.428330000000001
 20
2.13064
 10
8.411289999999999
 20
2.10607
 10
8.38531
 20
2.06896
 10
8.35932
 20
2.03207
 10
8.34233
 20
2.00803
 10
8.33675
 20
2
 10
8.330399999999999
 20
1.991
 10
8.31114
 20
1.96403
 10
8.27718
 20
1.91635
 10
8.23926
 20
1.8629
 10
8.211259999999999
 20
1.82308
 10
8.20204
 20
1.80974
 10
8.192539999999999
 20
1.79639
 10
8.16422
 20
1.75624
 10
8.12472
 20
1.70019
 10
8.08817
 20
1.6486
 10
8.06635
 20
1.61833
 10
8.05897
 20
1.60835
 10
8.00201
 20
1.52919
 10
8.04644
 20
1.50694
 10
8.052680000000001
 20
1.50347
 10
8.08094
 20
1.4936
 10
8.10026
 20
1.49408
 10
8.102
 20
1.49582
 10
8.10444
 20
1.49826
 10
8.125819999999999
 20
1.52632
 10
8.175940000000001
 20
1.59392
 10
8.242240000000001
 20
1.68474
 10
8.2965
 20
1.75971
 10
8.31451
 20
1.78472
 10
8.31972
 20
1.79237
 10
8.340820000000001
 20
1.82172
 10
8.39296
 20
1.89307
 10
8.477370000000001
 20
2.00819
 10
8.56982
 20
2.13433
 10
8.60064
 20
2.17638
 10
8.612959999999999
 20
2.19319
 10
8.649470000000001
 20
2.24393
 10
8.68918
 20
2.30072
 10
8.71588
 20
2.34088
 10
8.72564
 20
2.354
 10
8.72564
 20
2.35835
 10
8.72564
 20
2.36333
 10
8.738720000000001
 20
2.37831
 10
8.769209999999999
 20
2.40126
 10
8.80354
 20
2.41872
 10
8.82335
 20
2.42426
 10
8.8284
 20
2.42219
 10
8.831490000000001
 20
2.42117
 10
8.84625
 20
2.40192
 10
8.857530000000001
 20
2.37082
 10
8.85894
 20
2.36388
 10
8.860189999999999
 20
2.35715
 10
8.86594
 20
2.33724
 10
8.877649999999999
 20
2.30365
 10
8.892530000000001
 20
2.26719
 10
8.904629999999999
 20
2.24067
 10
8.90896
 20
2.23193
 10
8.913629999999999
 20
2.2226
 10
8.92632
 20
2.19379
 10
8.943680000000001
 20
2.14968
 10
8.958930000000001
 20
2.10504
 10
8.96767
 20
2.07531
 10
8.97006
 20
2.06526
 10
8.97293
 20
2.05436
 10
8.98367
 20
2.02197
 10
9.0039
 20
1.96756
 10
9.02806
 20
1.90924
 10
9.046709999999999
 20
1.86778
 10
9.05339
 20
1.85417
 10
9.06011
 20
1.84039
 10
9.078889999999999
 20
1.79818
 10
9.100099999999999
 20
1.74376
 10
9.11529
 20
1.69558
 10
9.12185
 20
1.66775
 10
9.12283
 20
1.65831
 10
9.131180000000001
 20
1.58751
 10
9.16868
 20
1.60558
 10
9.18056
 20
1.61128
 10
9.22194
 20
1.61621
 10
9.291069999999999
 20
1.60699
 10
9.37082
 20
1.57904
 10
9.43571
 20
1.54617
 10
9.45617
 20
1.53331
 10
9.46625
 20
1.52729
 10
9.49696
 20
1.50976
 10
9.533580000000001
 20
1.49029
 10
9.562390000000001
 20
1.47711
 10
9.575419999999999
 20
1.47222
 10
9.57981
 20
1.47222
 10
9.58535
 20
1.47222
 10
9.602
 20
1.45785
 10
9.620760000000001
 20
1.42746
 10
9.62424
 20
1.41943
 10
9.627330000000001
 20
1.41075
 10
9.65283
 20
1.37104
 10
9.690149999999999
 20
1.33751
 10
9.69922
 20
1.33192
 10
9.70979
 20
1.32541
 10
9.73926
 20
1.30176
 10
9.777010000000001
 20
1.26237
 10
9.81054
 20
1.21539
 10
9.832190000000001
 20
1.17616
 10
9.83811
 20
1.16249
 10
9.84056
 20
1.15728
 10
9.85721
 20
1.13596
 10
9.873100000000001
 20
1.125
 10
9.87842
 20
1.125
 10
9.88232
 20
1.125
 10
9.894209999999999
 20
1.12039
 10
9.92057
 20
1.10786
 10
9.953939999999999
 20
1.0893
 10
9.981780000000001
 20
1.07254
 10
9.99089
 20
1.06668
 10
10.0013
 20
1.05952
 10
10.0335
 20
1.03917
 10
10.0842
 20
1.0089
 10
10.1366
 20
0.979383
 10
10.172
 20
0.960286
 10
10.184
 20
0.954156
 10
10.192
 20
0.950142
 10
10.2161
 20
0.937608
 10
10.2428
 20
0.922472
 10
10.2655
 20
0.907443
 10
10.2857
 20
0.891168
 10
10.305
 20
0.872342
 10
10.3249
 20
0.849718
 10
10.3471
 20
0.821832
 10
10.3664
 20
0.796115
 10
10.3728
 20
0.787489
 10
10.3814
 20
0.775771
 10
10.4071
 20
0.740451
 10
10.439
 20
0.696181
 10
10.4648
 20
0.659776
 10
10.4777
 20
0.641331
 10
10.4812
 20
0.636122
 10
10.4844
 20
0.631293
 10
10.4962
 20
0.61811
 10
10.5188
 20
0.596897
 10
10.5458
 20
0.575196
 10
10.5669
 20
0.560167
 10
10.5742
 20
0.555556
 10
10.5818
 20
0.551107
 10
10.6041
 20
0.536783
 10
10.6348
 20
0.515463
 10
10.6627
 20
0.494467
 10
10.6789
 20
0.481174
 10
10.684
 20
0.4764
 10
10.6902
 20
0.471029
 10
10.7079
 20
0.453614
 10
10.7193
 20
0.431424
 10
10.7215
 20
0.398113
 10
10.7185
 20
0.355794
 10
10.7173
 20
0.341689
 10
10.7164
 20
0.329915
 10
10.7147
 20
0.294433
 10
10.7156
 20
0.259549
 10
10.72
 20
0.234864
 10
10.7256
 20
0.221733
 10
10.7284
 20
0.218044
 10
10.7303
 20
0.21544
 10
10.7377
 20
0.208822
 10
10.7432
 20
0.214789
 10
10.7458
 20
0.239746
 10
10.7465
 20
0.275553
 10
10.7465
 20
0.287489
 10
10.7465
 20
0.300347
 10
10.7483
 20
0.338867
 10
10.7549
 20
0.381456
 10
10.7681
 20
0.423286
 10
10.7838
 20
0.460178
 10
10.7895
 20
0.472222
 10
10.7988
 20
0.491482
 10
10.8242
 20
0.550347
 10
10.8421
 20
0.61149
 10
10.8452
 20
0.667969
 10
10.8388
 20
0.7161999999999999
 10
10.8353
 20
0.7319329999999999
 10
10.8302
 20
0.754992
 10
10.819
 20
0.824978
 10
10.819
 20
0.896918
 10
10.8373
 20
0.962022
 10
10.8651
 20
1.0172
 10
10.8757
 20
1.03472
 10
10.8819
 20
1.04541
 10
10.9007
 20
1.07737
 10
10.9261
 20
1.12066
 10
10.9492
 20
1.15956
 10
10.9627
 20
1.18164
 10
10.9673
 20
1.18891
 10
10.9719
 20
1.1971
 10
10.9894
 20
1.21962
 10
11.0221
 20
1.25315
 10
11.0653
 20
1.28933
 10
11.1051
 20
1.31858
 10
11.1187
 20
1.3278
 10
11.1305
 20
1.33632
 10
11.1658
 20
1.36241
 10
11.2081
 20
1.39518
 10
11.2407
 20
1.42275
 10
11.2558
 20
1.43718
 10
11.259
 20
1.44168
 10
11.2625
 20
1.44635
 10
11.2722
 20
1.46104
 10
11.2768
 20
1.47781
 10
11.2728
 20
1.49869
 10
11.2637
 20
1.52268
 10
11.2604
 20
1.53054
 10
11.2557
 20
1.54204
 10
11.2482
 20
1.57904
 10
11.2515
 20
1.62799
 10
11.2707
 20
1.67919
 10
11.2963
 20
1.72157
 10
11.3062
 20
1.73469
 10
11.3111
 20
1.74132
 10
11.3268
 20
1.76053
 10
11.3445
 20
1.77311
 10
11.3677
 20
1.77556
 10
11.3955
 20
1.77229
 10
11.4048
 20
1.77083
 10
11.4374
 20
1.76531
 10
11.5822
 20
1.75922
 10
11.695
 20
1.78157
 10
11.7117
 20
1.79025
 10
11.7204
 20
1.79482
 10
11.7766
 20
1.82032
 10
11.8343
 20
1.84375
 10
11.8437
 20
1.84722
 10
11.8528
 20
1.85038
 10
11.8793
 20
1.86176
 10
11.9093
 20
1.87989
 10
11.9366
 20
1.90429
 10
11.958
 20
1.92887
 10
11.9645
 20
1.9375
 10
11.97
 20
1.94472
 10
11.9877
 20
1.96539
 10
12.0136
 20
1.99274
 10
12.0393
 20
2.01644
 10
12.0558
 20
2.02962
 10
12.0617
 20
2.03331
 10
12.0715
 20
2.03939
 10
12.1
 20
2.0586
 10
12.1242
 20
2.07915
 10
12.1391
 20
2.09978
 10
12.1471
 20
2.11854
 10
12.1492
 20
2.125
 10
12.1544
 20
2.14279
 10
12.1788
 20
2.19353
 10
12.2286
 20
2.2761
 10
12.29
 20
2.36019
 10
12.3376
 20
2.41612
 10
12.3548
 20
2.43332
 10
12.36
 20
2.43853
 10
12.3821
 20
2.46963
 10
12.3937
 20
2.49451
 10
12.3937
 20
2.50276
 10
12.3954
 20
2.53472
 10
12.4294
 20
2.68614
 10
12.501
 20
2.83475
 10
12.5215
 20
2.86529
 10
12.5294
 20
2.87685
 10
12.5546
 20
2.91054
 10
12.5858
 20
2.94379
 10
12.622
 20
2.97076
 10
12.6578
 20
2.99115
 10
12.6701
 20
2.99724
 10
12.6806
 20
3.0025
 10
12.7131
 20
3.0165
 10
12.76
 20
3.03369
 10
12.8064
 20
3.04725
 10
12.8374
 20
3.05414
 10
12.8479
 20
3.05556
 10
12.8589
 20
3.05713
 10
12.892
 20
3.06342
 10
12.9251
 20
3.07346
 10
12.9511
 20
3.0874
 10
12.9689
 20
3.10161
 10
12.9742
 20
3.10693
 10
12.9773
 20
3.11008
 10
12.9863
 20
3.11979
 10
12.9958
 20
3.13271
 10
13.0032
 20
3.14768
 10
13.009
 20
3.16689
 10
13.0137
 20
3.19239
 10
13.018
 20
3.22635
 10
13.0222
 20
3.27078
 10
13.0258
 20
3.31358
 10
13.027
 20
3.32781
 10
13.0291
 20
3.35286
 10
13.0365
 20
3.42785
 10
13.0468
 20
3.49154
 10
13.0617
 20
3.53618
 10
13.0789
 20
3.56874
 10
13.0853
 20
3.57915
 10
13.0898
 20
3.58664
 10
13.1047
 20
3.60835
 10
13.1256
 20
3.63542
 10
13.1455
 20
3.65733
 10
13.1573
 20
3.66813
 10
13.1617
 20
3.67085
 10
13.1717
 20
3.67751
 10
13.1945
 20
3.70856
 10
13.2055
 20
3.75558
 10
13.1945
 20
3.80051
 10
13.1714
 20
3.82731
 10
13.1617
 20
3.83192
 10
13.1568
 20
3.83404
 10
13.1378
 20
3.85037
 10
13.1284
 20
3.86887
 10
13.1284
 20
3.875
 10
13.1284
 20
3.87967
 10
13.126
 20
3.89356
 10
13.1149
 20
3.9056
 10
13.0885
 20
3.9145
 10
13.0528
 20
3.9216
 10
13.0409
 20
3.92361
 10
13.0318
 20
3.92503
 10
12.988
 20
3.94428
 10
12.9405
 20
3.98232
 10
12.9298
 20
3.99306
 10
12.9212
 20
4.00211
 10
12.8937
 20
4.02772
 10
12.8555
 20
4.05143
 10
12.7985
 20
4.072
 10
12.7293
 20
4.09119
 10
12.7062
 20
4.09722
 10
12.6888
 20
4.10172
 10
12.637
 20
4.1161
 10
12.5722
 20
4.13564
 10
12.5187
 20
4.15332
 10
12.4916
 20
4.16319
 10
12.4839
 20
4.16667
 10
12.4658
 20
4.17486
 10
12.4099
 20
4.19613
 10
12.3315
 20
4.21875
 10
12.2421
 20
4.23622
 10
12.1621
 20
4.24718
 10
12.1354
 20
4.25
 10
12.0948
 20
4.25429
 10
11.9734
 20
4.271
 10
11.8315
 20
4.2971
 10
11.7193
 20
4.32601
 10
11.6631
 20
4.34586
 10
11.6465
 20
4.35558
 10
11.6345
 20
4.36263
 10
11.6021
 20
4.38992
 10
11.5751
 20
4.43126
 10
11.565
 20
4.48096
 10
11.5682
 20
4.52582
 10
11.5715
 20
4.54025
 10
11.5729
 20
4.54758
 10
11.5766
 20
4.56967
 10
11.5773
 20
4.58876
 10
11.5734
 20
4.60026
 10
11.5669
 20
4.60585
 10
11.5645
 20
4.60693
 10
11.5618
 20
4.60801
 10
11.5556
 20
4.61567
 10
11.5496
 20
4.63493
 10
11.5461
 20
4.66694
 10
11.5451
 20
4.70215
 10
11.5451
 20
4.71386
 10
11.5451
 20
4.72711
 10
11.5435
 20
4.76682
 10
11.5373
 20
4.81011
 10
11.5246
 20
4.85183
 10
11.5091
 20
4.88818
 10
11.5034
 20
4.90001
 10
11.4989
 20
4.90924
 10
11.4869
 20
4.93761
 10
11.4737
 20
4.9745
 10
11.4649
 20
5.00646
 10
11.4617
 20
5.02354
 10
11.4617
 20
5.02919
 10
11.4617
 20
5.04004
 10
11.4675
 20
5.0726
 10
11.4838
 20
5.12136
 10
11.5092
 20
5.17193
 10
11.5333
 20
5.20921
 10
11.5423
 20
5.22081
 10
11.5517
 20
5.23296
 10
11.5779
 20
5.27089
 10
11.6033
 20
5.31896
 10
11.6247
 20
5.37771
 10
11.6424
 20
5.43918
 10
11.6478
 20
5.45975
 10
11.6784
 20
5.57915
 10
11.6451
 20
5.63336
 10
11.6403
 20
5.64057
 10
11.6246
 20
5.66118
 10
11.5951
 20
5.69775
 10
11.5603
 20
5.73822
 10
11.5334
 20
5.76807
 10
11.5242
 20
5.77778
 10
11.5147
 20
5.78787
 10
11.4877
 20
5.81961
 10
11.4517
 20
5.86615
 10
11.4203
 20
5.912
 10
11.4028
 20
5.94125
 10
11.3978
 20
5.95139
 10
11.392
 20
5.96349
 10
11.3763
 20
6.00065
 10
11.3638
 20
6.04656
 10
11.3576
 20
6.10493
 10
11.3552
 20
6.17003
 10
11.3548
 20
6.19168
 10
11.3544
 20
6.21485
 10
11.352
 20
6.28429
 10
11.344
 20
6.34586
 10
11.3251
 20
6.40224
 10
11.2986
 20
6.46007
 10
11.2895
 20
6.47917
 10
11.2812
 20
6.49625
 10
11.2577
 20
6.54818
 10
11.2374
 20
6.60368
 10
11.2254
 20
6.65636
 10
11.2198
 20
6.70161
 10
11.2187
 20
6.71669
 10
11.2175
 20
6.73074
 10
11.212
 20
6.77263
 10
11.2018
 20
6.82032
 10
11.1872
 20
6.86415
 10
11.1727
 20
6.89751
 10
11.1673
 20
6.90831
 10
11.1602
 20
6.92269
 10
11.1419
 20
6.96729
 10
11.1318
 20
7.02675
 10
11.1364
 20
7.11068
 10
11.1497
 20
7.21007
 10
11.1548
 20
7.24306
 10
11.1597
 20
7.27681
 10
11.1742
 20
7.37804
 10
11.1803
 20
7.45193
 10
11.1725
 20
7.49642
 10
11.1564
 20
7.53157
 10
11.1506
 20
7.54308
 10
11.1472
 20
7.55007
 10
11.1368
 20
7.57086
 10
11.1253
 20
7.59224
 10
11.1174
 20
7.60499
 10
11.1145
 20
7.60693
 10
11.1145
 20
7.60693
  0
LWPOLYLINE
  5
53
100
AcDbEntity
  8
0
  6
ByLayer
 62
    0
370
   -1
100
AcDbPolyline
 90
  563
 70
    1
 43
0
 10
3.977
 20
5.31392
 10
3.97456
 20
5.31114
 10
3.96078
 20
5.30132
 10
3.92979
 20
5.28196
 10
3.88835
 20
5.25846
 10
3.85286
 20
5.23947
 10
3.84093
 20
5.23335
 10
3.81603
 20
5.22081
 10
3.74528
 20
5.17524
 10
3.65842
 20
5.10265
 10
3.58328
 20
5.01833
 10
3.53592
 20
4.94943
 10
3.52285
 20
4.92503
 10
3.51785
 20
4.91575
 10
3.50114
 20
4.88878
 10
3.47006
 20
4.84239
 10
3.43375
 20
4.79183
 10
3.40603
 20
4.7551
 10
3.39649
 20
4.74306
 10
3.38499
 20
4.72857
 10
3.35183
 20
4.68386
 10
3.31782
 20
4.63075
 10
3.29081
 20
4.57688
 10
3.27257
 20
4.53093
 10
3.26731
 20
4.51531
 10
3.26199
 20
4.50022
 10
3.24511
 20
4.45529
 10
3.22478
 20
4.40756
 10
3.20486
 20
4.37082
 10
3.18431
 20
4.34381
 10
3.16178
 20
4.32508
 10
3.13601
 20
4.31337
 10
3.1059
 20
4.30729
 10
3.07904
 20
4.30556
 10
3.0701
 20
4.30556
 10
3.05761
 20
4.30556
 10
3.02035
 20
4.30051
 10
2.97629
 20
4.28581
 10
2.93956
 20
4.26221
 10
2.91737
 20
4.23931
 10
2.91174
 20
4.23058
 10
2.90181
 20
4.21544
 10
2.87733
 20
4.1665
 10
2.8419
 20
4.07954
 10
2.80701
 20
3.97433
 10
2.78174
 20
3.88547
 10
2.77425
 20
3.85558
 10
2.77035
 20
3.83996
 10
2.75792
 20
3.79313
 10
2.7416
 20
3.73508
 10
2.72732
 20
3.68799
 10
2.71967
 20
3.66461
 10
2.71729
 20
3.65831
 10
2.71446
 20
3.65207
 10
2.7034
 20
3.61529
 10
2.69786
 20
3.58615
 10
2.69786
 20
3.57639
 10
2.69786
 20
3.57026
 10
2.69228
 20
3.55176
 10
2.68186
 20
3.54167
 10
2.67839
 20
3.54167
 10
2.67156
 20
3.54167
 10
2.65115
 20
3.55078
 10
2.6211
 20
3.57292
 10
2.59674
 20
3.60026
 10
2.58675
 20
3.61882
 10
2.58675
 20
3.625
 10
2.58675
 20
3.63482
 10
2.57818
 20
3.66428
 10
2.55496
 20
3.73785
 10
2.52078
 20
3.83589
 10
2.47944
 20
3.94846
 10
2.43451
 20
4.06565
 10
2.38986
 20
4.17757
 10
2.34907
 20
4.27425
 10
2.32476
 20
4.32824
 10
2.31592
 20
4.34581
 10
2.29085
 20
4.396
 10
2.21338
 20
4.54536
 10
2.12511
 20
4.70421
 10
2.04536
 20
4.83182
 10
1.98882
 20
4.91189
 10
1.96869
 20
4.9375
 10
1.96576
 20
4.94103
 10
1.9566
 20
4.95111
 10
1.94819
 20
4.9566
 10
1.94135
 20
4.95432
 10
1.93554
 20
4.94706
 10
1.93397
 20
4.94444
 10
1.93224
 20
4.94179
 10
1.92731
 20
4.93354
 10
1.92333
 20
4.92378
 10
1.92247
 20
4.91374
 10
1.92507
 20
4.90192
 10
1.93169
 20
4.88693
 10
1.94276
 20
4.86729
 10
1.95861
 20
4.84158
 10
1.9745
 20
4.81662
 10
1.97982
 20
4.80832
 10
1.98682
 20
4.7971
 10
2.00726
 20
4.76286
 10
2.03917
 20
4.70801
 10
2.07156
 20
4.65056
 10
2.09347
 20
4.61062
 10
2.10064
 20
4.59722
 10
2.10721
 20
4.58436
 10
2.12739
 20
4.5459
 10
2.15549
 20
4.4936
 10
2.18147
 20
4.44629
 10
2.19683
 20
4.41883
 10
2.20204
 20
4.40972
 10
2.21083
 20
4.39469
 10
2.23421
 20
4.34765
 10
2.27285
 20
4.26172
 10
2.31532
 20
4.15869
 10
2.3591
 20
4.04536
 10
2.40169
 20
3.92839
 10
2.44049
 20
3.81461
 10
2.47293
 20
3.71078
 10
2.49121
 20
3.64556
 10
2.49647
 20
3.62358
 10
2.49908
 20
3.61279
 10
2.50792
 20
3.58062
 10
2.5204
 20
3.54015
 10
2.53239
 20
3.50663
 10
2.5395
 20
3.48958
 10
2.54232
 20
3.48469
 10
2.54508
 20
3.47949
 10
2.55425
 20
3.45176
 10
2.55583
 20
3.42817
 10
2.55479
 20
3.42503
 10
2.55236
 20
3.41906
 10
2.52838
 20
3.40788
 10
2.47911
 20
3.40229
 10
2.42356
 20
3.40842
 10
2.38807
 20
3.41965
 10
2.37842
 20
3.42638
 10
2.3724
 20
3.43067
 10
2.35107
 20
3.43892
 10
2.30149
 20
3.44618
 10
2.21257
 20
3.44982
 10
2.10357
 20
3.45122
 10
2.06728
 20
3.45139
 10
1.7909
 20
3.45139
 10
1.77979
 20
3.4139
 10
1.77647
 20
3.40158
 10
1.75792
 20
3.36675
 10
1.72146
 20
3.31771
 10
1.67974
 20
3.27756
 10
1.65229
 20
3.25922
 10
1.64231
 20
3.25694
 10
1.63672
 20
3.25592
 10
1.60183
 20
3.23926
 10
1.56625
 20
3.21283
 10
1.56033
 20
3.20692
 10
1.55599
 20
3.2029
 10
1.54243
 20
3.19129
 10
1.52561
 20
3.1785
 10
1.51188
 20
3.16986
 10
1.50553
 20
3.16667
 10
1.50342
 20
3.16667
 10
1.49268
 20
3.16667
 10
1.46061
 20
3.14876
 10
1.38932
 20
3.10021
 10
1.30008
 20
3.02897
 10
1.227
 20
2.96511
 10
1.2034
 20
2.94303
 10
1.18723
 20
2.928
 10
1.13916
 20
2.88243
 10
1.08908
 20
2.83344
 10
1.05149
 20
2.79372
 10
1.02458
 20
2.76096
 10
1.00662
 20
2.73281
 10
0.995985
 20
2.70697
 10
0.990831
 20
2.68104
 10
0.989529
 20
2.65989
 10
0.989529
 20
2.65278
 10
0.989529
 20
2.64442
 10
0.988226
 20
2.61936
 10
0.983399
 20
2.5976
 10
0.973687
 20
2.58365
 10
0.961806
 20
2.57563
 10
0.957574
 20
2.57362
 10
0.952365
 20
2.57124
 10
0.92806
 20
2.56549
 10
0.907878
 20
2.56879
 10
0.904785
 20
2.57086
 10
0.901964
 20
2.5726
 10
0.89095
 20
2.57574
 10
0.868326
 20
2.57969
 10
0.8399529999999999
 20
2.58242
 10
0.816678
 20
2.58333
 10
0.808974
 20
2.58333
 10
0.732585
 20
2.58192
 10
0.765896
 20
2.55556
 10
0.7704
 20
2.55176
 10
0.793838
 20
2.53597
 10
0.809299
 20
2.52778
 10
0.814507
 20
2.52778
 10
0.823296
 20
2.52778
 10
0.849772
 20
2.51281
 10
0.908094
 20
2.47244
 10
0.9806859999999999
 20
2.41351
 10
1.03982
 20
2.36117
 10
1.05897
 20
2.34304
 10
1.07894
 20
2.32357
 10
1.14182
 20
2.26807
 10
1.21571
 20
2.21272
 10
1.27789
 20
2.17844
 10
1.31369
 20
2.16667
 10
1.32563
 20
2.16667
 10
1.33073
 20
2.16667
 10
1.34603
 20
2.16488
 10
1.36068
 20
2.15836
 10
1.37169
 20
2.14561
 10
1.37918
 20
2.13032
 10
1.38118
 20
2.125
 10
1.38298
 20
2.11957
 10
1.39074
 20
2.10385
 10
1.40457
 20
2.08876
 10
1.42546
 20
2.07758
 10
1.44835
 20
2.07004
 10
1.45617
 20
2.06803
 10
1.46425
 20
2.06603
 10
1.48812
 20
2.05789
 10
1.51188
 20
2.04378
 10
1.53174
 20
2.0224
 10
1.54731
 20
1.99854
 10
1.55203
 20
1.99029
 10
1.55686
 20
1.98221
 10
1.56987
 20
1.95692
 10
1.58063
 20
1.92626
 10
1.58539
 20
1.89324
 10
1.58578
 20
1.86285
 10
1.58535
 20
1.85275
 10
1.5849
 20
1.84289
 10
1.58475
 20
1.81321
 10
1.58811
 20
1.787
 10
1.59668
 20
1.76937
 10
1.60764
 20
1.75851
 10
1.61176
 20
1.75553
 10
1.61828
 20
1.75114
 10
1.63363
 20
1.73133
 10
1.64122
 20
1.69917
 10
1.63476
 20
1.66049
 10
1.62061
 20
1.62701
 10
1.61453
 20
1.61664
 10
1.60965
 20
1.60938
 10
1.59663
 20
1.58074
 10
1.59819
 20
1.56392
 10
1.60064
 20
1.5625
 10
1.60476
 20
1.55985
 10
1.61436
 20
1.54719
 10
1.639
 20
1.51378
 10
1.67139
 20
1.46679
 10
1.70861
 20
1.41097
 10
1.74744
 20
1.35091
 10
1.785
 20
1.29123
 10
1.81808
 20
1.23665
 10
1.83751
 20
1.20307
 10
1.84369
 20
1.19168
 10
1.8495
 20
1.18104
 10
1.86963
 20
1.15039
 10
1.90875
 20
1.09587
 10
1.95594
 20
1.03505
 10
1.99333
 20
0.989746
 10
2.00618
 20
0.974989
 10
2.01519
 20
0.964681
 10
2.04258
 20
0.9338109999999999
 10
2.07281
 20
0.900879
 10
2.09825
 20
0.875108
 10
2.12056
 20
0.855035
 10
2.14122
 20
0.839518
 10
2.16183
 20
0.827203
 10
2.18386
 20
0.816786
 10
2.20264
 20
0.809299
 10
2.20899
 20
0.806967
 10
2.2225
 20
0.801758
 10
2.28569
 20
0.7680670000000001
 10
2.3419
 20
0.723307
 10
2.352
 20
0.712511
 10
2.35938
 20
0.705132
 10
2.38243
 20
0.6838109999999999
 10
2.42042
 20
0.650717
 10
2.46099
 20
0.617622
 10
2.48947
 20
0.595757
 10
2.49924
 20
0.588867
 10
2.52111
 20
0.572917
 10
2.61882
 20
0.477647
 10
2.69504
 20
0.367731
 10
2.70617
 20
0.344456
 10
2.7091
 20
0.338108
 10
2.71903
 20
0.319499
 10
2.72993
 20
0.305935
 10
2.7411
 20
0.3023
 10
2.75163
 20
0.305339
 10
2.75478
 20
0.306967
 10
2.75825
 20
0.308703
 10
2.78706
 20
0.31581
 10
2.81913
 20
0.319444
 10
2.82981
 20
0.319444
 10
2.83637
 20
0.319444
 10
2.85607
 20
0.322049
 10
2.88081
 20
0.330892
 10
2.90713
 20
0.347601
 10
2.93067
 20
0.366808
 10
2.93815
 20
0.373589
 10
2.95469
 20
0.388997
 10
2.99903
 20
0.440972
 10
3.0421
 20
0.516656
 10
3.07032
 20
0.6080179999999999
 10
3.08415
 20
0.693576
 10
3.08675
 20
0.722222
 10
3.08882
 20
0.747831
 10
3.09619
 20
0.8244899999999999
 10
3.10824
 20
0.8881829999999999
 10
3.12972
 20
0.936307
 10
3.15756
 20
0.978082
 10
3.16732
 20
0.991644
 10
3.18121
 20
1.01074
 10
3.23118
 20
1.1212
 10
3.25342
 20
1.23551
 10
3.25342
 20
1.2736
 10
3.25342
 20
1.28738
 10
3.25944
 20
1.32856
 10
3.27994
 20
1.36409
 10
3.31842
 20
1.38319
 10
3.36339
 20
1.38889
 10
3.37842
 20
1.38889
 10
3.38379
 20
1.38889
 10
3.3999
 20
1.38846
 10
3.41872
 20
1.3865
 10
3.43668
 20
1.38227
 10
3.45546
 20
1.37484
 10
3.47683
 20
1.3635
 10
3.50261
 20
1.34733
 10
3.53444
 20
1.32552
 10
3.56429
 20
1.30431
 10
3.57422
 20
1.2972
 10
3.58165
 20
1.29194
 10
3.60514
 20
1.27762
 10
3.64453
 20
1.25591
 10
3.68728
 20
1.23475
 10
3.71799
 20
1.22092
 10
3.7284
 20
1.21669
 10
3.82146
 20
1.18056
 10
3.88396
 20
1.2111
 10
3.89035
 20
1.21408
 10
3.90918
 20
1.22418
 10
3.92942
 20
1.23736
 10
3.94293
 20
1.24924
 10
3.94786
 20
1.25608
 10
3.94786
 20
1.25836
 10
3.94786
 20
1.26172
 10
3.95324
 20
1.2717
 10
3.96349
 20
1.28093
 10
3.96593
 20
1.28196
 10
3.97299
 20
1.28456
 10
3.99647
 20
1.28619
 10
4.03429
 20
1.28337
 10
4.06743
 20
1.27534
 10
4.08268
 20
1.26774
 10
4.08399
 20
1.26389
 10
4.08501
 20
1.2615
 10
4.09044
 20
1.25288
 10
4.10254
 20
1.23595
 10
4.11849
 20
1.21566
 10
4.13206
 20
1.19965
 10
4.13672
 20
1.19444
 10
4.14312
 20
1.18734
 10
4.16396
 20
1.16743
 10
4.1914
 20
1.14882
 10
4.22478
 20
1.13569
 10
4.25863
 20
1.12723
 10
4.27007
 20
1.125
 10
4.27957
 20
1.12337
 10
4.30783
 20
1.11697
 10
4.34728
 20
1.10628
 10
4.3839
 20
1.09456
 10
4.40593
 20
1.08648
 10
4.41314
 20
1.08333
 10
4.42014
 20
1.08013
 10
4.44174
 20
1.0714
 10
4.47874
 20
1.05735
 10
4.51937
 20
1.04275
 10
4.54904
 20
1.0325
 10
4.55897
 20
1.02919
 10
4.64785
 20
1
 10
4.71035
 20
1.07086
 10
4.72857
 20
1.09201
 10
4.77869
 20
1.15951
 10
4.84592
 20
1.26237
 10
4.90192
 20
1.36285
 10
4.93012
 20
1.42339
 10
4.93674
 20
1.44444
 10
4.93935
 20
1.45335
 10
4.94618
 20
1.48031
 10
4.95529
 20
1.52175
 10
4.96306
 20
1.56342
 10
4.9675
 20
1.59082
 10
4.96869
 20
1.59999
 10
4.96978
 20
1.60997
 10
4.97439
 20
1.63971
 10
4.98236
 20
1.66738
 10
4.99425
 20
1.68674
 10
5.00694
 20
1.69835
 10
5.01172
 20
1.70139
 10
5.01654
 20
1.70454
 10
5.04004
 20
1.72726
 10
5.05724
 20
1.75353
 10
5.05897
 20
1.75836
 10
5.06347
 20
1.77018
 10
5.06472
 20
1.8265
 10
5.0574
 20
1.93787
 10
5.04036
 20
2.05914
 10
5.02518
 20
2.13325
 10
5.01731
 20
2.15696
 10
5.01406
 20
2.16644
 10
5.00597
 20
2.19536
 10
4.99576
 20
2.24029
 10
4.98757
 20
2.28629
 10
4.98346
 20
2.31743
 10
4.98258
 20
2.32781
 10
4.98178
 20
2.33712
 10
4.97874
 20
2.36496
 10
4.97385
 20
2.39882
 10
4.96847
 20
2.42567
 10
4.96485
 20
2.43858
 10
4.96311
 20
2.44168
 10
4.96137
 20
2.44482
 10
4.95426
 20
2.4745
 10
4.95063
 20
2.50928
 10
4.95063
 20
2.52083
 10
4.95025
 20
2.52849
 10
4.94314
 20
2.57536
 10
4.93115
 20
2.62082
 10
4.92839
 20
2.62776
 10
4.92389
 20
2.63829
 10
4.91276
 20
2.67085
 10
4.90593
 20
2.70779
 10
4.90842
 20
2.73947
 10
4.92074
 20
2.76671
 10
4.94353
 20
2.79025
 10
4.97721
 20
2.81099
 10
5.02246
 20
2.82975
 10
5.06532
 20
2.84332
 10
5.07981
 20
2.84722
 10
5.10363
 20
2.85368
 10
5.17464
 20
2.87522
 10
5.25217
 20
2.90522
 10
5.32682
 20
2.94413
 10
5.39193
 20
2.98449
 10
5.41314
 20
2.99858
 10
5.42389
 20
3.00558
 10
5.45649
 20
3.0261
 10
5.49436
 20
3.04861
 10
5.52289
 20
3.06386
 10
5.53429
 20
3.06944
 10
5.53814
 20
3.06944
 10
5.54101
 20
3.06944
 10
5.54981
 20
3.07488
 10
5.57042
 20
3.08963
 10
5.59674
 20
3.11165
 10
5.6186
 20
3.13189
 10
5.62565
 20
3.13889
 10
5.63363
 20
3.14665
 10
5.65913
 20
3.16824
 10
5.69819
 20
3.1976
 10
5.73768
 20
3.22331
 10
5.76372
 20
3.23774
 10
5.77285
 20
3.24164
 10
5.787
 20
3.24789
 10
5.82704
 20
3.2724
 10
5.86919
 20
3.31044
 10
5.89649
 20
3.3526
 10
5.90619
 20
3.38504
 10
5.90619
 20
3.39583
 10
5.90619
 20
3.40414
 10
5.91433
 20
3.42904
 10
5.93012
 20
3.46322
 10
5.93397
 20
3.46946
 10
5.9394
 20
3.47846
 10
5.95264
 20
3.50738
 10
5.9605
 20
3.53928
 10
5.95714
 20
3.56125
 10
5.94596
 20
3.56944
 10
5.94228
 20
3.56944
 10
5.93425
 20
3.56944
 10
5.91032
 20
3.58171
 10
5.86469
 20
3.61481
 10
5.81022
 20
3.66357
 10
5.75185
 20
3.72276
 10
5.69439
 20
3.78711
 10
5.64285
 20
3.85129
 10
5.60211
 20
3.91015
 10
5.58182
 20
3.94575
 10
5.57704
 20
3.95833
 10
5.57069
 20
3.97569
 10
5.54465
 20
4.02507
 10
5.49729
 20
4.09517
 10
5.44086
 20
4.16108
 10
5.39708
 20
4.20301
 10
5.38118
 20
4.21528
 10
5.37218
 20
4.22222
 10
5.34646
 20
4.24463
 10
5.3004
 20
4.28717
 10
5.24892
 20
4.33757
 10
5.21039
 20
4.37696
 10
5.19786
 20
4.39031
 10
5.17697
 20
4.41265
 10
5.11865
 20
4.48361
 10
5.06222
 20
4.56999
 10
5.02849
 20
4.6499
 10
5.01731
 20
4.70524
 10
5.01731
 20
4.72364
 10
5.01731
 20
4.73079
 10
5.01346
 20
4.75211
 10
5.00592
 20
4.76389
 10
5.00342
 20
4.76389
 10
5.00103
 20
4.76389
 10
4.99387
 20
4.75765
 10
4.98953
 20
4.74675
 10
4.98953
 20
4.74306
 10
4.98953
 20
4.73703
 10
4.97613
 20
4.71886
 10
4.94314
 20
4.69396
 10
4.90104
 20
4.67453
 10
4.8705
 20
4.66667
 10
4.86035
 20
4.66667
 10
4.84993
 20
4.66667
 10
4.81874
 20
4.67247
 10
4.77126
 20
4.68875
 10
4.72146
 20
4.71414
 10
4.6844
 20
4.73822
 10
4.67285
 20
4.74724
 10
4.66575
 20
4.75265
 10
4.64324
 20
4.76731
 10
4.60161
 20
4.79221
 10
4.55328
 20
4.81896
 10
4.51594
 20
4.83832
 10
4.50342
 20
4.84446
 10
4.48583
 20
4.85281
 10
4.43435
 20
4.8801
 10
4.37614
 20
4.92101
 10
4.30826
 20
4.9841
 10
4.23454
 20
5.06039
 10
4.21035
 20
5.0861
 10
4.20144
 20
5.0956
 10
4.17507
 20
5.12429
 10
4.14182
 20
5.16103
 10
4.11122
 20
5.19547
 10
4.0841
 20
5.22678
 10
4.06119
 20
5.25407
 10
4.04335
 20
5.27636
 10
4.03119
 20
5.29292
 10
4.02647
 20
5.30018
 10
4.02561
 20
5.30279
 10
4.02393
 20
5.30811
 10
4.01644
 20
5.32314
 10
4.00549
 20
5.33182
 10
3.9924
 20
5.32878
 10
3.98031
 20
5.31808
 10
3.977
 20
5.31392
  0
LWPOLYLINE
  5
54
100
AcDbEntity
  8
0
  6
ByLayer
 62
    0
370
   -1
100
AcDbPolyline
 90
  527
 70
    1
 43
0
 10
15.9742
 20
4.63747
 10
15.97
 20
4.63428
 10
15.9562
 20
4.62582
 10
15.9318
 20
4.61285
 10
15.9043
 20
4.60042
 10
15.8839
 20
4.5925
 10
15.8769
 20
4.59028
 10
15.8635
 20
4.58578
 10
15.8246
 20
4.56706
 10
15.7844
 20
4.53564
 10
15.7546
 20
4.49403
 10
15.7368
 20
4.4541
 10
15.7326
 20
4.44026
 10
15.7304
 20
4.43246
 10
15.7206
 20
4.40978
 10
15.7011
 20
4.37343
 10
15.6772
 20
4.33578
 10
15.6586
 20
4.30974
 10
15.6521
 20
4.30138
 10
15.6453
 20
4.29329
 10
15.6264
 20
4.26774
 10
15.6031
 20
4.23199
 10
15.5844
 20
4.19829
 10
15.5751
 20
4.17796
 10
15.5729
 20
4.17085
 10
15.5704
 20
4.16357
 10
15.5531
 20
4.12343
 10
15.5343
 20
4.08822
 10
15.5313
 20
4.08333
 10
15.5278
 20
4.07867
 10
15.5186
 20
4.06392
 10
15.5032
 20
4.037
 10
15.4864
 20
4.00624
 10
15.474
 20
3.98286
 10
15.47
 20
3.97499
 10
15.465
 20
3.96485
 10
15.4506
 20
3.93381
 10
15.4414
 20
3.90468
 10
15.4414
 20
3.8795
 10
15.4468
 20
3.85726
 10
15.4492
 20
3.84999
 10
15.4544
 20
3.83371
 10
15.4701
 20
3.78461
 10
15.4837
 20
3.73942
 10
15.4939
 20
3.70019
 10
15.5021
 20
3.66465
 10
15.5047
 20
3.65278
 10
15.5065
 20
3.64501
 10
15.5126
 20
3.62185
 10
15.5211
 20
3.59375
 10
15.529
 20
3.57194
 10
15.5336
 20
3.56185
 10
15.5354
 20
3.55974
 10
15.5422
 20
3.55063
 10
15.5439
 20
3.50917
 10
15.5143
 20
3.44586
 10
15.4543
 20
3.38049
 10
15.3935
 20
3.33539
 10
15.3715
 20
3.32362
 10
15.3554
 20
3.31521
 10
15.3031
 20
3.29856
 10
15.2426
 20
3.3094
 10
15.1765
 20
3.3635
 10
15.1113
 20
3.44114
 10
15.091
 20
3.46804
 10
15.0833
 20
3.47808
 10
15.0607
 20
3.50786
 10
15.0343
 20
3.5415
 10
15.0147
 20
3.56554
 10
15.0061
 20
3.57536
 10
15.0047
 20
3.57639
 10
15.0031
 20
3.5771
 10
14.9896
 20
3.57915
 10
14.9579
 20
3.58263
 10
14.9142
 20
3.58615
 10
14.8758
 20
3.58838
 10
14.8631
 20
3.58886
 10
14.8497
 20
3.58942
 10
14.8096
 20
3.59218
 10
14.7607
 20
3.59706
 10
14.7217
 20
3.60281
 10
14.7026
 20
3.60661
 10
14.6979
 20
3.60835
 10
14.6892
 20
3.61149
 10
14.6513
 20
3.61724
 10
14.5749
 20
3.62435
 10
14.4861
 20
3.62825
 10
14.4229
 20
3.62864
 10
14.4021
 20
3.62776
 10
14.3507
 20
3.625
 10
14.3785
 20
3.57362
 10
14.3839
 20
3.56342
 10
14.3979
 20
3.53157
 10
14.4047
 20
3.50037
 10
14.399
 20
3.47597
 10
14.3864
 20
3.45888
 10
14.3812
 20
3.45415
 10
14.3756
 20
3.44894
 10
14.3556
 20
3.43631
 10
14.3296
 20
3.433
 10
14.2981
 20
3.44482
 10
14.2663
 20
3.4649
 10
14.2562
 20
3.47222
 10
14.245
 20
3.48025
 10
14.2093
 20
3.50071
 10
14.1649
 20
3.51133
 10
14.1104
 20
3.5045
 10
14.0528
 20
3.48725
 10
14.034
 20
3.48058
 10
14.0136
 20
3.47364
 10
13.9554
 20
3.44536
 10
13.8666
 20
3.39063
 10
13.7695
 20
3.31771
 10
13.6911
 20
3.25103
 10
13.6659
 20
3.22775
 10
13.5867
 20
3.15419
 10
13.6159
 20
3.08057
 10
13.6193
 20
3.07156
 10
13.6305
 20
3.04476
 10
13.6497
 20
3.00125
 10
13.6708
 20
2.9554
 10
13.6858
 20
2.92324
 10
13.6909
 20
2.91249
 10
13.6958
 20
2.9025
 10
13.7094
 20
2.8719
 10
13.726
 20
2.8304
 10
13.7389
 20
2.79281
 10
13.7451
 20
2.77121
 10
13.7465
 20
2.76389
 10
13.7476
 20
2.75651
 10
13.7538
 20
2.73475
 10
13.7664
 20
2.70975
 10
13.7861
 20
2.68576
 10
13.8071
 20
2.66596
 10
13.8145
 20
2.65972
 10
13.8205
 20
2.65494
 10
13.8391
 20
2.641
 10
13.8612
 20
2.62554
 10
13.8784
 20
2.61501
 10
13.8857
 20
2.61111
 10
13.8881
 20
2.61111
 10
13.8911
 20
2.61111
 10
13.9001
 20
2.60568
 10
13.9093
 20
2.59104
 10
13.9153
 20
2.57004
 10
13.9182
 20
2.54531
 10
13.9176
 20
2.51964
 10
13.9137
 20
2.49571
 10
13.9063
 20
2.47618
 10
13.8985
 20
2.46593
 10
13.8951
 20
2.46386
 10
13.8917
 20
2.46149
 10
13.8718
 20
2.43544
 10
13.8534
 20
2.39828
 10
13.8506
 20
2.39031
 10
13.848
 20
2.38217
 10
13.8415
 20
2.35732
 10
13.8398
 20
2.33128
 10
13.8471
 20
2.30322
 10
13.8599
 20
2.2736
 10
13.8645
 20
2.26389
 10
13.8707
 20
2.25082
 10
13.8939
 20
2.21365
 10
13.9312
 20
2.17036
 10
13.9751
 20
2.13558
 10
14.0114
 20
2.11583
 10
14.0243
 20
2.11111
 10
14.0294
 20
2.10906
 10
14.0635
 20
2.09185
 10
14.0989
 20
2.06982
 10
14.1049
 20
2.06526
 10
14.1111
 20
2.06076
 10
14.1546
 20
2.03646
 10
14.2031
 20
2.01633
 10
14.2118
 20
2.01389
 10
14.2244
 20
2.0101
 10
14.2621
 20
1.99588
 10
14.2956
 20
1.97592
 10
14.3143
 20
1.95199
 10
14.3201
 20
1.92969
 10
14.3201
 20
1.92219
 10
14.3201
 20
1.91351
 10
14.3097
 20
1.88738
 10
14.2794
 20
1.86203
 10
14.2299
 20
1.84631
 10
14.1788
 20
1.84056
 10
14.1617
 20
1.84028
 10
14.1501
 20
1.84028
 10
14.1154
 20
1.83925
 10
14.0856
 20
1.8349
 10
14.0663
 20
1.82563
 10
14.055
 20
1.81413
 10
14.0521
 20
1.80974
 10
14.049
 20
1.80556
 10
14.0381
 20
1.79422
 10
14.0214
 20
1.7844
 10
13.9996
 20
1.77929
 10
13.9775
 20
1.77778
 10
13.97
 20
1.77778
 10
13.934
 20
1.77778
 10
13.8263
 20
1.75054
 10
13.7121
 20
1.68924
 10
13.6909
 20
1.67219
 10
13.6774
 20
1.66118
 10
13.6352
 20
1.63021
 10
13.5829
 20
1.60368
 10
13.5155
 20
1.58572
 10
13.4398
 20
1.57308
 10
13.4145
 20
1.56944
 10
13.3987
 20
1.56717
 10
13.3517
 20
1.55826
 10
13.2987
 20
1.54254
 10
13.2428
 20
1.51768
 10
13.1891
 20
1.4891
 10
13.1714
 20
1.47917
 10
13.1657
 20
1.47592
 10
13.1497
 20
1.46365
 10
13.1273
 20
1.44217
 10
13.1054
 20
1.41683
 10
13.0853
 20
1.38943
 10
13.0684
 20
1.36198
 10
13.0558
 20
1.33643
 10
13.049
 20
1.31467
 10
13.048
 20
1.30225
 10
13.0493
 20
1.29861
 10
13.0503
 20
1.29622
 10
13.0513
 20
1.27138
 10
13.0468
 20
1.23752
 10
13.0451
 20
1.23058
 10
13.0434
 20
1.22358
 10
13.0396
 20
1.2022
 10
13.0409
 20
1.1849
 10
13.0505
 20
1.17415
 10
13.0651
 20
1.16716
 10
13.0701
 20
1.16526
 10
13.0894
 20
1.15793
 10
13.1457
 20
1.13157
 10
13.2161
 20
1.08697
 10
13.2929
 20
1.02289
 10
13.3648
 20
0.954101
 10
13.3881
 20
0.930556
 10
13.4148
 20
0.903863
 10
13.5178
 20
0.790636
 10
13.5812
 20
0.703831
 10
13.5881
 20
0.690267
 10
13.5947
 20
0.677463
 10
13.6334
 20
0.620497
 10
13.6784
 20
0.576064
 10
13.6882
 20
0.569444
 10
13.6942
 20
0.5649960000000001
 10
13.7124
 20
0.55154
 10
13.7355
 20
0.534397
 10
13.7547
 20
0.519857
 10
13.7645
 20
0.512153
 10
13.7673
 20
0.509711
 10
13.7777
 20
0.501085
 10
13.8109
 20
0.477214
 10
13.8658
 20
0.441678
 10
13.9276
 20
0.405328
 10
13.9921
 20
0.370497
 10
14.0546
 20
0.339464
 10
14.1108
 20
0.314453
 10
14.1563
 20
0.297743
 10
14.179
 20
0.291667
 10
14.1868
 20
0.291667
 10
14.1924
 20
0.291667
 10
14.2093
 20
0.293892
 10
14.2468
 20
0.299858
 10
14.2942
 20
0.308703
 10
14.3333
 20
0.316678
 10
14.3465
 20
0.319444
 10
14.3732
 20
0.324924
 10
14.4544
 20
0.337185
 10
14.5615
 20
0.347765
 10
14.6486
 20
0.349718
 10
14.6892
 20
0.346192
 10
14.6964
 20
0.341689
 10
14.6989
 20
0.339953
 10
14.7072
 20
0.325521
 10
14.7086
 20
0.307617
 10
14.7076
 20
0.304144
 10
14.7065
 20
0.300347
 10
14.706
 20
0.285265
 10
14.7103
 20
0.277778
 10
14.7118
 20
0.277778
 10
14.7174
 20
0.277778
 10
14.7344
 20
0.282932
 10
14.7869
 20
0.296713
 10
14.8615
 20
0.317057
 10
14.9283
 20
0.335558
 10
14.9507
 20
0.341689
 10
14.9856
 20
0.351508
 10
15.0897
 20
0.383356
 10
15.1886
 20
0.418946
 10
15.2476
 20
0.448514
 10
15.2674
 20
0.466308
 10
15.2674
 20
0.472222
 10
15.2674
 20
0.474718
 10
15.2726
 20
0.48215
 10
15.2829
 20
0.488226
 10
15.2854
 20
0.488878
 10
15.2899
 20
0.489963
 10
15.3107
 20
0.510363
 10
15.3668
 20
0.565158
 10
15.4442
 20
0.643392
 10
15.5335
 20
0.735243
 10
15.6251
 20
0.831
 10
15.7097
 20
0.920736
 10
15.7779
 20
0.994738
 10
15.81
 20
1.0306
 10
15.8201
 20
1.04308
 10
15.8299
 20
1.0549
 10
15.8637
 20
1.08659
 10
15.9286
 20
1.14014
 10
16.0031
 20
1.19444
 10
16.0569
 20
1.22971
 10
16.0757
 20
1.24029
 10
16.0911
 20
1.24929
 10
16.1403
 20
1.27176
 10
16.1917
 20
1.27311
 10
16.2476
 20
1.23931
 10
16.3068
 20
1.18435
 10
16.3257
 20
1.16526
 10
16.3526
 20
1.13759
 10
16.4306
 20
1.05094
 10
16.5506
 20
0.908908
 10
16.6717
 20
0.756131
 10
16.7536
 20
0.646918
 10
16.7797
 20
0.6097
 10
16.7842
 20
0.603407
 10
16.7988
 20
0.585286
 10
16.8204
 20
0.561632
 10
16.8435
 20
0.539768
 10
16.8664
 20
0.520671
 10
16.8881
 20
0.505479
 10
16.9069
 20
0.495117
 10
16.9218
 20
0.490614
 10
16.9297
 20
0.49159
 10
16.9313
 20
0.493056
 10
16.9321
 20
0.493978
 10
16.9272
 20
0.504178
 10
16.9126
 20
0.530761
 10
16.8899
 20
0.569119
 10
16.8613
 20
0.615451
 10
16.8289
 20
0.666069
 10
16.7954
 20
0.717122
 10
16.7629
 20
0.764865
 10
16.7414
 20
0.7955179999999999
 10
16.7339
 20
0.805556
 10
16.7233
 20
0.820096
 10
16.6904
 20
0.862847
 10
16.634
 20
0.933539
 10
16.5704
 20
1.01134
 10
16.5047
 20
1.08979
 10
16.4425
 20
1.1626
 10
16.389
 20
1.22336
 10
16.3497
 20
1.26573
 10
16.3353
 20
1.28125
 10
16.3299
 20
1.28331
 10
16.3269
 20
1.2844
 10
16.3153
 20
1.29362
 10
16.309
 20
1.30366
 10
16.309
 20
1.30697
 10
16.309
 20
1.31196
 10
16.3025
 20
1.32693
 10
16.2899
 20
1.34652
 10
16.2867
 20
1.34999
 10
16.2822
 20
1.35455
 10
16.2715
 20
1.3731
 10
16.2756
 20
1.3896
 10
16.2785
 20
1.39307
 10
16.285
 20
1.40072
 10
16.3074
 20
1.44015
 10
16.3453
 20
1.51563
 10
16.3782
 20
1.58957
 10
16.3924
 20
1.62136
 10
16.3924
 20
1.63194
 10
16.3924
 20
1.64606
 10
16.4033
 20
1.68832
 10
16.429
 20
1.78494
 10
16.459
 20
1.88487
 10
16.4769
 20
1.93892
 10
16.4826
 20
1.95139
 10
16.4853
 20
1.95725
 10
16.4935
 20
1.97493
 10
16.5082
 20
2.00749
 10
16.5251
 20
2.04497
 10
16.5381
 20
2.07379
 10
16.5424
 20
2.08333
 10
16.5654
 20
2.13444
 10
16.6396
 20
2.28554
 10
16.7328
 20
2.45193
 10
16.8272
 20
2.59099
 10
16.9015
 20
2.68251
 10
16.9283
 20
2.7111
 10
16.9343
 20
2.71761
 10
16.9519
 20
2.73757
 10
16.9715
 20
2.76096
 10
16.9846
 20
2.77892
 10
16.9896
 20
2.7864
 10
16.9896
 20
2.7889
 10
16.9896
 20
2.79135
 10
16.9933
 20
2.79867
 10
17.0039
 20
2.81581
 10
17.0193
 20
2.83794
 10
17.0333
 20
2.8565
 10
17.0382
 20
2.86253
 10
17.0429
 20
2.86854
 10
17.0568
 20
2.88687
 10
17.0724
 20
2.90836
 10
17.0828
 20
2.92464
 10
17.0868
 20
2.93115
 10
17.0868
 20
2.93332
 10
17.0868
 20
2.93608
 10
17.0917
 20
2.94428
 10
17.105
 20
2.96669
 10
17.1249
 20
2.9974
 10
17.1431
 20
3.02442
 10
17.1493
 20
3.03331
 10
17.1576
 20
3.04568
 10
17.1818
 20
3.0835
 10
17.2007
 20
3.12088
 10
17.209
 20
3.15408
 10
17.2106
 20
3.18235
 10
17.2103
 20
3.19168
 10
17.2101
 20
3.20344
 10
17.2078
 20
3.23872
 10
17.2017
 20
3.27642
 10
17.1908
 20
3.30886
 10
17.1789
 20
3.33274
 10
17.1743
 20
3.34028
 10
17.1708
 20
3.3456
 10
17.1574
 20
3.35938
 10
17.146
 20
3.35097
 10
17.1436
 20
3.34722
 10
17.1374
 20
3.33697
 10
17.1167
 20
3.30701
 10
17.0879
 20
3.27018
 10
17.061
 20
3.24061
 10
17.0454
 20
3.22607
 10
17.0394
 20
3.22222
 10
17.0339
 20
3.21875
 10
17.0143
 20
3.21289
 10
16.9996
 20
3.22228
 10
16.9965
 20
3.2264
 10
16.9908
 20
3.23449
 10
16.9829
 20
3.26519
 10
16.9781
 20
3.32292
 10
16.9819
 20
3.38693
 10
16.9901
 20
3.43067
 10
16.995
 20
3.44444
 10
16.9985
 20
3.45486
 10
17.0074
 20
3.49636
 10
17.0044
 20
3.52604
 10
17.0019
 20
3.53054
 10
17.0003
 20
3.53401
 10
16.9969
 20
3.54764
 10
16.9926
 20
3.57553
 10
16.9899
 20
3.61046
 10
16.9893
 20
3.63911
 10
16.9896
 20
3.6486
 10
16.9896
 20
3.65842
 10
16.9893
 20
3.68782
 10
16.9889
 20
3.72379
 10
16.9883
 20
3.75271
 10
16.9881
 20
3.76633
 10
16.9881
 20
3.77083
 10
16.9878
 20
3.77468
 10
16.9878
 20
3.79482
 10
16.9892
 20
3.81076
 10
16.9896
 20
3.8125
 10
16.9899
 20
3.81461
 10
16.9913
 20
3.83544
 10
16.9913
 20
3.86458
 10
16.9908
 20
3.87082
 10
16.9907
 20
3.87744
 10
16.9864
 20
3.89708
 10
16.9706
 20
3.92242
 10
16.9368
 20
3.95426
 10
16.8932
 20
3.98882
 10
16.8785
 20
4
 10
16.8674
 20
4.00831
 10
16.8339
 20
4.03239
 10
16.7947
 20
4.05886
 10
16.7656
 20
4.07676
 10
16.7543
 20
4.08333
 10
16.7507
 20
4.08333
 10
16.7482
 20
4.08333
 10
16.7408
 20
4.08626
 10
16.7254
 20
4.09429
 10
16.7067
 20
4.10622
 10
16.6915
 20
4.11703
 10
16.6868
 20
4.12082
 10
16.6799
 20
4.12603
 10
16.6456
 20
4.14757
 10
16.619
 20
4.1594
 10
16.6158
 20
4.15972
 10
16.6096
 20
4.16043
 10
16.581
 20
4.17128
 10
16.5219
 20
4.19775
 10
16.4512
 20
4.2334
 10
16.3985
 20
4.26215
 10
16.3812
 20
4.27225
 10
16.3744
 20
4.27632
 10
16.3554
 20
4.28999
 10
16.3283
 20
4.31201
 10
16.3035
 20
4.33535
 10
16.2885
 20
4.35129
 10
16.284
 20
4.35693
 10
16.2787
 20
4.36388
 10
16.2613
 20
4.38525
 10
16.2276
 20
4.42486
 10
16.1878
 20
4.47043
 10
16.1568
 20
4.50521
 10
16.1465
 20
4.51665
 10
16.1365
 20
4.5274
 10
16.1071
 20
4.56
 10
16.0749
 20
4.59744
 10
16.0531
 20
4.62468
 10
16.0451
 20
4.63428
 10
16.0451
 20
4.63747
 10
16.0451
 20
4.641
 10
16.0388
 20
4.65158
 10
16.0221
 20
4.65625
 10
15.9993
 20
4.65158
 10
15.9799
 20
4.64176
 10
15.9742
 20
4.63747
  0
ENDSEC
  0
SECTION
  2
OBJECTS
  0
DICTIONARY
  5
C
330
0
100
AcDbDictionary
281
    1
  3
ACAD_GROUP
350
D
  0
DICTIONARY
  5
D
330
C
100
AcDbDictionary
281
    1
  0
ENDSEC
  0
EOF
