999
dxfrw 0.6.3
  0
SECTION
  2
HEADER
  9
$ACADVER
  1
AC1021
  9
$DWGCODEPAGE
  3
ANSI_1252
  9
$INSBASE
 10
0
 20
0
 30
0
  9
$EXTMIN
 10
0.7798230000000004
 20
0.7489179999999998
 30
0
  9
$EXTMAX
 10
39.731568
 20
23.639949
 30
0
  9
$LIMMIN
 10
0
 20
0
  9
$LIMMAX
 10
420
 20
297
  9
$ORTHOMODE
 70
    0
  9
$REGENMODE
 70
    1
  9
$FILLMODE
 70
    1
  9
$QTEXTMODE
 70
    0
  9
$MIRRTEXT
 70
    0
  9
$LTSCALE
 40
1
  9
$ATTMODE
 70
    0
  9
$TEXTSIZE
 40
2.5
  9
$TRACEWID
 40
15.68
  9
$TEXTSTYLE
  7
STANDARD
  9
$CLAYER
  8
0
  9
$CELTYPE
  6
BYLAYER
  9
$CECOLOR
 62
  256
  9
$CELTSCALE
 40
1
  9
$DISPSILH
 70
    0
  9
$DIMSCALE
 40
2.5
  9
$DIMASZ
 40
2.5
  9
$DIMEXO
 40
0.625
  9
$DIMDLI
 40
3.75
  9
$DIMRND
 40
0
  9
$DIMDLE
 40
0
  9
$DIMEXE
 40
1.25
  9
$DIMTP
 40
0
  9
$DIMTM
 40
0
  9
$DIMTXT
 40
2.5
  9
$DIMCEN
 40
2.5
  9
$DIMTSZ
 40
0
  9
$DIMTOL
 70
    0
  9
$DIMLIM
 70
    0
  9
$DIMTIH
 70
    0
  9
$DIMTOH
 70
    0
  9
$DIMSE1
 70
    0
  9
$DIMSE2
 70
    0
  9
$DIMTAD
 70
    1
  9
$DIMZIN
 70
    8
  9
$DIMBLK
  1

  9
$DIMASO
 70
    1
  9
$DIMSHO
 70
    1
  9
$DIMPOST
  1

  9
$DIMAPOST
  1

  9
$DIMALT
 70
    0
  9
$DIMALTD
 70
    3
  9
$DIMALTF
 40
0.03937
  9
$DIMLFAC
 40
1
  9
$DIMTOFL
 70
    1
  9
$DIMTVP
 40
0
  9
$DIMTIX
 70
    0
  9
$DIMSOXD
 70
    0
  9
$DIMSAH
 70
    0
  9
$DIMBLK1
  1

  9
$DIMBLK2
  1

  9
$DIMSTYLE
  2
Standard
  9
$DIMCLRD
 70
    0
  9
$DIMCLRE
 70
    0
  9
$DIMCLRT
 70
    0
  9
$DIMTFAC
 40
1
  9
$DIMGAP
 40
0.625
  9
$DIMJUST
 70
    0
  9
$DIMSD1
 70
    0
  9
$DIMSD2
 70
    0
  9
$DIMTOLJ
 70
    0
  9
$DIMTZIN
 70
    8
  9
$DIMALTZ
 70
    0
  9
$DIMALTTZ
 70
    0
  9
$DIMUPT
 70
    0
  9
$DIMDEC
 70
    2
  9
$DIMTDEC
 70
    2
  9
$DIMALTU
 70
    2
  9
$DIMALTTD
 70
    3
  9
$DIMTXSTY
  7
STANDARD
  9
$DIMAUNIT
 70
    0
  9
$DIMADEC
 70
    0
  9
$DIMALTRND
 40
0
  9
$DIMAZIN
 70
    0
  9
$DIMDSEP
 70
   44
  9
$DIMATFIT
 70
    3
  9
$DIMFRAC
 70
    0
  9
$DIMLDRBLK
  1
STANDARD
  9
$DIMLUNIT
 70
    2
  9
$DIMLWD
 70
   -2
  9
$DIMLWE
 70
   -2
  9
$DIMTMOVE
 70
    0
  9
$DIMFXL
 40
1
  9
$DIMFXLON
 70
    0
  9
$DIMJOGANG
 40
0.7854
  9
$DIMTFILL
 70
    0
  9
$DIMTFILLCLR
 70
    0
  9
$DIMARCSYM
 70
    0
  9
$DIMLTYPE
  6

  9
$DIMLTEX1
  6

  9
$DIMLTEX2
  6

  9
$LUNITS
 70
    2
  9
$LUPREC
 70
    4
  9
$SKETCHINC
 40
1
  9
$FILLETRAD
 40
0
  9
$AUNITS
 70
    0
  9
$AUPREC
 70
    2
  9
$MENU
  1
.
  9
$ELEVATION
 40
0
  9
$PELEVATION
 40
0
  9
$THICKNESS
 40
0
  9
$LIMCHECK
 70
    0
  9
$CHAMFERA
 40
0
  9
$CHAMFERB
 40
0
  9
$CHAMFERC
 40
0
  9
$CHAMFERD
 40
0
  9
$SKPOLY
 70
    0
  9
$USRTIMER
 70
    1
  9
$ANGBASE
 50
0
  9
$ANGDIR
 70
    0
  9
$PDMODE
 70
   34
  9
$PDSIZE
 40
0
  9
$PLINEWID
 40
0
  9
$SPLFRAME
 70
    0
  9
$SPLINETYPE
 70
    2
  9
$SPLINESEGS
 70
    8
  9
$HANDSEED
  5
20000
  9
$SURFTAB1
 70
    6
  9
$SURFTAB2
 70
    6
  9
$SURFTYPE
 70
    6
  9
$SURFU
 70
    6
  9
$SURFV
 70
    6
  9
$UCSBASE
  2

  9
$UCSNAME
  2

  9
$UCSORG
 10
0
 20
0
 30
0
  9
$UCSXDIR
 10
1
 20
0
 30
0
  9
$UCSYDIR
 10
0
 20
1
 30
0
  9
$UCSORTHOREF
  2

  9
$UCSORTHOVIEW
 70
    0
  9
$UCSORGTOP
 10
0
 20
0
 30
0
  9
$UCSORGBOTTOM
 10
0
 20
0
 30
0
  9
$UCSORGLEFT
 10
0
 20
0
 30
0
  9
$UCSORGRIGHT
 10
0
 20
0
 30
0
  9
$UCSORGFRONT
 10
0
 20
0
 30
0
  9
$UCSORGBACK
 10
0
 20
0
 30
0
  9
$PUCSBASE
  2

  9
$PUCSNAME
  2

  9
$PUCSORG
 10
0
 20
0
 30
0
  9
$PUCSXDIR
 10
1
 20
0
 30
0
  9
$PUCSYDIR
 10
0
 20
1
 30
0
  9
$PUCSORTHOREF
  2

  9
$PUCSORTHOVIEW
 70
    0
  9
$PUCSORGTOP
 10
0
 20
0
 30
0
  9
$PUCSORGBOTTOM
 10
0
 20
0
 30
0
  9
$PUCSORGLEFT
 10
0
 20
0
 30
0
  9
$PUCSORGRIGHT
 10
0
 20
0
 30
0
  9
$PUCSORGFRONT
 10
0
 20
0
 30
0
  9
$PUCSORGBACK
 10
0
 20
0
 30
0
  9
$USERI1
 70
    0
  9
$USERI2
 70
    0
  9
$USERI3
 70
    0
  9
$USERI4
 70
    0
  9
$USERI5
 70
    0
  9
$USERR1
 40
0
  9
$USERR2
 40
0
  9
$USERR3
 40
0
  9
$USERR4
 40
0
  9
$USERR5
 40
0
  9
$WORLDVIEW
 70
    1
  9
$SHADEDGE
 70
    3
  9
$SHADEDIF
 70
   70
  9
$TILEMODE
 70
    1
  9
$MAXACTVP
 70
   64
  9
$PINSBASE
 10
0
 20
0
 30
0
  9
$PLIMCHECK
 70
    0
  9
$PEXTMIN
 10
0
 20
0
 30
0
  9
$PEXTMAX
 10
0
 20
0
 30
0
  9
$GRIDMODE
 70
    1
  9
$SNAPSTYLE
 70
    0
  9
$PLIMMIN
 10
0
 20
0
  9
$PLIMMAX
 10
210
 20
297
  9
$UNITMODE
 70
    0
  9
$VISRETAIN
 70
    1
  9
$PLINEGEN
 70
    0
  9
$PSLTSCALE
 70
    1
  9
$TREEDEPTH
 70
 3020
  9
$CMLSTYLE
  2
Standard
  9
$CMLJUST
 70
    0
  9
$CMLSCALE
 40
20
  9
$PROXYGRAPHICS
 70
    1
  9
$MEASUREMENT
 70
    1
  9
$CELWEIGHT
370
   -1
  9
$ENDCAPS
280
    0
  9
$JOINSTYLE
280
    0
  9
$LWDISPLAY
290
    0
  9
$INSUNITS
 70
    4
  9
$HYPERLINKBASE
  1

  9
$STYLESHEET
  1

  9
$XEDIT
290
    1
  9
$CEPSNTYPE
380
    0
  9
$PSTYLEMODE
290
    1
  9
$EXTNAMES
290
    1
  9
$PSVPSCALE
 40
1
  9
$OLESTARTUP
290
    0
  9
$SORTENTS
280
  127
  9
$INDEXCTL
280
    0
  9
$HIDETEXT
280
    1
  9
$XCLIPFRAME
290
    0
  9
$HALOGAP
280
    0
  9
$OBSCOLOR
 70
  257
  9
$OBSLTYPE
280
    0
  9
$INTERSECTIONDISPLAY
280
    0
  9
$INTERSECTIONCOLOR
 70
  257
  9
$DIMASSOC
280
    1
  9
$PROJECTNAME
  1

  9
$CAMERADISPLAY
290
    0
  9
$LENSLENGTH
 40
50
  9
$CAMERAHEIGHT
 40
0
  9
$STEPSPERSEC
 40
2
  9
$STEPSIZE
 40
50
  9
$3DDWFPREC
 40
2
  9
$PSOLWIDTH
 40
5
  9
$PSOLHEIGHT
 40
80
  9
$LOFTANG1
 40
1.570796326794897
  9
$LOFTANG2
 40
1.570796326794897
  9
$LOFTMAG1
 40
0
  9
$LOFTMAG2
 40
0
  9
$LOFTPARAM
 70
    7
  9
$LOFTNORMALS
280
    1
  9
$LATITUDE
 40
1
  9
$LONGITUDE
 40
1
  9
$NORTHDIRECTION
 40
0
  9
$TIMEZONE
 70
-8000
  9
$LIGHTGLYPHDISPLAY
280
    1
  9
$TILEMODELIGHTSYNCH
280
    1
  9
$SOLIDHIST
280
    1
  9
$SHOWHIST
280
    1
  9
$DWFFRAME
280
    2
  9
$DGNFRAME
280
    0
  9
$REALWORLDSCALE
290
    1
  9
$INTERFERECOLOR
 62
    1
  9
$CSHADOW
280
    0
  9
$SHADOWPLANELOCATION
 40
0
  0
ENDSEC
  0
SECTION
  2
CLASSES
  0
ENDSEC
  0
SECTION
  2
TABLES
  0
TABLE
  2
VPORT
  5
8
330
0
100
AcDbSymbolTable
 70
    1
  0
VPORT
  5
31
330
2
100
AcDbSymbolTableRecord
100
AcDbViewportTableRecord
  2
*ACTIVE
 70
    0
 10
0
 20
0
 11
1
 21
1
 12
23.90618360920543
 22
13.97782016703327
 13
0
 23
0
 14
10
 24
10
 15
10
 25
10
 16
0
 26
0
 36
1
 17
0
 27
0
 37
0
 40
32.14898638417653
 41
1.881074168797954
 42
50
 43
0
 44
0
 50
0
 51
0
 71
    0
 72
  100
 73
    1
 74
    3
 75
    0
 76
    1
 77
    0
 78
    0
281
    0
 65
    1
110
0
120
0
130
0
111
1
121
0
131
0
112
0
122
1
132
0
 79
    0
146
0
348
10020
 60
    7
 61
    5
292
1
282
    1
141
0
142
0
 63
  250
421
3358443
  0
ENDTAB
  0
TABLE
  2
LTYPE
  5
5
330
0
100
AcDbSymbolTable
 70
    4
  0
LTYPE
  5
14
330
5
100
AcDbSymbolTableRecord
100
AcDbLinetypeTableRecord
  2
ByBlock
 70
    0
  3

 72
   65
 73
    0
 40
0
  0
LTYPE
  5
15
330
5
100
AcDbSymbolTableRecord
100
AcDbLinetypeTableRecord
  2
ByLayer
 70
    0
  3

 72
   65
 73
    0
 40
0
  0
LTYPE
  5
16
330
5
100
AcDbSymbolTableRecord
100
AcDbLinetypeTableRecord
  2
Continuous
 70
    0
  3
Solid line
 72
   65
 73
    0
 40
0
  0
LTYPE
  5
32
330
5
100
AcDbSymbolTableRecord
100
AcDbLinetypeTableRecord
  2
DOT
 70
    0
  3
Dot . . . . . . . . . . . . . . . . . . . . . .
 72
   65
 73
    2
 40
6.35
 49
0
 74
    0
 49
-6.35
 74
    0
  0
LTYPE
  5
33
330
5
100
AcDbSymbolTableRecord
100
AcDbLinetypeTableRecord
  2
DOTTINY
 70
    0
  3
Dot (.15x) .....................................
 72
   65
 73
    2
 40
0.9525
 49
0
 74
    0
 49
-0.9525
 74
    0
  0
LTYPE
  5
34
330
5
100
AcDbSymbolTableRecord
100
AcDbLinetypeTableRecord
  2
DOT2
 70
    0
  3
Dot (.5x) .....................................
 72
   65
 73
    2
 40
3.175
 49
0
 74
    0
 49
-3.175
 74
    0
  0
LTYPE
  5
35
330
5
100
AcDbSymbolTableRecord
100
AcDbLinetypeTableRecord
  2
DOTX2
 70
    0
  3
Dot (2x) .  .  .  .  .  .  .  .  .  .  .  .  .
 72
   65
 73
    2
 40
12.7
 49
0
 74
    0
 49
-12.7
 74
    0
  0
LTYPE
  5
36
330
5
100
AcDbSymbolTableRecord
100
AcDbLinetypeTableRecord
  2
DASHED
 70
    0
  3
Dashed _ _ _ _ _ _ _ _ _ _ _ _ _ _ _ _ _
 72
   65
 73
    2
 40
19.05
 49
12.7
 74
    0
 49
-6.35
 74
    0
  0
LTYPE
  5
37
330
5
100
AcDbSymbolTableRecord
100
AcDbLinetypeTableRecord
  2
DASHEDTINY
 70
    0
  3
Dashed (.15x) _ _ _ _ _ _ _ _ _ _ _ _ _ _ _ _ _
 72
   65
 73
    2
 40
2.8575
 49
1.905
 74
    0
 49
-0.9525
 74
    0
  0
LTYPE
  5
38
330
5
100
AcDbSymbolTableRecord
100
AcDbLinetypeTableRecord
  2
DASHED2
 70
    0
  3
Dashed (.5x) _ _ _ _ _ _ _ _ _ _ _ _ _ _ _ _ _
 72
   65
 73
    2
 40
9.524999999999999
 49
6.35
 74
    0
 49
-3.175
 74
    0
  0
LTYPE
  5
39
330
5
100
AcDbSymbolTableRecord
100
AcDbLinetypeTableRecord
  2
DASHEDX2
 70
    0
  3
Dashed (2x) ____  ____  ____  ____  ____  ___
 72
   65
 73
    2
 40
38.09999999999999
 49
25.4
 74
    0
 49
-12.7
 74
    0
  0
LTYPE
  5
3A
330
5
100
AcDbSymbolTableRecord
100
AcDbLinetypeTableRecord
  2
DASHDOT
 70
    0
  3
Dash dot __ . __ . __ . __ . __ . __ . __ . __
 72
   65
 73
    4
 40
25.4
 49
12.7
 74
    0
 49
-6.35
 74
    0
 49
0
 74
    0
 49
-6.35
 74
    0
  0
LTYPE
  5
3B
330
5
100
AcDbSymbolTableRecord
100
AcDbLinetypeTableRecord
  2
DASHDOTTINY
 70
    0
  3
Dash dot (.15x) _._._._._._._._._._._._._._._.
 72
   65
 73
    4
 40
3.81
 49
1.905
 74
    0
 49
-0.9525
 74
    0
 49
0
 74
    0
 49
-0.9525
 74
    0
  0
LTYPE
  5
3C
330
5
100
AcDbSymbolTableRecord
100
AcDbLinetypeTableRecord
  2
DASHDOT2
 70
    0
  3
Dash dot (.5x) _._._._._._._._._._._._._._._.
 72
   65
 73
    4
 40
12.7
 49
6.35
 74
    0
 49
-3.175
 74
    0
 49
0
 74
    0
 49
-3.175
 74
    0
  0
LTYPE
  5
3D
330
5
100
AcDbSymbolTableRecord
100
AcDbLinetypeTableRecord
  2
DASHDOTX2
 70
    0
  3
Dash dot (2x) ____  .  ____  .  ____  .  ___
 72
   65
 73
    4
 40
50.8
 49
25.4
 74
    0
 49
-12.7
 74
    0
 49
0
 74
    0
 49
-12.7
 74
    0
  0
LTYPE
  5
3E
330
5
100
AcDbSymbolTableRecord
100
AcDbLinetypeTableRecord
  2
DIVIDE
 70
    0
  3
Divide ____ . . ____ . . ____ . . ____ . . ____
 72
   65
 73
    6
 40
31.75
 49
12.7
 74
    0
 49
-6.35
 74
    0
 49
0
 74
    0
 49
-6.35
 74
    0
 49
0
 74
    0
 49
-6.35
 74
    0
  0
LTYPE
  5
3F
330
5
100
AcDbSymbolTableRecord
100
AcDbLinetypeTableRecord
  2
DIVIDETINY
 70
    0
  3
Divide (.15x) __..__..__..__..__..__..__..__.._
 72
   65
 73
    6
 40
4.7625
 49
1.905
 74
    0
 49
-0.9525
 74
    0
 49
0
 74
    0
 49
-0.9525
 74
    0
 49
0
 74
    0
 49
-0.9525
 74
    0
  0
LTYPE
  5
40
330
5
100
AcDbSymbolTableRecord
100
AcDbLinetypeTableRecord
  2
DIVIDE2
 70
    0
  3
Divide (.5x) __..__..__..__..__..__..__..__.._
 72
   65
 73
    6
 40
15.875
 49
6.35
 74
    0
 49
-3.175
 74
    0
 49
0
 74
    0
 49
-3.175
 74
    0
 49
0
 74
    0
 49
-3.175
 74
    0
  0
LTYPE
  5
41
330
5
100
AcDbSymbolTableRecord
100
AcDbLinetypeTableRecord
  2
DIVIDEX2
 70
    0
  3
Divide (2x) ________  .  .  ________  .  .  _
 72
   65
 73
    6
 40
63.5
 49
25.4
 74
    0
 49
-12.7
 74
    0
 49
0
 74
    0
 49
-12.7
 74
    0
 49
0
 74
    0
 49
-12.7
 74
    0
  0
LTYPE
  5
42
330
5
100
AcDbSymbolTableRecord
100
AcDbLinetypeTableRecord
  2
BORDER
 70
    0
  3
Border __ __ . __ __ . __ __ . __ __ . __ __ .
 72
   65
 73
    6
 40
44.45
 49
12.7
 74
    0
 49
-6.35
 74
    0
 49
12.7
 74
    0
 49
-6.35
 74
    0
 49
0
 74
    0
 49
-6.35
 74
    0
  0
LTYPE
  5
43
330
5
100
AcDbSymbolTableRecord
100
AcDbLinetypeTableRecord
  2
BORDERTINY
 70
    0
  3
Border (.15x) __.__.__.__.__.__.__.__.__.__.__.
 72
   65
 73
    6
 40
6.6675
 49
1.905
 74
    0
 49
-0.9525
 74
    0
 49
1.905
 74
    0
 49
-0.9525
 74
    0
 49
0
 74
    0
 49
-0.9525
 74
    0
  0
LTYPE
  5
44
330
5
100
AcDbSymbolTableRecord
100
AcDbLinetypeTableRecord
  2
BORDER2
 70
    0
  3
Border (.5x) __.__.__.__.__.__.__.__.__.__.__.
 72
   65
 73
    6
 40
22.225
 49
6.35
 74
    0
 49
-3.175
 74
    0
 49
6.35
 74
    0
 49
-3.175
 74
    0
 49
0
 74
    0
 49
-3.175
 74
    0
  0
LTYPE
  5
45
330
5
100
AcDbSymbolTableRecord
100
AcDbLinetypeTableRecord
  2
BORDERX2
 70
    0
  3
Border (2x) ____  ____  .  ____  ____  .  ___
 72
   65
 73
    6
 40
88.89999999999999
 49
25.4
 74
    0
 49
-12.7
 74
    0
 49
25.4
 74
    0
 49
-12.7
 74
    0
 49
0
 74
    0
 49
-12.7
 74
    0
  0
LTYPE
  5
46
330
5
100
AcDbSymbolTableRecord
100
AcDbLinetypeTableRecord
  2
CENTER
 70
    0
  3
Center ____ _ ____ _ ____ _ ____ _ ____ _ ____
 72
   65
 73
    4
 40
50.8
 49
31.75
 74
    0
 49
-6.35
 74
    0
 49
6.35
 74
    0
 49
-6.35
 74
    0
  0
LTYPE
  5
47
330
5
100
AcDbSymbolTableRecord
100
AcDbLinetypeTableRecord
  2
CENTERTINY
 70
    0
  3
Center (.15x) ___ _ ___ _ ___ _ ___ _ ___ _ ___
 72
   65
 73
    4
 40
7.619999999999999
 49
4.7625
 74
    0
 49
-0.9525
 74
    0
 49
0.9525
 74
    0
 49
-0.9525
 74
    0
  0
LTYPE
  5
48
330
5
100
AcDbSymbolTableRecord
100
AcDbLinetypeTableRecord
  2
CENTER2
 70
    0
  3
Center (.5x) ___ _ ___ _ ___ _ ___ _ ___ _ ___
 72
   65
 73
    4
 40
28.575
 49
19.05
 74
    0
 49
-3.175
 74
    0
 49
3.175
 74
    0
 49
-3.175
 74
    0
  0
LTYPE
  5
49
330
5
100
AcDbSymbolTableRecord
100
AcDbLinetypeTableRecord
  2
CENTERX2
 70
    0
  3
Center (2x) ________  __  ________  __  _____
 72
   65
 73
    4
 40
101.6
 49
63.5
 74
    0
 49
-12.7
 74
    0
 49
12.7
 74
    0
 49
-12.7
 74
    0
  0
ENDTAB
  0
TABLE
  2
LAYER
  5
2
330
0
100
AcDbSymbolTable
 70
    1
  0
LAYER
  5
10
330
2
100
AcDbSymbolTableRecord
100
AcDbLayerTableRecord
  2
0
 70
    0
 62
    7
  6
CONTINUOUS
370
   -3
390
F
  0
LAYER
  5
4A
330
2
100
AcDbSymbolTableRecord
100
AcDbLayerTableRecord
  2
Calque_1
 70
    0
 62
    7
  6
CONTINUOUS
370
   -3
390
F
  0
ENDTAB
  0
TABLE
  2
STYLE
  5
3
330
0
100
AcDbSymbolTable
 70
    3
  0
STYLE
  5
4B
330
2
100
AcDbSymbolTableRecord
100
AcDbTextStyleTableRecord
  2
Standard
 70
    0
 40
0
 41
1
 50
0
 71
    0
 42
1
  3
txt
  4

  0
ENDTAB
  0
TABLE
  2
VIEW
  5
6
330
0
100
AcDbSymbolTable
 70
    0
  0
ENDTAB
  0
TABLE
  2
UCS
  5
7
330
0
100
AcDbSymbolTable
 70
    0
  0
ENDTAB
  0
TABLE
  2
APPID
  5
9
330
0
100
AcDbSymbolTable
 70
    1
  0
APPID
  5
12
330
9
100
AcDbSymbolTableRecord
100
AcDbRegAppTableRecord
  2
ACAD
 70
    0
  0
APPID
  5
4C
330
9
100
AcDbSymbolTableRecord
100
AcDbRegAppTableRecord
  2
LibreCad
 70
    0
  0
ENDTAB
  0
TABLE
  2
DIMSTYLE
  5
A
330
0
100
AcDbSymbolTable
 70
    1
100
AcDbDimStyleTable
 71
    1
  0
DIMSTYLE
105
4D
330
A
100
AcDbSymbolTableRecord
100
AcDbDimStyleTableRecord
  2
Standard
 70
    0
 40
2.5
 41
2.5
 42
0.625
 43
0.38
 44
1.25
 45
0
 46
0
 47
0
 48
0
 49
1
140
2.5
141
0.09
142
0
143
25.4
144
1
145
0
146
1
147
0.625
148
0
 71
    0
 72
    0
 73
    0
 74
    1
 75
    0
 76
    0
 77
    0
 78
    8
 79
    0
170
    0
171
    2
172
    0
173
    0
174
    0
175
    0
176
    0
177
    0
178
    0
179
    0
271
    2
272
    4
273
    2
274
    2
275
    0
276
    0
277
    2
278
   44
279
    0
280
    0
281
    0
282
    0
283
    1
284
    0
285
    0
286
    0
288
    0
289
    3
340
STANDARD
341

371
   -2
372
   -2
  0
ENDTAB
  0
TABLE
  2
BLOCK_RECORD
  5
1
330
0
100
AcDbSymbolTable
 70
    2
  0
BLOCK_RECORD
  5
1F
330
1
100
AcDbSymbolTableRecord
100
AcDbBlockTableRecord
  2
*Model_Space
 70
    0
280
    1
281
    0
  0
BLOCK_RECORD
  5
1E
330
1
100
AcDbSymbolTableRecord
100
AcDbBlockTableRecord
  2
*Paper_Space
 70
    0
280
    1
281
    0
  0
ENDTAB
  0
ENDSEC
  0
SECTION
  2
BLOCKS
  0
BLOCK
  5
20
330
1F
100
AcDbEntity
  8
0
100
AcDbBlockBegin
  2
*Model_Space
 70
    0
 10
0
 20
0
 30
0
  3
*Model_Space
  1

  0
ENDBLK
  5
21
330
1F
100
AcDbEntity
  8
0
100
AcDbBlockEnd
  0
BLOCK
  5
1C
330
1B
100
AcDbEntity
  8
0
100
AcDbBlockBegin
  2
*Paper_Space
 70
    0
 10
0
 20
0
 30
0
  3
*Paper_Space
  1

  0
ENDBLK
  5
1D
330
1F
100
AcDbEntity
  8
0
100
AcDbBlockEnd
  0
ENDSEC
  0
SECTION
  2
ENTITIES
  0
SPLINE
  5
4E
100
AcDbEntity
  8
0
  6
ByLayer
 62
    7
370
   -1
100
AcDbSpline
210
0
220
0
230
0
 70
    8
 71
    3
 72
    8
 73
    4
 74
    0
 42
1e-07
 43
1e-07
 40
0
 40
0
 40
0
 40
0
 40
1
 40
1
 40
1
 40
1
 10
8.602834499999997
 20
2.115563999999999
 30
0
 10
8.998366499999999
 20
3.959141999999998
 30
0
 10
8.824927500000001
 20
5.213683499999998
 30
0
 10
8.201866500000001
 20
5.015931
 30
0
  0
SPLINE
  5
4F
100
AcDbEntity
  8
0
  6
ByLayer
 62
    7
370
   -1
100
AcDbSpline
210
0
220
0
230
0
 70
    8
 71
    3
 72
    8
 73
    4
 74
    0
 42
1e-07
 43
1e-07
 40
0
 40
0
 40
0
 40
0
 40
1
 40
1
 40
1
 40
1
 10
8.201866500000001
 20
5.015931
 30
0
 10
8.004811499999995
 20
4.953385500000001
 30
0
 10
7.888833000000002
 20
5.019531000000002
 30
0
 10
7.835017500000003
 20
5.225419499999997
 30
0
  0
SPLINE
  5
50
100
AcDbEntity
  8
0
  6
ByLayer
 62
    7
370
   -1
100
AcDbSpline
210
0
220
0
230
0
 70
    8
 71
    3
 72
    8
 73
    4
 74
    0
 42
1e-07
 43
1e-07
 40
0
 40
0
 40
0
 40
0
 40
1
 40
1
 40
1
 40
1
 10
7.835017500000003
 20
5.225419499999997
 30
0
 10
7.785090000000004
 20
5.416336499999998
 30
0
 10
7.574746499999996
 20
5.553015000000002
 30
0
 10
7.259710500000001
 20
5.599252500000002
 30
0
  0
SPLINE
  5
51
100
AcDbEntity
  8
0
  6
ByLayer
 62
    7
370
   -1
100
AcDbSpline
210
0
220
0
230
0
 70
    8
 71
    3
 72
    8
 73
    4
 74
    0
 42
1e-07
 43
1e-07
 40
0
 40
0
 40
0
 40
0
 40
1
 40
1
 40
1
 40
1
 10
7.259710500000001
 20
5.599252500000002
 30
0
 10
6.777670500000003
 20
5.670001499999998
 30
0
 10
6.763108499999998
 20
5.654431500000001
 30
0
 10
6.763108499999998
 20
5.068293000000002
 30
0
  0
SPLINE
  5
52
100
AcDbEntity
  8
0
  6
ByLayer
 62
    7
370
   -1
100
AcDbSpline
210
0
220
0
230
0
 70
    8
 71
    3
 72
    8
 73
    4
 74
    0
 42
1e-07
 43
1e-07
 40
0
 40
0
 40
0
 40
0
 40
1
 40
1
 40
1
 40
1
 10
6.763108499999998
 20
5.068293000000002
 30
0
 10
6.763108499999998
 20
4.599865499999998
 30
0
 10
6.674377499999999
 20
4.406307
 30
0
 10
6.367455000000003
 20
4.205206499999997
 30
0
  0
SPLINE
  5
53
100
AcDbEntity
  8
0
  6
ByLayer
 62
    7
370
   -1
100
AcDbSpline
210
0
220
0
230
0
 70
    8
 71
    3
 72
    8
 73
    4
 74
    0
 42
1e-07
 43
1e-07
 40
0
 40
0
 40
0
 40
0
 40
1
 40
1
 40
1
 40
1
 10
6.367455000000003
 20
4.205206499999997
 30
0
 10
5.926410000000004
 20
3.916221000000002
 30
0
 10
5.493105
 20
4.000190999999999
 30
0
 10
5.493105
 20
4.374644999999997
 30
0
  0
SPLINE
  5
54
100
AcDbEntity
  8
0
  6
ByLayer
 62
    7
370
   -1
100
AcDbSpline
210
0
220
0
230
0
 70
    8
 71
    3
 72
    8
 73
    4
 74
    0
 42
1e-07
 43
1e-07
 40
0
 40
0
 40
0
 40
0
 40
1
 40
1
 40
1
 40
1
 10
5.493105
 20
4.374644999999997
 30
0
 10
5.493105
 20
4.5715515
 30
0
 10
5.368486500000003
 20
4.599703500000002
 30
0
 10
4.858105500000001
 20
4.518087
 30
0
  0
SPLINE
  5
55
100
AcDbEntity
  8
0
  6
ByLayer
 62
    7
370
   -1
100
AcDbSpline
210
0
220
0
230
0
 70
    8
 71
    3
 72
    8
 73
    4
 74
    0
 42
1e-07
 43
1e-07
 40
0
 40
0
 40
0
 40
0
 40
1
 40
1
 40
1
 40
1
 10
4.858105500000001
 20
4.518087
 30
0
 10
4.341869999999997
 20
4.435538999999999
 30
0
 10
4.223106000000001
 20
4.463564999999999
 30
0
 10
4.223106000000001
 20
4.667918999999999
 30
0
  0
SPLINE
  5
56
100
AcDbEntity
  8
0
  6
ByLayer
 62
    7
370
   -1
100
AcDbSpline
210
0
220
0
230
0
 70
    8
 71
    3
 72
    8
 73
    4
 74
    0
 42
1e-07
 43
1e-07
 40
0
 40
0
 40
0
 40
0
 40
1
 40
1
 40
1
 40
1
 10
4.223106000000001
 20
4.667918999999999
 30
0
 10
4.223106000000001
 20
4.893971999999998
 30
0
 10
4.157131499999995
 20
4.896014999999998
 30
0
 10
3.568148999999998
 20
4.688213999999999
 30
0
  0
SPLINE
  5
57
100
AcDbEntity
  8
0
  6
ByLayer
 62
    7
370
   -1
100
AcDbSpline
210
0
220
0
230
0
 70
    8
 71
    3
 72
    8
 73
    4
 74
    0
 42
1e-07
 43
1e-07
 40
0
 40
0
 40
0
 40
0
 40
1
 40
1
 40
1
 40
1
 10
3.568148999999998
 20
4.688213999999999
 30
0
 10
3.207919499999999
 20
4.561120499999999
 30
0
 10
2.850731999999999
 20
4.457129999999998
 30
0
 10
2.774398500000002
 20
4.457129999999998
 30
0
  0
SPLINE
  5
58
100
AcDbEntity
  8
0
  6
ByLayer
 62
    7
370
   -1
100
AcDbSpline
210
0
220
0
230
0
 70
    8
 71
    3
 72
    8
 73
    4
 74
    0
 42
1e-07
 43
1e-07
 40
0
 40
0
 40
0
 40
0
 40
1
 40
1
 40
1
 40
1
 10
2.774398500000002
 20
4.457129999999998
 30
0
 10
2.587131000000001
 20
4.457129999999998
 30
0
 10
2.597723999999998
 20
5.359722
 30
0
 10
2.789203500000001
 20
5.7174855
 30
0
  0
SPLINE
  5
59
100
AcDbEntity
  8
0
  6
ByLayer
 62
    7
370
   -1
100
AcDbSpline
210
0
220
0
230
0
 70
    8
 71
    3
 72
    8
 73
    4
 74
    0
 42
1e-07
 43
1e-07
 40
0
 40
0
 40
0
 40
0
 40
1
 40
1
 40
1
 40
1
 10
2.789203500000001
 20
5.7174855
 30
0
 10
2.929171500000002
 20
5.979012000000003
 30
0
 10
2.879887499999999
 20
5.9973765
 30
0
 10
2.233579499999998
 20
5.924530500000001
 30
0
  0
SPLINE
  5
5A
100
AcDbEntity
  8
0
  6
ByLayer
 62
    7
370
   -1
100
AcDbSpline
210
0
220
0
230
0
 70
    8
 71
    3
 72
    8
 73
    4
 74
    0
 42
1e-07
 43
1e-07
 40
0
 40
0
 40
0
 40
0
 40
1
 40
1
 40
1
 40
1
 10
2.233579499999998
 20
5.924530500000001
 30
0
 10
1.405273499999998
 20
5.831169000000001
 30
0
 10
1.32489
 20
6.014030999999997
 30
0
 10
1.962225000000002
 20
6.541854000000003
 30
0
  0
SPLINE
  5
5B
100
AcDbEntity
  8
0
  6
ByLayer
 62
    7
370
   -1
100
AcDbSpline
210
0
220
0
230
0
 70
    8
 71
    3
 72
    8
 73
    4
 74
    0
 42
1e-07
 43
1e-07
 40
0
 40
0
 40
0
 40
0
 40
1
 40
1
 40
1
 40
1
 10
1.873057500000002
 20
7.3874625
 30
0
 10
1.492650000000001
 20
7.736077500000002
 30
0
 10
1.321501500000002
 20
8.053278000000001
 30
0
 10
1.257880500000001
 20
8.527632000000001
 30
0
  0
LWPOLYLINE
  5
5C
100
AcDbEntity
  8
0
  6
ByLayer
 62
    7
370
   -1
100
AcDbPolyline
 90
    3
 70
    0
 43
0
 10
1.962225000000002
 20
6.541854000000003
 10
2.400083999999998
 20
6.9044775
 10
1.873057500000002
 20
7.3874625
  0
SPLINE
  5
5D
100
AcDbEntity
  8
0
  6
ByLayer
 62
    7
370
   -1
100
AcDbSpline
210
0
220
0
230
0
 70
    8
 71
    3
 72
    8
 73
    4
 74
    0
 42
1e-07
 43
1e-07
 40
0
 40
0
 40
0
 40
0
 40
1
 40
1
 40
1
 40
1
 10
1.942361999999999
 20
9.108163500000002
 30
0
 10
2.981448000000002
 20
9.005082000000002
 30
0
 10
3.469765500000005
 20
8.633764499999998
 30
0
 10
3.677976000000005
 20
7.788412499999998
 30
0
  0
SPLINE
  5
5E
100
AcDbEntity
  8
0
  6
ByLayer
 62
    7
370
   -1
100
AcDbSpline
210
0
220
0
230
0
 70
    8
 71
    3
 72
    8
 73
    4
 74
    0
 42
1e-07
 43
1e-07
 40
0
 40
0
 40
0
 40
0
 40
1
 40
1
 40
1
 40
1
 10
3.677976000000005
 20
7.788412499999998
 30
0
 10
3.771049499999997
 20
7.410507000000001
 30
0
 10
3.985362000000002
 20
7.010402999999998
 30
0
 10
4.154224500000002
 20
6.899289000000001
 30
0
  0
SPLINE
  5
5F
100
AcDbEntity
  8
0
  6
ByLayer
 62
    7
370
   -1
100
AcDbSpline
210
0
220
0
230
0
 70
    8
 71
    3
 72
    8
 73
    4
 74
    0
 42
1e-07
 43
1e-07
 40
0
 40
0
 40
0
 40
0
 40
1
 40
1
 40
1
 40
1
 10
4.154224500000002
 20
6.899289000000001
 30
0
 10
4.445424000000003
 20
6.707669999999998
 30
0
 10
4.462402500000003
 20
6.746356500000001
 30
0
 10
4.4837685
 20
7.650239999999998
 30
0
  0
SPLINE
  5
60
100
AcDbEntity
  8
0
  6
ByLayer
 62
    7
370
   -1
100
AcDbSpline
210
0
220
0
230
0
 70
    8
 71
    3
 72
    8
 73
    4
 74
    0
 42
1e-07
 43
1e-07
 40
0
 40
0
 40
0
 40
0
 40
1
 40
1
 40
1
 40
1
 10
4.4837685
 20
7.650239999999998
 30
0
 10
4.496143499999995
 20
8.174377499999999
 30
0
 10
4.5554445
 20
8.652372
 30
0
 10
4.615519500000001
 20
8.7124515
 30
0
  0
SPLINE
  5
61
100
AcDbEntity
  8
0
  6
ByLayer
 62
    7
370
   -1
100
AcDbSpline
210
0
220
0
230
0
 70
    8
 71
    3
 72
    8
 73
    4
 74
    0
 42
1e-07
 43
1e-07
 40
0
 40
0
 40
0
 40
0
 40
1
 40
1
 40
1
 40
1
 10
4.615519500000001
 20
8.7124515
 30
0
 10
4.675598999999981
 20
8.772526500000001
 30
0
 10
4.976127000000005
 20
8.547382499999999
 30
0
 10
5.283364500000005
 20
8.212127999999998
 30
0
  0
SPLINE
  5
62
100
AcDbEntity
  8
0
  6
ByLayer
 62
    7
370
   -1
100
AcDbSpline
210
0
220
0
230
0
 70
    8
 71
    3
 72
    8
 73
    4
 74
    0
 42
1e-07
 43
1e-07
 40
0
 40
0
 40
0
 40
0
 40
1
 40
1
 40
1
 40
1
 10
5.283364500000005
 20
8.212127999999998
 30
0
 10
5.832967499999995
 20
7.612408500000001
 30
0
 10
5.881221
 20
7.363176000000001
 30
0
 10
5.583784500000004
 20
6.660429000000001
 30
0
  0
SPLINE
  5
63
100
AcDbEntity
  8
0
  6
ByLayer
 62
    7
370
   -1
100
AcDbSpline
210
0
220
0
230
0
 70
    8
 71
    3
 72
    8
 73
    4
 74
    0
 42
1e-07
 43
1e-07
 40
0
 40
0
 40
0
 40
0
 40
1
 40
1
 40
1
 40
1
 10
5.583784500000004
 20
6.660429000000001
 30
0
 10
5.51580299999998
 20
6.499810500000002
 30
0
 10
5.564749500000005
 20
6.368613
 30
0
 10
5.714037000000005
 20
6.311328
 30
0
  0
SPLINE
  5
64
100
AcDbEntity
  8
0
  6
ByLayer
 62
    7
370
   -1
100
AcDbSpline
210
0
220
0
230
0
 70
    8
 71
    3
 72
    8
 73
    4
 74
    0
 42
1e-07
 43
1e-07
 40
0
 40
0
 40
0
 40
0
 40
1
 40
1
 40
1
 40
1
 10
5.714037000000005
 20
6.311328
 30
0
 10
5.872612500000002
 20
6.250474499999997
 30
0
 10
5.924983500000003
 20
6.293103000000002
 30
0
 10
5.869458000000005
 20
6.437773499999999
 30
0
  0
SPLINE
  5
65
100
AcDbEntity
  8
0
  6
ByLayer
 62
    7
370
   -1
100
AcDbSpline
210
0
220
0
230
0
 70
    8
 71
    3
 72
    8
 73
    4
 74
    0
 42
1e-07
 43
1e-07
 40
0
 40
0
 40
0
 40
0
 40
1
 40
1
 40
1
 40
1
 10
5.869458000000005
 20
6.437773499999999
 30
0
 10
5.764355999999996
 20
6.711670500000002
 30
0
 10
6.516670500000004
 20
7.223505000000001
 30
0
 10
6.841268999999997
 20
7.098945000000001
 30
0
  0
SPLINE
  5
66
100
AcDbEntity
  8
0
  6
ByLayer
 62
    7
370
   -1
100
AcDbSpline
210
0
220
0
230
0
 70
    8
 71
    3
 72
    8
 73
    4
 74
    0
 42
1e-07
 43
1e-07
 40
0
 40
0
 40
0
 40
0
 40
1
 40
1
 40
1
 40
1
 10
6.841268999999997
 20
7.098945000000001
 30
0
 10
6.989013000000003
 20
7.042249499999999
 30
0
 10
7.080619500000001
 20
7.098495000000002
 30
0
 10
7.080619500000001
 20
7.245222000000002
 30
0
  0
SPLINE
  5
67
100
AcDbEntity
  8
0
  6
ByLayer
 62
    7
370
   -1
100
AcDbSpline
210
0
220
0
230
0
 70
    8
 71
    3
 72
    8
 73
    4
 74
    0
 42
1e-07
 43
1e-07
 40
0
 40
0
 40
0
 40
0
 40
1
 40
1
 40
1
 40
1
 10
7.080619500000001
 20
7.245222000000002
 30
0
 10
7.080619500000001
 20
7.489077
 30
0
 10
6.991037999999996
 20
7.538752500000001
 30
0
 10
6.267276000000003
 20
7.69623
 30
0
  0
SPLINE
  5
68
100
AcDbEntity
  8
0
  6
ByLayer
 62
    7
370
   -1
100
AcDbSpline
210
0
220
0
230
0
 70
    8
 71
    3
 72
    8
 73
    4
 74
    0
 42
1e-07
 43
1e-07
 40
0
 40
0
 40
0
 40
0
 40
1
 40
1
 40
1
 40
1
 10
6.267276000000003
 20
7.69623
 30
0
 10
5.852533499999996
 20
7.786468499999998
 30
0
 10
5.629419000000002
 20
8.1578625
 30
0
 10
5.423620499999998
 20
9.1005675
 30
0
  0
SPLINE
  5
69
100
AcDbEntity
  8
0
  6
ByLayer
 62
    7
370
   -1
100
AcDbSpline
210
0
220
0
230
0
 70
    8
 71
    3
 72
    8
 73
    4
 74
    0
 42
1e-07
 43
1e-07
 40
0
 40
0
 40
0
 40
0
 40
1
 40
1
 40
1
 40
1
 10
5.423620499999998
 20
9.1005675
 30
0
 10
5.332509000000019
 20
9.5179425
 30
0
 10
5.355283499999999
 20
9.537130500000002
 30
0
 10
5.941741499999996
 20
9.537130500000002
 30
0
  0
SPLINE
  5
6A
100
AcDbEntity
  8
0
  6
ByLayer
 62
    7
370
   -1
100
AcDbSpline
210
0
220
0
230
0
 70
    8
 71
    3
 72
    8
 73
    4
 74
    0
 42
1e-07
 43
1e-07
 40
0
 40
0
 40
0
 40
0
 40
1
 40
1
 40
1
 40
1
 10
5.941741499999996
 20
9.537130500000002
 30
0
 10
6.544449
 20
9.537130500000002
 30
0
 10
6.929797499999996
 20
9.279014999999999
 30
0
 10
7.126744500000019
 20
8.74338
 30
0
  0
SPLINE
  5
6B
100
AcDbEntity
  8
0
  6
ByLayer
 62
    7
370
   -1
100
AcDbSpline
210
0
220
0
230
0
 70
    8
 71
    3
 72
    8
 73
    4
 74
    0
 42
1e-07
 43
1e-07
 40
0
 40
0
 40
0
 40
0
 40
1
 40
1
 40
1
 40
1
 10
7.126744500000019
 20
8.74338
 30
0
 10
7.204571999999995
 20
8.531718000000001
 30
0
 10
7.215579000000002
 20
8.531718000000001
 30
0
 10
7.225789500000005
 20
8.74338
 30
0
  0
SPLINE
  5
6C
100
AcDbEntity
  8
0
  6
ByLayer
 62
    7
370
   -1
100
AcDbSpline
210
0
220
0
230
0
 70
    8
 71
    3
 72
    8
 73
    4
 74
    0
 42
1e-07
 43
1e-07
 40
0
 40
0
 40
0
 40
0
 40
1
 40
1
 40
1
 40
1
 10
7.225789500000005
 20
8.74338
 30
0
 10
7.232089500000001
 20
8.874352500000001
 30
0
 10
7.095343500000002
 20
9.195818999999998
 30
0
 10
6.921868499999999
 20
9.457755000000001
 30
0
  0
SPLINE
  5
6D
100
AcDbEntity
  8
0
  6
ByLayer
 62
    7
370
   -1
100
AcDbSpline
210
0
220
0
230
0
 70
    8
 71
    3
 72
    8
 73
    4
 74
    0
 42
1e-07
 43
1e-07
 40
0
 40
0
 40
0
 40
0
 40
1
 40
1
 40
1
 40
1
 10
6.921868499999999
 20
9.457755000000001
 30
0
 10
6.591901500000002
 20
9.955985999999999
 30
0
 10
6.490921499999999
 20
10.807134
 30
0
 10
6.761772000000004
 20
10.807134
 30
0
  0
SPLINE
  5
6E
100
AcDbEntity
  8
0
  6
ByLayer
 62
    7
370
   -1
100
AcDbSpline
210
0
220
0
230
0
 70
    8
 71
    3
 72
    8
 73
    4
 74
    0
 42
1e-07
 43
1e-07
 40
0
 40
0
 40
0
 40
0
 40
1
 40
1
 40
1
 40
1
 10
6.761772000000004
 20
10.807134
 30
0
 10
6.848347499999999
 20
10.807134
 30
0
 10
7.005523500000002
 20
10.6688715
 30
0
 10
7.111052999999998
 20
10.499892
 30
0
  0
SPLINE
  5
6F
100
AcDbEntity
  8
0
  6
ByLayer
 62
    7
370
   -1
100
AcDbSpline
210
0
220
0
230
0
 70
    8
 71
    3
 72
    8
 73
    4
 74
    0
 42
1e-07
 43
1e-07
 40
0
 40
0
 40
0
 40
0
 40
1
 40
1
 40
1
 40
1
 10
7.111052999999998
 20
10.499892
 30
0
 10
7.293991500000004
 20
10.20696
 30
0
 10
7.316068499999997
 20
10.214259
 30
0
 10
7.585083000000001
 20
10.656618
 30
0
  0
SPLINE
  5
70
100
AcDbEntity
  8
0
  6
ByLayer
 62
    7
370
   -1
100
AcDbSpline
210
0
220
0
230
0
 70
    8
 71
    3
 72
    8
 73
    4
 74
    0
 42
1e-07
 43
1e-07
 40
0
 40
0
 40
0
 40
0
 40
1
 40
1
 40
1
 40
1
 10
7.585083000000001
 20
10.656618
 30
0
 10
7.920247499999995
 20
11.2077465
 30
0
 10
7.821895499999997
 20
12.1518825
 30
0
 10
7.444408499999998
 20
12.0070275
 30
0
  0
SPLINE
  5
71
100
AcDbEntity
  8
0
  6
ByLayer
 62
    7
370
   -1
100
AcDbSpline
210
0
220
0
230
0
 70
    8
 71
    3
 72
    8
 73
    4
 74
    0
 42
1e-07
 43
1e-07
 40
0
 40
0
 40
0
 40
0
 40
1
 40
1
 40
1
 40
1
 10
7.444408499999998
 20
12.0070275
 30
0
 10
7.145900999999999
 20
11.89248
 30
0
 10
6.654906000000004
 20
12.1623225
 30
0
 10
6.443671499999997
 20
12.557022
 30
0
  0
SPLINE
  5
72
100
AcDbEntity
  8
0
  6
ByLayer
 62
    7
370
   -1
100
AcDbSpline
210
0
220
0
230
0
 70
    8
 71
    3
 72
    8
 73
    4
 74
    0
 42
1e-07
 43
1e-07
 40
0
 40
0
 40
0
 40
0
 40
1
 40
1
 40
1
 40
1
 10
6.443671499999997
 20
12.557022
 30
0
 10
6.293717999999995
 20
12.83721
 30
0
 10
6.326730000000005
 20
12.8708835
 30
0
 10
6.751350000000002
 20
12.8708835
 30
0
  0
SPLINE
  5
73
100
AcDbEntity
  8
0
  6
ByLayer
 62
    7
370
   -1
100
AcDbSpline
210
0
220
0
230
0
 70
    8
 71
    3
 72
    8
 73
    4
 74
    0
 42
1e-07
 43
1e-07
 40
0
 40
0
 40
0
 40
0
 40
1
 40
1
 40
1
 40
1
 10
6.751350000000002
 20
12.8708835
 30
0
 10
7.025364000000003
 20
12.8708835
 30
0
 10
7.354647
 20
12.733872
 30
0
 10
7.528099499999996
 20
12.547689
 30
0
  0
LWPOLYLINE
  5
74
100
AcDbEntity
  8
0
  6
ByLayer
 62
    7
370
   -1
100
AcDbPolyline
 90
    3
 70
    0
 43
0
 10
1.257880500000001
 20
8.527632000000001
 10
1.169734500000001
 20
9.184816500000002
 10
1.942361999999999
 20
9.108163500000002
  0
SPLINE
  5
75
100
AcDbEntity
  8
0
  6
ByLayer
 62
    7
370
   -1
100
AcDbSpline
210
0
220
0
230
0
 70
    8
 71
    3
 72
    8
 73
    4
 74
    0
 42
1e-07
 43
1e-07
 40
0
 40
0
 40
0
 40
0
 40
1
 40
1
 40
1
 40
1
 10
8.075061000000005
 20
12.7321485
 30
0
 10
8.34093
 20
13.2811035
 30
0
 10
8.276674500000002
 20
13.812936
 30
0
 10
7.980291000000001
 20
13.5165525
 30
0
  0
SPLINE
  5
76
100
AcDbEntity
  8
0
  6
ByLayer
 62
    7
370
   -1
100
AcDbSpline
210
0
220
0
230
0
 70
    8
 71
    3
 72
    8
 73
    4
 74
    0
 42
1e-07
 43
1e-07
 40
0
 40
0
 40
0
 40
0
 40
1
 40
1
 40
1
 40
1
 10
7.980291000000001
 20
13.5165525
 30
0
 10
7.682886
 20
13.2191475
 30
0
 10
6.957103500000002
 20
13.3225305
 30
0
 10
6.692746499999995
 20
13.6999545
 30
0
  0
SPLINE
  5
77
100
AcDbEntity
  8
0
  6
ByLayer
 62
    7
370
   -1
100
AcDbSpline
210
0
220
0
230
0
 70
    8
 71
    3
 72
    8
 73
    4
 74
    0
 42
1e-07
 43
1e-07
 40
0
 40
0
 40
0
 40
0
 40
1
 40
1
 40
1
 40
1
 10
6.692746499999995
 20
13.6999545
 30
0
 10
6.359130000000004
 20
14.1762615
 30
0
 10
6.381067499999997
 20
14.297811
 30
0
 10
6.802807499999997
 20
14.3096955
 30
0
  0
LWPOLYLINE
  5
78
100
AcDbEntity
  8
0
  6
ByLayer
 62
    7
370
   -1
100
AcDbPolyline
 90
    3
 70
    0
 43
0
 10
7.528099499999996
 20
12.547689
 10
7.829198999999996
 20
12.224499
 10
8.075061000000005
 20
12.7321485
  0
SPLINE
  5
79
100
AcDbEntity
  8
0
  6
ByLayer
 62
    7
370
   -1
100
AcDbSpline
210
0
220
0
230
0
 70
    8
 71
    3
 72
    8
 73
    4
 74
    0
 42
1e-07
 43
1e-07
 40
0
 40
0
 40
0
 40
0
 40
1
 40
1
 40
1
 40
1
 10
6.812063999999999
 20
14.4599235
 30
0
 10
6.366933
 20
14.6392215
 30
0
 10
6.003863999999997
 20
15.200403
 30
0
 10
5.940040499999995
 20
15.8077725
 30
0
  0
SPLINE
  5
7A
100
AcDbEntity
  8
0
  6
ByLayer
 62
    7
370
   -1
100
AcDbSpline
210
0
220
0
230
0
 70
    8
 71
    3
 72
    8
 73
    4
 74
    0
 42
1e-07
 43
1e-07
 40
0
 40
0
 40
0
 40
0
 40
1
 40
1
 40
1
 40
1
 10
5.940040499999995
 20
15.8077725
 30
0
 10
5.896255499999995
 20
16.224513
 30
0
 10
5.944765500000003
 20
16.2903255
 30
0
 10
6.328377000000003
 20
16.33443
 30
0
  0
SPLINE
  5
7B
100
AcDbEntity
  8
0
  6
ByLayer
 62
    7
370
   -1
100
AcDbSpline
210
0
220
0
230
0
 70
    8
 71
    3
 72
    8
 73
    4
 74
    0
 42
1e-07
 43
1e-07
 40
0
 40
0
 40
0
 40
0
 40
1
 40
1
 40
1
 40
1
 10
6.328377000000003
 20
16.33443
 30
0
 10
6.569486999999999
 20
16.36215
 30
0
 10
6.982398000000003
 20
16.2772665
 30
0
 10
7.245958499999997
 20
16.145781
 30
0
  0
SPLINE
  5
7C
100
AcDbEntity
  8
0
  6
ByLayer
 62
    7
370
   -1
100
AcDbSpline
210
0
220
0
230
0
 70
    8
 71
    3
 72
    8
 73
    4
 74
    0
 42
1e-07
 43
1e-07
 40
0
 40
0
 40
0
 40
0
 40
1
 40
1
 40
1
 40
1
 10
7.245958499999997
 20
16.145781
 30
0
 10
7.690828499999995
 20
15.92385
 30
0
 10
7.738924500000003
 20
15.9287685
 30
0
 10
7.917327000000004
 20
16.2144375
 30
0
  0
SPLINE
  5
7D
100
AcDbEntity
  8
0
  6
ByLayer
 62
    7
370
   -1
100
AcDbSpline
210
0
220
0
230
0
 70
    8
 71
    3
 72
    8
 73
    4
 74
    0
 42
1e-07
 43
1e-07
 40
0
 40
0
 40
0
 40
0
 40
1
 40
1
 40
1
 40
1
 10
7.917327000000004
 20
16.2144375
 30
0
 10
8.023018499999996
 20
16.383678
 30
0
 10
8.152281000000002
 20
16.5221475
 30
0
 10
8.204575500000004
 20
16.5221475
 30
0
  0
SPLINE
  5
7E
100
AcDbEntity
  8
0
  6
ByLayer
 62
    7
370
   -1
100
AcDbSpline
210
0
220
0
230
0
 70
    8
 71
    3
 72
    8
 73
    4
 74
    0
 42
1e-07
 43
1e-07
 40
0
 40
0
 40
0
 40
0
 40
1
 40
1
 40
1
 40
1
 10
8.204575500000004
 20
16.5221475
 30
0
 10
8.361364500000004
 20
16.5221475
 30
0
 10
8.668120500000004
 20
15.7404705
 30
0
 10
8.668120500000004
 20
15.340929
 30
0
  0
SPLINE
  5
7F
100
AcDbEntity
  8
0
  6
ByLayer
 62
    7
370
   -1
100
AcDbSpline
210
0
220
0
230
0
 70
    8
 71
    3
 72
    8
 73
    4
 74
    0
 42
1e-07
 43
1e-07
 40
0
 40
0
 40
0
 40
0
 40
1
 40
1
 40
1
 40
1
 10
8.668120500000004
 20
15.340929
 30
0
 10
8.668120500000004
 20
14.986383
 30
0
 10
8.699800499999998
 20
14.975511
 30
0
 10
9.324072000000001
 20
15.1157805
 30
0
  0
SPLINE
  5
80
100
AcDbEntity
  8
0
  6
ByLayer
 62
    7
370
   -1
100
AcDbSpline
210
0
220
0
230
0
 70
    8
 71
    3
 72
    8
 73
    4
 74
    0
 42
1e-07
 43
1e-07
 40
0
 40
0
 40
0
 40
0
 40
1
 40
1
 40
1
 40
1
 10
9.324072000000001
 20
15.1157805
 30
0
 10
10.11933
 20
15.294462
 30
0
 10
10.217907
 20
15.2223945
 30
0
 10
9.88119
 20
14.7084945
 30
0
  0
SPLINE
  5
81
100
AcDbEntity
  8
0
  6
ByLayer
 62
    7
370
   -1
100
AcDbSpline
210
0
220
0
230
0
 70
    8
 71
    3
 72
    8
 73
    4
 74
    0
 42
1e-07
 43
1e-07
 40
0
 40
0
 40
0
 40
0
 40
1
 40
1
 40
1
 40
1
 10
9.88119
 20
14.7084945
 30
0
 10
9.624762
 20
14.3171385
 30
0
 10
9.627349500000001
 20
14.3127735
 30
0
 10
10.17718200000002
 20
14.2096245
 30
0
  0
SPLINE
  5
82
100
AcDbEntity
  8
0
  6
ByLayer
 62
    7
370
   -1
100
AcDbSpline
210
0
220
0
230
0
 70
    8
 71
    3
 72
    8
 73
    4
 74
    0
 42
1e-07
 43
1e-07
 40
0
 40
0
 40
0
 40
0
 40
1
 40
1
 40
1
 40
1
 10
10.17718200000002
 20
14.2096245
 30
0
 10
10.841274
 20
14.0850375
 30
0
 10
10.87047
 20
13.950726
 30
0
 10
10.312875
 20
13.58538
 30
0
  0
SPLINE
  5
83
100
AcDbEntity
  8
0
  6
ByLayer
 62
    7
370
   -1
100
AcDbSpline
210
0
220
0
230
0
 70
    8
 71
    3
 72
    8
 73
    4
 74
    0
 42
1e-07
 43
1e-07
 40
0
 40
0
 40
0
 40
0
 40
1
 40
1
 40
1
 40
1
 10
10.312875
 20
13.58538
 30
0
 10
10.0145655
 20
13.389918
 30
0
 10
9.694489499999996
 20
13.333317
 30
0
 10
9.201626999999995
 20
13.3888695
 30
0
  0
SPLINE
  5
84
100
AcDbEntity
  8
0
  6
ByLayer
 62
    7
370
   -1
100
AcDbSpline
210
0
220
0
230
0
 70
    8
 71
    3
 72
    8
 73
    4
 74
    0
 42
1e-07
 43
1e-07
 40
0
 40
0
 40
0
 40
0
 40
1
 40
1
 40
1
 40
1
 10
9.201626999999995
 20
13.3888695
 30
0
 10
8.606299499999999
 20
13.455969
 30
0
 10
8.509369500000002
 20
13.4258595
 30
0
 10
8.509369500000002
 20
13.1738775
 30
0
  0
SPLINE
  5
85
100
AcDbEntity
  8
0
  6
ByLayer
 62
    7
370
   -1
100
AcDbSpline
210
0
220
0
230
0
 70
    8
 71
    3
 72
    8
 73
    4
 74
    0
 42
1e-07
 43
1e-07
 40
0
 40
0
 40
0
 40
0
 40
1
 40
1
 40
1
 40
1
 10
8.509369500000002
 20
13.1738775
 30
0
 10
8.509369500000002
 20
12.985656
 30
0
 10
8.590180500000002
 20
12.9118695
 30
0
 10
8.735319
 20
12.967566
 30
0
  0
SPLINE
  5
86
100
AcDbEntity
  8
0
  6
ByLayer
 62
    7
370
   -1
100
AcDbSpline
210
0
220
0
230
0
 70
    8
 71
    3
 72
    8
 73
    4
 74
    0
 42
1e-07
 43
1e-07
 40
0
 40
0
 40
0
 40
0
 40
1
 40
1
 40
1
 40
1
 10
8.735319
 20
12.967566
 30
0
 10
8.861246999999995
 20
13.015887
 30
0
 10
9.032706000000005
 20
12.9207975
 30
0
 10
9.122633999999998
 20
12.7527585
 30
0
  0
SPLINE
  5
87
100
AcDbEntity
  8
0
  6
ByLayer
 62
    7
370
   -1
100
AcDbSpline
210
0
220
0
230
0
 70
    8
 71
    3
 72
    8
 73
    4
 74
    0
 42
1e-07
 43
1e-07
 40
0
 40
0
 40
0
 40
0
 40
1
 40
1
 40
1
 40
1
 10
9.122633999999998
 20
12.7527585
 30
0
 10
9.271120499999995
 20
12.4753065
 30
0
 10
9.3095505
 20
12.089787
 30
0
 10
9.351895500000001
 20
10.452759
 30
0
  0
SPLINE
  5
88
100
AcDbEntity
  8
0
  6
ByLayer
 62
    7
370
   -1
100
AcDbSpline
210
0
220
0
230
0
 70
    8
 71
    3
 72
    8
 73
    4
 74
    0
 42
1e-07
 43
1e-07
 40
0
 40
0
 40
0
 40
0
 40
1
 40
1
 40
1
 40
1
 10
9.351895500000001
 20
10.452759
 30
0
 10
9.360310499999997
 20
10.126878
 30
0
 10
9.412681499999998
 20
9.933810000000001
 30
0
 10
9.4682475
 20
10.023711
 30
0
  0
SPLINE
  5
89
100
AcDbEntity
  8
0
  6
ByLayer
 62
    7
370
   -1
100
AcDbSpline
210
0
220
0
230
0
 70
    8
 71
    3
 72
    8
 73
    4
 74
    0
 42
1e-07
 43
1e-07
 40
0
 40
0
 40
0
 40
0
 40
1
 40
1
 40
1
 40
1
 10
9.4682475
 20
10.023711
 30
0
 10
9.666292500000001
 20
10.344156
 30
0
 10
9.981553500000004
 20
9.707554500000002
 30
0
 10
9.893506500000004
 20
9.164989499999999
 30
0
  0
SPLINE
  5
8A
100
AcDbEntity
  8
0
  6
ByLayer
 62
    7
370
   -1
100
AcDbSpline
210
0
220
0
230
0
 70
    8
 71
    3
 72
    8
 73
    4
 74
    0
 42
1e-07
 43
1e-07
 40
0
 40
0
 40
0
 40
0
 40
1
 40
1
 40
1
 40
1
 10
9.893506500000004
 20
9.164989499999999
 30
0
 10
9.751126500000002
 20
8.287588499999998
 30
0
 10
9.989280000000001
 20
8.225097000000002
 30
0
 10
10.485612
 20
9.009631499999999
 30
0
  0
SPLINE
  5
8B
100
AcDbEntity
  8
0
  6
ByLayer
 62
    7
370
   -1
100
AcDbSpline
210
0
220
0
230
0
 70
    8
 71
    3
 72
    8
 73
    4
 74
    0
 42
1e-07
 43
1e-07
 40
0
 40
0
 40
0
 40
0
 40
1
 40
1
 40
1
 40
1
 10
10.485612
 20
9.009631499999999
 30
0
 10
10.90958850000001
 20
9.679798500000002
 30
0
 10
10.961325
 20
9.713579999999999
 30
0
 10
11.155959
 20
9.447400499999999
 30
0
  0
SPLINE
  5
8C
100
AcDbEntity
  8
0
  6
ByLayer
 62
    7
370
   -1
100
AcDbSpline
210
0
220
0
230
0
 70
    8
 71
    3
 72
    8
 73
    4
 74
    0
 42
1e-07
 43
1e-07
 40
0
 40
0
 40
0
 40
0
 40
1
 40
1
 40
1
 40
1
 10
11.155959
 20
9.447400499999999
 30
0
 10
11.487951
 20
8.993377499999998
 30
0
 10
11.40496650000002
 20
8.208843
 30
0
 10
10.9547865
 20
7.545462000000002
 30
0
  0
SPLINE
  5
8D
100
AcDbEntity
  8
0
  6
ByLayer
 62
    7
370
   -1
100
AcDbSpline
210
0
220
0
230
0
 70
    8
 71
    3
 72
    8
 73
    4
 74
    0
 42
1e-07
 43
1e-07
 40
0
 40
0
 40
0
 40
0
 40
1
 40
1
 40
1
 40
1
 10
10.9547865
 20
7.545462000000002
 30
0
 10
10.5592185
 20
6.962558999999999
 30
0
 10
10.557081
 20
6.947767499999998
 30
0
 10
10.9014795
 20
7.176444000000002
 30
0
  0
SPLINE
  5
8E
100
AcDbEntity
  8
0
  6
ByLayer
 62
    7
370
   -1
100
AcDbSpline
210
0
220
0
230
0
 70
    8
 71
    3
 72
    8
 73
    4
 74
    0
 42
1e-07
 43
1e-07
 40
0
 40
0
 40
0
 40
0
 40
1
 40
1
 40
1
 40
1
 10
10.9014795
 20
7.176444000000002
 30
0
 10
11.098809
 20
7.3074615
 30
0
 10
11.2784445
 20
7.538586
 30
0
 10
11.3006745
 20
7.690042500000002
 30
0
  0
SPLINE
  5
8F
100
AcDbEntity
  8
0
  6
ByLayer
 62
    7
370
   -1
100
AcDbSpline
210
0
220
0
230
0
 70
    8
 71
    3
 72
    8
 73
    4
 74
    0
 42
1e-07
 43
1e-07
 40
0
 40
0
 40
0
 40
0
 40
1
 40
1
 40
1
 40
1
 10
11.3006745
 20
7.690042500000002
 30
0
 10
11.36032649999998
 20
8.096478000000001
 30
0
 10
11.704563
 20
8.452112999999999
 30
0
 10
11.94792749999998
 20
8.358724499999997
 30
0
  0
SPLINE
  5
90
100
AcDbEntity
  8
0
  6
ByLayer
 62
    7
370
   -1
100
AcDbSpline
210
0
220
0
230
0
 70
    8
 71
    3
 72
    8
 73
    4
 74
    0
 42
1e-07
 43
1e-07
 40
0
 40
0
 40
0
 40
0
 40
1
 40
1
 40
1
 40
1
 10
11.94792749999998
 20
8.358724499999997
 30
0
 10
12.0649095
 20
8.313814499999998
 30
0
 10
12.1616955
 20
8.2927275
 30
0
 10
12.1630095
 20
8.311816500000001
 30
0
  0
SPLINE
  5
91
100
AcDbEntity
  8
0
  6
ByLayer
 62
    7
370
   -1
100
AcDbSpline
210
0
220
0
230
0
 70
    8
 71
    3
 72
    8
 73
    4
 74
    0
 42
1e-07
 43
1e-07
 40
0
 40
0
 40
0
 40
0
 40
1
 40
1
 40
1
 40
1
 10
12.1630095
 20
8.311816500000001
 30
0
 10
12.1643595
 20
8.330896499999998
 30
0
 10
12.263877
 20
8.629471499999998
 30
0
 10
12.3842385
 20
8.975305499999997
 30
0
  0
SPLINE
  5
92
100
AcDbEntity
  8
0
  6
ByLayer
 62
    7
370
   -1
100
AcDbSpline
210
0
220
0
230
0
 70
    8
 71
    3
 72
    8
 73
    4
 74
    0
 42
1e-07
 43
1e-07
 40
0
 40
0
 40
0
 40
0
 40
1
 40
1
 40
1
 40
1
 10
12.3842385
 20
8.975305499999997
 30
0
 10
12.59101799999999
 20
9.569440499999999
 30
0
 10
12.58440299999999
 20
9.613400999999998
 30
0
 10
12.26419200000002
 20
9.773042999999999
 30
0
  0
SPLINE
  5
93
100
AcDbEntity
  8
0
  6
ByLayer
 62
    7
370
   -1
100
AcDbSpline
210
0
220
0
230
0
 70
    8
 71
    3
 72
    8
 73
    4
 74
    0
 42
1e-07
 43
1e-07
 40
0
 40
0
 40
0
 40
0
 40
1
 40
1
 40
1
 40
1
 10
12.26419200000002
 20
9.773042999999999
 30
0
 10
12.0778065
 20
9.865967999999999
 30
0
 10
11.899746
 20
10.0747365
 30
0
 10
11.868498
 20
10.236975
 30
0
  0
SPLINE
  5
94
100
AcDbEntity
  8
0
  6
ByLayer
 62
    7
370
   -1
100
AcDbSpline
210
0
220
0
230
0
 70
    8
 71
    3
 72
    8
 73
    4
 74
    0
 42
1e-07
 43
1e-07
 40
0
 40
0
 40
0
 40
0
 40
1
 40
1
 40
1
 40
1
 10
11.868498
 20
10.236975
 30
0
 10
11.820789
 20
10.4847225
 30
0
 10
11.87979299999998
 20
10.5148545
 30
0
 10
12.2371245
 20
10.425174
 30
0
  0
SPLINE
  5
95
100
AcDbEntity
  8
0
  6
ByLayer
 62
    7
370
   -1
100
AcDbSpline
210
0
220
0
230
0
 70
    8
 71
    3
 72
    8
 73
    4
 74
    0
 42
1e-07
 43
1e-07
 40
0
 40
0
 40
0
 40
0
 40
1
 40
1
 40
1
 40
1
 10
12.2371245
 20
10.425174
 30
0
 10
12.590514
 20
10.336479
 30
0
 10
12.652686
 20
10.366503
 30
0
 10
12.60427049999998
 20
10.6024605
 30
0
  0
SPLINE
  5
96
100
AcDbEntity
  8
0
  6
ByLayer
 62
    7
370
   -1
100
AcDbSpline
210
0
220
0
230
0
 70
    8
 71
    3
 72
    8
 73
    4
 74
    0
 42
1e-07
 43
1e-07
 40
0
 40
0
 40
0
 40
0
 40
1
 40
1
 40
1
 40
1
 10
12.60427049999998
 20
10.6024605
 30
0
 10
12.5690805
 20
10.7739915
 30
0
 10
12.4331535
 20
10.8668805
 30
0
 10
12.261159
 20
10.836942
 30
0
  0
SPLINE
  5
97
100
AcDbEntity
  8
0
  6
ByLayer
 62
    7
370
   -1
100
AcDbSpline
210
0
220
0
230
0
 70
    8
 71
    3
 72
    8
 73
    4
 74
    0
 42
1e-07
 43
1e-07
 40
0
 40
0
 40
0
 40
0
 40
1
 40
1
 40
1
 40
1
 10
12.261159
 20
10.836942
 30
0
 10
11.7947475
 20
10.755753
 30
0
 10
11.2351995
 20
11.2395975
 30
0
 10
11.0581335
 20
11.877207
 30
0
  0
SPLINE
  5
98
100
AcDbEntity
  8
0
  6
ByLayer
 62
    7
370
   -1
100
AcDbSpline
210
0
220
0
230
0
 70
    8
 71
    3
 72
    8
 73
    4
 74
    0
 42
1e-07
 43
1e-07
 40
0
 40
0
 40
0
 40
0
 40
1
 40
1
 40
1
 40
1
 10
11.0581335
 20
11.877207
 30
0
 10
10.8824895
 20
12.509682
 30
0
 10
10.832445
 20
13.5058965
 30
0
 10
10.976319
 20
13.5058965
 30
0
  0
SPLINE
  5
99
100
AcDbEntity
  8
0
  6
ByLayer
 62
    7
370
   -1
100
AcDbSpline
210
0
220
0
230
0
 70
    8
 71
    3
 72
    8
 73
    4
 74
    0
 42
1e-07
 43
1e-07
 40
0
 40
0
 40
0
 40
0
 40
1
 40
1
 40
1
 40
1
 10
10.976319
 20
13.5058965
 30
0
 10
11.271861
 20
13.5058965
 30
0
 10
12.3579315
 20
12.8008725
 30
0
 10
12.5766765
 20
12.4670265
 30
0
  0
SPLINE
  5
9A
100
AcDbEntity
  8
0
  6
ByLayer
 62
    7
370
   -1
100
AcDbSpline
210
0
220
0
230
0
 70
    8
 71
    3
 72
    8
 73
    4
 74
    0
 42
1e-07
 43
1e-07
 40
0
 40
0
 40
0
 40
0
 40
1
 40
1
 40
1
 40
1
 10
12.5766765
 20
12.4670265
 30
0
 10
12.87472500000001
 20
12.012144
 30
0
 10
13.03430850000001
 20
12.051447
 30
0
 10
12.87879300000002
 20
12.541434
 30
0
  0
SPLINE
  5
9B
100
AcDbEntity
  8
0
  6
ByLayer
 62
    7
370
   -1
100
AcDbSpline
210
0
220
0
230
0
 70
    8
 71
    3
 72
    8
 73
    4
 74
    0
 42
1e-07
 43
1e-07
 40
0
 40
0
 40
0
 40
0
 40
1
 40
1
 40
1
 40
1
 10
12.87879300000002
 20
12.541434
 30
0
 10
12.821283
 20
12.7226355
 30
0
 10
12.675933
 20
12.870897
 30
0
 10
12.555801
 20
12.870897
 30
0
  0
SPLINE
  5
9C
100
AcDbEntity
  8
0
  6
ByLayer
 62
    7
370
   -1
100
AcDbSpline
210
0
220
0
230
0
 70
    8
 71
    3
 72
    8
 73
    4
 74
    0
 42
1e-07
 43
1e-07
 40
0
 40
0
 40
0
 40
0
 40
1
 40
1
 40
1
 40
1
 10
12.555801
 20
12.870897
 30
0
 10
11.9782305
 20
12.870897
 30
0
 10
11.657547
 20
14.108379
 30
0
 10
12.001005
 20
15.0117495
 30
0
  0
SPLINE
  5
9D
100
AcDbEntity
  8
0
  6
ByLayer
 62
    7
370
   -1
100
AcDbSpline
210
0
220
0
230
0
 70
    8
 71
    3
 72
    8
 73
    4
 74
    0
 42
1e-07
 43
1e-07
 40
0
 40
0
 40
0
 40
0
 40
1
 40
1
 40
1
 40
1
 10
12.001005
 20
15.0117495
 30
0
 10
12.156669
 20
15.421173
 30
0
 10
12.1642875
 20
15.4229955
 30
0
 10
12.54193649999998
 20
15.141147
 30
0
  0
SPLINE
  5
9E
100
AcDbEntity
  8
0
  6
ByLayer
 62
    7
370
   -1
100
AcDbSpline
210
0
220
0
230
0
 70
    8
 71
    3
 72
    8
 73
    4
 74
    0
 42
1e-07
 43
1e-07
 40
0
 40
0
 40
0
 40
0
 40
1
 40
1
 40
1
 40
1
 10
12.54193649999998
 20
15.141147
 30
0
 10
12.75260850000001
 20
14.983917
 30
0
 10
13.0368465
 20
14.676675
 30
0
 10
13.1735745
 20
14.458398
 30
0
  0
SPLINE
  5
9F
100
AcDbEntity
  8
0
  6
ByLayer
 62
    7
370
   -1
100
AcDbSpline
210
0
220
0
230
0
 70
    8
 71
    3
 72
    8
 73
    4
 74
    0
 42
1e-07
 43
1e-07
 40
0
 40
0
 40
0
 40
0
 40
1
 40
1
 40
1
 40
1
 10
13.1735745
 20
14.458398
 30
0
 10
13.37949
 20
14.129664
 30
0
 10
13.422897
 20
14.111916
 30
0
 10
13.426398
 20
14.3550285
 30
0
  0
SPLINE
  5
A0
100
AcDbEntity
  8
0
  6
ByLayer
 62
    7
370
   -1
100
AcDbSpline
210
0
220
0
230
0
 70
    8
 71
    3
 72
    8
 73
    4
 74
    0
 42
1e-07
 43
1e-07
 40
0
 40
0
 40
0
 40
0
 40
1
 40
1
 40
1
 40
1
 10
13.426398
 20
14.3550285
 30
0
 10
13.434813
 20
14.9392005
 30
0
 10
13.922109
 20
15.6768585
 30
0
 10
14.4732285
 20
15.9396675
 30
0
  0
SPLINE
  5
A1
100
AcDbEntity
  8
0
  6
ByLayer
 62
    7
370
   -1
100
AcDbSpline
210
0
220
0
230
0
 70
    8
 71
    3
 72
    8
 73
    4
 74
    0
 42
1e-07
 43
1e-07
 40
0
 40
0
 40
0
 40
0
 40
1
 40
1
 40
1
 40
1
 10
14.4732285
 20
15.9396675
 30
0
 10
14.77884149999998
 20
16.0854045
 30
0
 10
15.097905
 20
16.2046455
 30
0
 10
15.1822575
 20
16.2046455
 30
0
  0
SPLINE
  5
A2
100
AcDbEntity
  8
0
  6
ByLayer
 62
    7
370
   -1
100
AcDbSpline
210
0
220
0
230
0
 70
    8
 71
    3
 72
    8
 73
    4
 74
    0
 42
1e-07
 43
1e-07
 40
0
 40
0
 40
0
 40
0
 40
1
 40
1
 40
1
 40
1
 10
15.1822575
 20
16.2046455
 30
0
 10
15.457914
 20
16.2046455
 30
0
 10
15.3459495
 20
14.874153
 30
0
 10
15.026157
 20
14.349687
 30
0
  0
SPLINE
  5
A3
100
AcDbEntity
  8
0
  6
ByLayer
 62
    7
370
   -1
100
AcDbSpline
210
0
220
0
230
0
 70
    8
 71
    3
 72
    8
 73
    4
 74
    0
 42
1e-07
 43
1e-07
 40
0
 40
0
 40
0
 40
0
 40
1
 40
1
 40
1
 40
1
 10
15.026157
 20
14.349687
 30
0
 10
14.813469
 20
14.000874
 30
0
 10
14.7756915
 20
13.8248295
 30
0
 10
14.9043285
 20
13.7819535
 30
0
  0
SPLINE
  5
A4
100
AcDbEntity
  8
0
  6
ByLayer
 62
    7
370
   -1
100
AcDbSpline
210
0
220
0
230
0
 70
    8
 71
    3
 72
    8
 73
    4
 74
    0
 42
1e-07
 43
1e-07
 40
0
 40
0
 40
0
 40
0
 40
1
 40
1
 40
1
 40
1
 10
14.9043285
 20
13.7819535
 30
0
 10
15.03458549999998
 20
13.7385285
 30
0
 10
15.00696
 20
13.591887
 30
0
 10
14.8126635
 20
13.2953505
 30
0
  0
SPLINE
  5
A5
100
AcDbEntity
  8
0
  6
ByLayer
 62
    7
370
   -1
100
AcDbSpline
210
0
220
0
230
0
 70
    8
 71
    3
 72
    8
 73
    4
 74
    0
 42
1e-07
 43
1e-07
 40
0
 40
0
 40
0
 40
0
 40
1
 40
1
 40
1
 40
1
 10
14.8126635
 20
13.2953505
 30
0
 10
14.5365255
 20
12.873912
 30
0
 10
14.53739849999999
 20
12.870897
 30
0
 10
14.935086
 20
12.870897
 30
0
  0
SPLINE
  5
A6
100
AcDbEntity
  8
0
  6
ByLayer
 62
    7
370
   -1
100
AcDbSpline
210
0
220
0
230
0
 70
    8
 71
    3
 72
    8
 73
    4
 74
    0
 42
1e-07
 43
1e-07
 40
0
 40
0
 40
0
 40
0
 40
1
 40
1
 40
1
 40
1
 10
14.935086
 20
12.870897
 30
0
 10
15.4747755
 20
12.870897
 30
0
 10
15.4765485
 20
12.2689905
 30
0
 10
14.938686
 20
11.6298465
 30
0
  0
SPLINE
  5
A7
100
AcDbEntity
  8
0
  6
ByLayer
 62
    7
370
   -1
100
AcDbSpline
210
0
220
0
230
0
 70
    8
 71
    3
 72
    8
 73
    4
 74
    0
 42
1e-07
 43
1e-07
 40
0
 40
0
 40
0
 40
0
 40
1
 40
1
 40
1
 40
1
 10
14.938686
 20
11.6298465
 30
0
 10
14.7204045
 20
11.370435
 30
0
 10
14.541813
 20
11.031252
 30
0
 10
14.541813
 20
10.8761055
 30
0
  0
SPLINE
  5
A8
100
AcDbEntity
  8
0
  6
ByLayer
 62
    7
370
   -1
100
AcDbSpline
210
0
220
0
230
0
 70
    8
 71
    3
 72
    8
 73
    4
 74
    0
 42
1e-07
 43
1e-07
 40
0
 40
0
 40
0
 40
0
 40
1
 40
1
 40
1
 40
1
 10
14.541813
 20
10.8761055
 30
0
 10
14.541813
 20
10.720959
 30
0
 10
14.420799
 20
10.4603055
 30
0
 10
14.2728975
 20
10.296879
 30
0
  0
SPLINE
  5
A9
100
AcDbEntity
  8
0
  6
ByLayer
 62
    7
370
   -1
100
AcDbSpline
210
0
220
0
230
0
 70
    8
 71
    3
 72
    8
 73
    4
 74
    0
 42
1e-07
 43
1e-07
 40
0
 40
0
 40
0
 40
0
 40
1
 40
1
 40
1
 40
1
 10
14.2728975
 20
10.296879
 30
0
 10
14.018868
 20
10.0161735
 30
0
 10
14.0202585
 20
10.0059765
 30
0
 10
14.2980075
 20
10.11255
 30
0
  0
SPLINE
  5
AA
100
AcDbEntity
  8
0
  6
ByLayer
 62
    7
370
   -1
100
AcDbSpline
210
0
220
0
230
0
 70
    8
 71
    3
 72
    8
 73
    4
 74
    0
 42
1e-07
 43
1e-07
 40
0
 40
0
 40
0
 40
0
 40
1
 40
1
 40
1
 40
1
 10
14.2980075
 20
10.11255
 30
0
 10
14.5602135
 20
10.21317
 30
0
 10
14.581827
 20
10.162635
 30
0
 10
14.497866
 20
9.645242999999999
 30
0
  0
SPLINE
  5
AB
100
AcDbEntity
  8
0
  6
ByLayer
 62
    7
370
   -1
100
AcDbSpline
210
0
220
0
230
0
 70
    8
 71
    3
 72
    8
 73
    4
 74
    0
 42
1e-07
 43
1e-07
 40
0
 40
0
 40
0
 40
0
 40
1
 40
1
 40
1
 40
1
 10
14.497866
 20
9.645242999999999
 30
0
 10
14.43807900000002
 20
9.276819000000001
 30
0
 10
14.472351
 20
9.020899500000002
 30
0
 10
14.59183949999998
 20
8.943945000000001
 30
0
  0
SPLINE
  5
AC
100
AcDbEntity
  8
0
  6
ByLayer
 62
    7
370
   -1
100
AcDbSpline
210
0
220
0
230
0
 70
    8
 71
    3
 72
    8
 73
    4
 74
    0
 42
1e-07
 43
1e-07
 40
0
 40
0
 40
0
 40
0
 40
1
 40
1
 40
1
 40
1
 10
14.59183949999998
 20
8.943945000000001
 30
0
 10
14.7926745
 20
8.814574500000001
 30
0
 10
15.494328
 20
7.861407
 30
0
 10
15.494328
 20
7.717947000000001
 30
0
  0
SPLINE
  5
AD
100
AcDbEntity
  8
0
  6
ByLayer
 62
    7
370
   -1
100
AcDbSpline
210
0
220
0
230
0
 70
    8
 71
    3
 72
    8
 73
    4
 74
    0
 42
1e-07
 43
1e-07
 40
0
 40
0
 40
0
 40
0
 40
1
 40
1
 40
1
 40
1
 10
15.494328
 20
7.717947000000001
 30
0
 10
15.494328
 20
7.6707555
 30
0
 10
15.065703
 20
7.632145500000002
 30
0
 10
14.54183099999999
 20
7.632145500000002
 30
0
  0
SPLINE
  5
AE
100
AcDbEntity
  8
0
  6
ByLayer
 62
    7
370
   -1
100
AcDbSpline
210
0
220
0
230
0
 70
    8
 71
    3
 72
    8
 73
    4
 74
    0
 42
1e-07
 43
1e-07
 40
0
 40
0
 40
0
 40
0
 40
1
 40
1
 40
1
 40
1
 10
14.54183099999999
 20
7.632145500000002
 30
0
 10
13.552254
 20
7.632145500000002
 30
0
 10
12.95433
 20
7.961005500000001
 30
0
 10
12.95433
 20
8.505271499999999
 30
0
  0
SPLINE
  5
AF
100
AcDbEntity
  8
0
  6
ByLayer
 62
    7
370
   -1
100
AcDbSpline
210
0
220
0
230
0
 70
    8
 71
    3
 72
    8
 73
    4
 74
    0
 42
1e-07
 43
1e-07
 40
0
 40
0
 40
0
 40
0
 40
1
 40
1
 40
1
 40
1
 10
12.95433
 20
8.505271499999999
 30
0
 10
12.95433
 20
8.821396500000001
 30
0
 10
12.5381295
 20
8.811366000000001
 30
0
 10
12.415689
 20
8.492266500000001
 30
0
  0
SPLINE
  5
B0
100
AcDbEntity
  8
0
  6
ByLayer
 62
    7
370
   -1
100
AcDbSpline
210
0
220
0
230
0
 70
    8
 71
    3
 72
    8
 73
    4
 74
    0
 42
1e-07
 43
1e-07
 40
0
 40
0
 40
0
 40
0
 40
1
 40
1
 40
1
 40
1
 10
12.415689
 20
8.492266500000001
 30
0
 10
12.286656
 20
8.156013000000002
 30
0
 10
12.294297
 20
8.074166999999997
 30
0
 10
12.445974
 20
8.167906500000003
 30
0
  0
SPLINE
  5
B1
100
AcDbEntity
  8
0
  6
ByLayer
 62
    7
370
   -1
100
AcDbSpline
210
0
220
0
230
0
 70
    8
 71
    3
 72
    8
 73
    4
 74
    0
 42
1e-07
 43
1e-07
 40
0
 40
0
 40
0
 40
0
 40
1
 40
1
 40
1
 40
1
 10
12.445974
 20
8.167906500000003
 30
0
 10
12.5156295
 20
8.210971499999998
 30
0
 10
12.6744885
 20
8.183206499999999
 30
0
 10
12.7990035
 20
8.106261000000002
 30
0
  0
SPLINE
  5
B2
100
AcDbEntity
  8
0
  6
ByLayer
 62
    7
370
   -1
100
AcDbSpline
210
0
220
0
230
0
 70
    8
 71
    3
 72
    8
 73
    4
 74
    0
 42
1e-07
 43
1e-07
 40
0
 40
0
 40
0
 40
0
 40
1
 40
1
 40
1
 40
1
 10
12.7990035
 20
8.106261000000002
 30
0
 10
12.984975
 20
7.9913265
 30
0
 10
12.9552795
 20
7.890157499999999
 30
0
 10
12.6326745
 20
7.539567000000002
 30
0
  0
SPLINE
  5
B3
100
AcDbEntity
  8
0
  6
ByLayer
 62
    7
370
   -1
100
AcDbSpline
210
0
220
0
230
0
 70
    8
 71
    3
 72
    8
 73
    4
 74
    0
 42
1e-07
 43
1e-07
 40
0
 40
0
 40
0
 40
0
 40
1
 40
1
 40
1
 40
1
 10
12.6326745
 20
7.539567000000002
 30
0
 10
12.2466105
 20
7.120014000000001
 30
0
 10
12.2461065
 20
7.115986500000002
 30
0
 10
12.6031545
 20
7.301876999999999
 30
0
  0
SPLINE
  5
B4
100
AcDbEntity
  8
0
  6
ByLayer
 62
    7
370
   -1
100
AcDbSpline
210
0
220
0
230
0
 70
    8
 71
    3
 72
    8
 73
    4
 74
    0
 42
1e-07
 43
1e-07
 40
0
 40
0
 40
0
 40
0
 40
1
 40
1
 40
1
 40
1
 10
12.6031545
 20
7.301876999999999
 30
0
 10
13.082391
 20
7.551388499999998
 30
0
 10
13.41800549999998
 20
7.427143500000001
 30
0
 10
14.063346
 20
6.761323500000001
 30
0
  0
LWPOLYLINE
  5
B5
100
AcDbEntity
  8
0
  6
ByLayer
 62
    7
370
   -1
100
AcDbPolyline
 90
    3
 70
    0
 43
0
 10
6.802807499999997
 20
14.3096955
 10
7.159995000000002
 20
14.3197755
 10
6.812063999999999
 20
14.4599235
  0
SPLINE
  5
B6
100
AcDbEntity
  8
0
  6
ByLayer
 62
    7
370
   -1
100
AcDbSpline
210
0
220
0
230
0
 70
    8
 71
    3
 72
    8
 73
    4
 74
    0
 42
1e-07
 43
1e-07
 40
0
 40
0
 40
0
 40
0
 40
1
 40
1
 40
1
 40
1
 10
14.019075
 20
5.968747499999997
 30
0
 10
13.261113
 20
5.652051
 30
0
 10
13.220748
 20
5.657041499999998
 30
0
 10
12.6490275
 20
6.138113999999998
 30
0
  0
LWPOLYLINE
  5
B7
100
AcDbEntity
  8
0
  6
ByLayer
 62
    7
370
   -1
100
AcDbPolyline
 90
    3
 70
    0
 43
0
 10
14.063346
 20
6.761323500000001
 10
14.597352
 20
6.210365999999999
 10
14.019075
 20
5.968747499999997
  0
SPLINE
  5
B8
100
AcDbEntity
  8
0
  6
ByLayer
 62
    7
370
   -1
100
AcDbSpline
210
0
220
0
230
0
 70
    8
 71
    3
 72
    8
 73
    4
 74
    0
 42
1e-07
 43
1e-07
 40
0
 40
0
 40
0
 40
0
 40
1
 40
1
 40
1
 40
1
 10
12.1605885
 20
6.080149499999997
 30
0
 10
12.1605885
 20
5.822222999999997
 30
0
 10
12.0200535
 20
5.432531999999998
 30
0
 10
11.8482885
 20
5.214169500000002
 30
0
  0
SPLINE
  5
B9
100
AcDbEntity
  8
0
  6
ByLayer
 62
    7
370
   -1
100
AcDbSpline
210
0
220
0
230
0
 70
    8
 71
    3
 72
    8
 73
    4
 74
    0
 42
1e-07
 43
1e-07
 40
0
 40
0
 40
0
 40
0
 40
1
 40
1
 40
1
 40
1
 10
11.8482885
 20
5.214169500000002
 30
0
 10
11.423655
 20
4.674335999999998
 30
0
 10
11.6082585
 20
4.5542265
 30
0
 10
12.102678
 20
5.048650500000003
 30
0
  0
SPLINE
  5
BA
100
AcDbEntity
  8
0
  6
ByLayer
 62
    7
370
   -1
100
AcDbSpline
210
0
220
0
230
0
 70
    8
 71
    3
 72
    8
 73
    4
 74
    0
 42
1e-07
 43
1e-07
 40
0
 40
0
 40
0
 40
0
 40
1
 40
1
 40
1
 40
1
 10
12.102678
 20
5.048650500000003
 30
0
 10
12.4501275
 20
5.396100000000001
 30
0
 10
12.604176
 20
5.437905000000001
 30
0
 10
13.293027
 20
5.371719000000001
 30
0
  0
SPLINE
  5
BB
100
AcDbEntity
  8
0
  6
ByLayer
 62
    7
370
   -1
100
AcDbSpline
210
0
220
0
230
0
 70
    8
 71
    3
 72
    8
 73
    4
 74
    0
 42
1e-07
 43
1e-07
 40
0
 40
0
 40
0
 40
0
 40
1
 40
1
 40
1
 40
1
 10
13.293027
 20
5.371719000000001
 30
0
 10
14.4282195
 20
5.262639
 30
0
 10
14.5617255
 20
5.053420499999998
 30
0
 10
13.9191705
 20
4.390476000000001
 30
0
  0
SPLINE
  5
BC
100
AcDbEntity
  8
0
  6
ByLayer
 62
    7
370
   -1
100
AcDbSpline
210
0
220
0
230
0
 70
    8
 71
    3
 72
    8
 73
    4
 74
    0
 42
1e-07
 43
1e-07
 40
0
 40
0
 40
0
 40
0
 40
1
 40
1
 40
1
 40
1
 10
13.9191705
 20
4.390476000000001
 30
0
 10
13.27298400000002
 20
3.7237785
 30
0
 10
12.732372
 20
3.564266999999999
 30
0
 10
12.23143199999998
 20
3.892492500000001
 30
0
  0
SPLINE
  5
BD
100
AcDbEntity
  8
0
  6
ByLayer
 62
    7
370
   -1
100
AcDbSpline
210
0
220
0
230
0
 70
    8
 71
    3
 72
    8
 73
    4
 74
    0
 42
1e-07
 43
1e-07
 40
0
 40
0
 40
0
 40
0
 40
1
 40
1
 40
1
 40
1
 10
12.23143199999998
 20
3.892492500000001
 30
0
 10
11.699046
 20
4.241328000000001
 30
0
 10
11.60059499999998
 20
3.920302499999998
 30
0
 10
12.089907
 20
3.430990500000002
 30
0
  0
SPLINE
  5
BE
100
AcDbEntity
  8
0
  6
ByLayer
 62
    7
370
   -1
100
AcDbSpline
210
0
220
0
230
0
 70
    8
 71
    3
 72
    8
 73
    4
 74
    0
 42
1e-07
 43
1e-07
 40
0
 40
0
 40
0
 40
0
 40
1
 40
1
 40
1
 40
1
 10
12.089907
 20
3.430990500000002
 30
0
 10
12.543498
 20
2.9773995
 30
0
 10
12.531114
 20
2.611058999999999
 30
0
 10
12.064122
 20
2.668366500000001
 30
0
  0
SPLINE
  5
BF
100
AcDbEntity
  8
0
  6
ByLayer
 62
    7
370
   -1
100
AcDbSpline
210
0
220
0
230
0
 70
    8
 71
    3
 72
    8
 73
    4
 74
    0
 42
1e-07
 43
1e-07
 40
0
 40
0
 40
0
 40
0
 40
1
 40
1
 40
1
 40
1
 10
12.064122
 20
2.668366500000001
 30
0
 10
11.8988955
 20
2.6886615
 30
0
 10
11.499606
 20
2.726529
 30
0
 10
11.1768165
 20
2.752552499999999
 30
0
  0
SPLINE
  5
C0
100
AcDbEntity
  8
0
  6
ByLayer
 62
    7
370
   -1
100
AcDbSpline
210
0
220
0
230
0
 70
    8
 71
    3
 72
    8
 73
    4
 74
    0
 42
1e-07
 43
1e-07
 40
0
 40
0
 40
0
 40
0
 40
1
 40
1
 40
1
 40
1
 10
11.1768165
 20
2.752552499999999
 30
0
 10
10.8540225
 20
2.7785625
 30
0
 10
10.539126
 20
2.850666
 30
0
 10
10.47704850000002
 20
2.912748
 30
0
  0
SPLINE
  5
C1
100
AcDbEntity
  8
0
  6
ByLayer
 62
    7
370
   -1
100
AcDbSpline
210
0
220
0
230
0
 70
    8
 71
    3
 72
    8
 73
    4
 74
    0
 42
1e-07
 43
1e-07
 40
0
 40
0
 40
0
 40
0
 40
1
 40
1
 40
1
 40
1
 10
10.47704850000002
 20
2.912748
 30
0
 10
10.4149665
 20
2.974829999999999
 30
0
 10
10.2628575
 20
2.941547999999999
 30
0
 10
10.1390265
 20
2.838772499999999
 30
0
  0
SPLINE
  5
C2
100
AcDbEntity
  8
0
  6
ByLayer
 62
    7
370
   -1
100
AcDbSpline
210
0
220
0
230
0
 70
    8
 71
    3
 72
    8
 73
    4
 74
    0
 42
1e-07
 43
1e-07
 40
0
 40
0
 40
0
 40
0
 40
1
 40
1
 40
1
 40
1
 10
10.1390265
 20
2.838772499999999
 30
0
 10
9.848551499999996
 20
2.597698500000001
 30
0
 10
9.586250999999997
 20
2.951029499999999
 30
0
 10
9.674190000000003
 20
3.464938499999999
 30
0
  0
SPLINE
  5
C3
100
AcDbEntity
  8
0
  6
ByLayer
 62
    7
370
   -1
100
AcDbSpline
210
0
220
0
230
0
 70
    8
 71
    3
 72
    8
 73
    4
 74
    0
 42
1e-07
 43
1e-07
 40
0
 40
0
 40
0
 40
0
 40
1
 40
1
 40
1
 40
1
 10
9.674190000000003
 20
3.464938499999999
 30
0
 10
9.707805000000004
 20
3.661395000000002
 30
0
 10
9.691650000000003
 20
3.821032499999999
 30
0
 10
9.638235000000005
 20
3.819696
 30
0
  0
SPLINE
  5
C4
100
AcDbEntity
  8
0
  6
ByLayer
 62
    7
370
   -1
100
AcDbSpline
210
0
220
0
230
0
 70
    8
 71
    3
 72
    8
 73
    4
 74
    0
 42
1e-07
 43
1e-07
 40
0
 40
0
 40
0
 40
0
 40
1
 40
1
 40
1
 40
1
 10
9.638235000000005
 20
3.819696
 30
0
 10
9.333886500000002
 20
3.812091000000001
 30
0
 10
9.136323000000001
 20
3.475549499999998
 30
0
 10
8.983799999999995
 20
2.704947
 30
0
  0
SPLINE
  5
C5
100
AcDbEntity
  8
0
  6
ByLayer
 62
    7
370
   -1
100
AcDbSpline
210
0
220
0
230
0
 70
    8
 71
    3
 72
    8
 73
    4
 74
    0
 42
1e-07
 43
1e-07
 40
0
 40
0
 40
0
 40
0
 40
1
 40
1
 40
1
 40
1
 10
8.983799999999995
 20
2.704947
 30
0
 10
8.68397850000002
 20
1.190121
 30
0
 10
8.664660000000001
 20
1.123377
 30
0
 10
8.525965499999998
 20
1.123377
 30
0
  0
SPLINE
  5
C6
100
AcDbEntity
  8
0
  6
ByLayer
 62
    7
370
   -1
100
AcDbSpline
210
0
220
0
230
0
 70
    8
 71
    3
 72
    8
 73
    4
 74
    0
 42
1e-07
 43
1e-07
 40
0
 40
0
 40
0
 40
0
 40
1
 40
1
 40
1
 40
1
 10
8.525965499999998
 20
1.123377
 30
0
 10
8.4511395
 20
1.123377
 30
0
 10
8.485690500000004
 20
1.569862500000001
 30
0
 10
8.602789500000004
 20
2.115563999999999
 30
0
  0
LWPOLYLINE
  5
C7
100
AcDbEntity
  8
0
  6
ByLayer
 62
    7
370
   -1
100
AcDbPolyline
 90
    3
 70
    0
 43
0
 10
12.6490275
 20
6.138113999999998
 10
12.1605885
 20
6.549103499999999
 10
12.1605885
 20
6.080149499999997
  0
SPLINE
  5
C8
100
AcDbEntity
  8
0
  6
ByLayer
 62
    7
370
   -1
100
AcDbSpline
210
0
220
0
230
0
 70
    8
 71
    3
 72
    8
 73
    4
 74
    0
 42
1e-07
 43
1e-07
 40
0
 40
0
 40
0
 40
0
 40
1
 40
1
 40
1
 40
1
 10
9.850792499999997
 20
4.157470500000002
 30
0
 10
9.933741000000005
 20
4.234969499999998
 30
0
 10
10.1346165
 20
4.298379000000001
 30
0
 10
10.2971835
 20
4.298379000000001
 30
0
  0
SPLINE
  5
C9
100
AcDbEntity
  8
0
  6
ByLayer
 62
    7
370
   -1
100
AcDbSpline
210
0
220
0
230
0
 70
    8
 71
    3
 72
    8
 73
    4
 74
    0
 42
1e-07
 43
1e-07
 40
0
 40
0
 40
0
 40
0
 40
1
 40
1
 40
1
 40
1
 10
10.2971835
 20
4.298379000000001
 30
0
 10
10.459746
 20
4.298379000000001
 30
0
 10
10.7524485
 20
4.418830499999999
 30
0
 10
10.947627
 20
4.566057000000001
 30
0
  0
SPLINE
  5
CA
100
AcDbEntity
  8
0
  6
ByLayer
 62
    7
370
   -1
100
AcDbSpline
210
0
220
0
230
0
 70
    8
 71
    3
 72
    8
 73
    4
 74
    0
 42
1e-07
 43
1e-07
 40
0
 40
0
 40
0
 40
0
 40
1
 40
1
 40
1
 40
1
 10
10.947627
 20
4.566057000000001
 30
0
 10
11.2982895
 20
4.830558000000002
 30
0
 10
11.299113
 20
4.840372500000003
 30
0
 10
11.0171745
 20
5.393373
 30
0
  0
SPLINE
  5
CB
100
AcDbEntity
  8
0
  6
ByLayer
 62
    7
370
   -1
100
AcDbSpline
210
0
220
0
230
0
 70
    8
 71
    3
 72
    8
 73
    4
 74
    0
 42
1e-07
 43
1e-07
 40
0
 40
0
 40
0
 40
0
 40
1
 40
1
 40
1
 40
1
 10
11.0171745
 20
5.393373
 30
0
 10
10.6542225
 20
6.105286500000002
 30
0
 10
10.65882149999999
 20
6.289089000000001
 30
0
 10
11.0493495
 20
6.679626000000001
 30
0
  0
SPLINE
  5
CC
100
AcDbEntity
  8
0
  6
ByLayer
 62
    7
370
   -1
100
AcDbSpline
210
0
220
0
230
0
 70
    8
 71
    3
 72
    8
 73
    4
 74
    0
 42
1e-07
 43
1e-07
 40
0
 40
0
 40
0
 40
0
 40
1
 40
1
 40
1
 40
1
 10
11.0493495
 20
6.679626000000001
 30
0
 10
11.247138
 20
6.877414499999999
 30
0
 10
11.290383
 20
6.997128
 30
0
 10
11.1640455
 20
6.997128
 30
0
  0
SPLINE
  5
CD
100
AcDbEntity
  8
0
  6
ByLayer
 62
    7
370
   -1
100
AcDbSpline
210
0
220
0
230
0
 70
    8
 71
    3
 72
    8
 73
    4
 74
    0
 42
1e-07
 43
1e-07
 40
0
 40
0
 40
0
 40
0
 40
1
 40
1
 40
1
 40
1
 10
11.1640455
 20
6.997128
 30
0
 10
10.5248385
 20
6.997128
 30
0
 10
8.985595500000002
 20
5.087485499999998
 30
0
 10
8.985595500000002
 20
4.2944595
 30
0
  0
SPLINE
  5
CE
100
AcDbEntity
  8
0
  6
ByLayer
 62
    7
370
   -1
100
AcDbSpline
210
0
220
0
230
0
 70
    8
 71
    3
 72
    8
 73
    4
 74
    0
 42
1e-07
 43
1e-07
 40
0
 40
0
 40
0
 40
0
 40
1
 40
1
 40
1
 40
1
 10
8.985595500000002
 20
4.2944595
 30
0
 10
8.985595500000002
 20
3.856303499999997
 30
0
 10
9.025825500000003
 20
3.8128785
 30
0
 10
9.342787499999996
 20
3.908647500000002
 30
0
  0
SPLINE
  5
CF
100
AcDbEntity
  8
0
  6
ByLayer
 62
    7
370
   -1
100
AcDbSpline
210
0
220
0
230
0
 70
    8
 71
    3
 72
    8
 73
    4
 74
    0
 42
1e-07
 43
1e-07
 40
0
 40
0
 40
0
 40
0
 40
1
 40
1
 40
1
 40
1
 10
9.342787499999996
 20
3.908647500000002
 30
0
 10
9.539239500000001
 20
3.968002499999999
 30
0
 10
9.767839500000001
 20
4.079971500000001
 30
0
 10
9.850783499999999
 20
4.157470500000002
 30
0
  0
LWPOLYLINE
  5
D0
100
AcDbEntity
  8
0
  6
ByLayer
 62
    7
370
   -1
100
AcDbPolyline
 90
    1
 70
    1
 43
0
 10
8.602789500000004
 20
2.115563999999999
  0
SPLINE
  5
D1
100
AcDbEntity
  8
0
  6
ByLayer
 62
    7
370
   -1
100
AcDbSpline
210
0
220
0
230
0
 70
    8
 71
    3
 72
    8
 73
    4
 74
    0
 42
1e-07
 43
1e-07
 40
0
 40
0
 40
0
 40
0
 40
1
 40
1
 40
1
 40
1
 10
9.143748000000002
 20
5.408492999999998
 30
0
 10
9.300968999999998
 20
5.702261999999997
 30
0
 10
9.284714999999981
 20
5.711941499999998
 30
0
 10
8.916187499999999
 20
5.5440285
 30
0
  0
SPLINE
  5
D2
100
AcDbEntity
  8
0
  6
ByLayer
 62
    7
370
   -1
100
AcDbSpline
210
0
220
0
230
0
 70
    8
 71
    3
 72
    8
 73
    4
 74
    0
 42
1e-07
 43
1e-07
 40
0
 40
0
 40
0
 40
0
 40
1
 40
1
 40
1
 40
1
 10
8.916187499999999
 20
5.5440285
 30
0
 10
8.697905999999996
 20
5.444573999999998
 30
0
 10
8.557006499999996
 20
5.302207499999998
 30
0
 10
8.603077500000001
 20
5.227664999999998
 30
0
  0
SPLINE
  5
D3
100
AcDbEntity
  8
0
  6
ByLayer
 62
    7
370
   -1
100
AcDbSpline
210
0
220
0
230
0
 70
    8
 71
    3
 72
    8
 73
    4
 74
    0
 42
1e-07
 43
1e-07
 40
0
 40
0
 40
0
 40
0
 40
1
 40
1
 40
1
 40
1
 10
8.603077500000001
 20
5.227664999999998
 30
0
 10
8.743261499999996
 20
5.000842499999997
 30
0
 10
8.965327500000004
 20
5.075115000000002
 30
0
 10
9.143748000000002
 20
5.408492999999998
 30
0
  0
LWPOLYLINE
  5
D4
100
AcDbEntity
  8
0
  6
ByLayer
 62
    7
370
   -1
100
AcDbPolyline
 90
    1
 70
    1
 43
0
 10
9.850783499999999
 20
4.157470500000002
  0
SPLINE
  5
D5
100
AcDbEntity
  8
0
  6
ByLayer
 62
    7
370
   -1
100
AcDbSpline
210
0
220
0
230
0
 70
    8
 71
    3
 72
    8
 73
    4
 74
    0
 42
1e-07
 43
1e-07
 40
0
 40
0
 40
0
 40
0
 40
1
 40
1
 40
1
 40
1
 10
6.445606500000004
 20
5.727129000000001
 30
0
 10
6.445606500000004
 20
5.814437999999999
 30
0
 10
6.338452499999995
 20
5.885875499999999
 30
0
 10
6.20748
 20
5.885875499999999
 30
0
  0
SPLINE
  5
D6
100
AcDbEntity
  8
0
  6
ByLayer
 62
    7
370
   -1
100
AcDbSpline
210
0
220
0
230
0
 70
    8
 71
    3
 72
    8
 73
    4
 74
    0
 42
1e-07
 43
1e-07
 40
0
 40
0
 40
0
 40
0
 40
1
 40
1
 40
1
 40
1
 10
6.20748
 20
5.885875499999999
 30
0
 10
6.076512000000005
 20
5.885875499999999
 30
0
 10
5.969357999999996
 20
5.814437999999999
 30
0
 10
5.969357999999996
 20
5.727129000000001
 30
0
  0
SPLINE
  5
D7
100
AcDbEntity
  8
0
  6
ByLayer
 62
    7
370
   -1
100
AcDbSpline
210
0
220
0
230
0
 70
    8
 71
    3
 72
    8
 73
    4
 74
    0
 42
1e-07
 43
1e-07
 40
0
 40
0
 40
0
 40
0
 40
1
 40
1
 40
1
 40
1
 10
5.969357999999996
 20
5.727129000000001
 30
0
 10
5.969357999999996
 20
5.639815499999999
 30
0
 10
6.076512000000005
 20
5.568377999999999
 30
0
 10
6.20748
 20
5.568377999999999
 30
0
  0
SPLINE
  5
D8
100
AcDbEntity
  8
0
  6
ByLayer
 62
    7
370
   -1
100
AcDbSpline
210
0
220
0
230
0
 70
    8
 71
    3
 72
    8
 73
    4
 74
    0
 42
1e-07
 43
1e-07
 40
0
 40
0
 40
0
 40
0
 40
1
 40
1
 40
1
 40
1
 10
6.20748
 20
5.568377999999999
 30
0
 10
6.338452499999995
 20
5.568377999999999
 30
0
 10
6.445606500000004
 20
5.639815499999999
 30
0
 10
6.445606500000004
 20
5.727129000000001
 30
0
  0
LWPOLYLINE
  5
D9
100
AcDbEntity
  8
0
  6
ByLayer
 62
    7
370
   -1
100
AcDbPolyline
 90
    1
 70
    1
 43
0
 10
9.143748000000002
 20
5.408492999999998
  0
SPLINE
  5
DA
100
AcDbEntity
  8
0
  6
ByLayer
 62
    7
370
   -1
100
AcDbSpline
210
0
220
0
230
0
 70
    8
 71
    3
 72
    8
 73
    4
 74
    0
 42
1e-07
 43
1e-07
 40
0
 40
0
 40
0
 40
0
 40
1
 40
1
 40
1
 40
1
 10
7.392618000000002
 20
6.054877499999998
 30
0
 10
7.244945999999995
 20
6.330803999999999
 30
0
 10
7.177986000000004
 20
6.350068499999999
 30
0
 10
6.969091500000005
 20
6.1767015
 30
0
  0
SPLINE
  5
DB
100
AcDbEntity
  8
0
  6
ByLayer
 62
    7
370
   -1
100
AcDbSpline
210
0
220
0
230
0
 70
    8
 71
    3
 72
    8
 73
    4
 74
    0
 42
1e-07
 43
1e-07
 40
0
 40
0
 40
0
 40
0
 40
1
 40
1
 40
1
 40
1
 10
6.969091500000005
 20
6.1767015
 30
0
 10
6.749666999999999
 20
5.994600000000002
 30
0
 10
6.764724000000001
 20
5.958514499999998
 30
0
 10
7.099222500000003
 20
5.864774999999998
 30
0
  0
SPLINE
  5
DC
100
AcDbEntity
  8
0
  6
ByLayer
 62
    7
370
   -1
100
AcDbSpline
210
0
220
0
230
0
 70
    8
 71
    3
 72
    8
 73
    4
 74
    0
 42
1e-07
 43
1e-07
 40
0
 40
0
 40
0
 40
0
 40
1
 40
1
 40
1
 40
1
 10
7.099222500000003
 20
5.864774999999998
 30
0
 10
7.307266499999997
 20
5.806477500000002
 30
0
 10
7.497855000000001
 20
5.751654
 30
0
 10
7.5227535
 20
5.742951000000001
 30
0
  0
SPLINE
  5
DD
100
AcDbEntity
  8
0
  6
ByLayer
 62
    7
370
   -1
100
AcDbSpline
210
0
220
0
230
0
 70
    8
 71
    3
 72
    8
 73
    4
 74
    0
 42
1e-07
 43
1e-07
 40
0
 40
0
 40
0
 40
0
 40
1
 40
1
 40
1
 40
1
 10
7.5227535
 20
5.742951000000001
 30
0
 10
7.547638500000001
 20
5.734266
 30
0
 10
7.489093499999996
 20
5.874612000000001
 30
0
 10
7.392618000000002
 20
6.054877499999998
 30
0
  0
LWPOLYLINE
  5
DE
100
AcDbEntity
  8
0
  6
ByLayer
 62
    7
370
   -1
100
AcDbPolyline
 90
    1
 70
    1
 43
0
 10
6.445606500000004
 20
5.727129000000001
  0
SPLINE
  5
DF
100
AcDbEntity
  8
0
  6
ByLayer
 62
    7
370
   -1
100
AcDbSpline
210
0
220
0
230
0
 70
    8
 71
    3
 72
    8
 73
    4
 74
    0
 42
1e-07
 43
1e-07
 40
0
 40
0
 40
0
 40
0
 40
1
 40
1
 40
1
 40
1
 10
8.997129000000001
 20
6.679626000000001
 30
0
 10
9.567175500000005
 20
6.679626000000001
 30
0
 10
9.620608499999999
 20
6.715985999999999
 30
0
 10
9.620608499999999
 20
7.104173999999999
 30
0
  0
LWPOLYLINE
  5
E0
100
AcDbEntity
  8
0
  6
ByLayer
 62
    7
370
   -1
100
AcDbPolyline
 90
    1
 70
    1
 43
0
 10
7.392618000000002
 20
6.054877499999998
  0
SPLINE
  5
E1
100
AcDbEntity
  8
0
  6
ByLayer
 62
    7
370
   -1
100
AcDbSpline
210
0
220
0
230
0
 70
    8
 71
    3
 72
    8
 73
    4
 74
    0
 42
1e-07
 43
1e-07
 40
0
 40
0
 40
0
 40
0
 40
1
 40
1
 40
1
 40
1
 10
9.230409000000005
 20
7.162152000000003
 30
0
 10
8.904964499999995
 20
6.856412999999998
 30
0
 10
8.720559000000005
 20
6.8090685
 30
0
 10
8.119160999999998
 20
6.876852000000001
 30
0
  0
SPLINE
  5
E2
100
AcDbEntity
  8
0
  6
ByLayer
 62
    7
370
   -1
100
AcDbSpline
210
0
220
0
230
0
 70
    8
 71
    3
 72
    8
 73
    4
 74
    0
 42
1e-07
 43
1e-07
 40
0
 40
0
 40
0
 40
0
 40
1
 40
1
 40
1
 40
1
 10
8.119160999999998
 20
6.876852000000001
 30
0
 10
7.343176500000002
 20
6.964318500000001
 30
0
 10
7.216452000000004
 20
6.807443999999998
 30
0
 10
7.585595999999995
 20
6.216351000000001
 30
0
  0
SPLINE
  5
E3
100
AcDbEntity
  8
0
  6
ByLayer
 62
    7
370
   -1
100
AcDbSpline
210
0
220
0
230
0
 70
    8
 71
    3
 72
    8
 73
    4
 74
    0
 42
1e-07
 43
1e-07
 40
0
 40
0
 40
0
 40
0
 40
1
 40
1
 40
1
 40
1
 10
7.585595999999995
 20
6.216351000000001
 30
0
 10
7.765731000000002
 20
5.927910000000001
 30
0
 10
7.784864999999996
 20
5.931105000000002
 30
0
 10
8.073368999999982
 20
6.297877500000002
 30
0
  0
SPLINE
  5
E4
100
AcDbEntity
  8
0
  6
ByLayer
 62
    7
370
   -1
100
AcDbSpline
210
0
220
0
230
0
 70
    8
 71
    3
 72
    8
 73
    4
 74
    0
 42
1e-07
 43
1e-07
 40
0
 40
0
 40
0
 40
0
 40
1
 40
1
 40
1
 40
1
 10
8.073368999999982
 20
6.297877500000002
 30
0
 10
8.299430999999995
 20
6.585270000000001
 30
0
 10
8.527756499999995
 20
6.679626000000001
 30
0
 10
8.997129000000001
 20
6.679626000000001
 30
0
  0
LWPOLYLINE
  5
E5
100
AcDbEntity
  8
0
  6
ByLayer
 62
    7
370
   -1
100
AcDbPolyline
 90
    3
 70
    0
 43
0
 10
9.620608499999999
 20
7.104173999999999
 10
9.620608499999999
 20
7.528722000000002
 10
9.230409000000005
 20
7.162152000000003
  0
SPLINE
  5
E6
100
AcDbEntity
  8
0
  6
ByLayer
 62
    7
370
   -1
100
AcDbSpline
210
0
220
0
230
0
 70
    8
 71
    3
 72
    8
 73
    4
 74
    0
 42
1e-07
 43
1e-07
 40
0
 40
0
 40
0
 40
0
 40
1
 40
1
 40
1
 40
1
 10
3.354183000000003
 20
6.490216499999999
 30
0
 10
3.305304
 20
6.539095500000002
 30
0
 10
3.177207000000003
 20
6.490319999999999
 30
0
 10
3.069522000000003
 20
6.381824999999997
 30
0
  0
SPLINE
  5
E7
100
AcDbEntity
  8
0
  6
ByLayer
 62
    7
370
   -1
100
AcDbSpline
210
0
220
0
230
0
 70
    8
 71
    3
 72
    8
 73
    4
 74
    0
 42
1e-07
 43
1e-07
 40
0
 40
0
 40
0
 40
0
 40
1
 40
1
 40
1
 40
1
 10
3.069522000000003
 20
6.381824999999997
 30
0
 10
2.913907500000001
 20
6.225040500000002
 30
0
 10
2.932141500000002
 20
6.206806500000001
 30
0
 10
3.158392500000001
 20
6.292958999999998
 30
0
  0
SPLINE
  5
E8
100
AcDbEntity
  8
0
  6
ByLayer
 62
    7
370
   -1
100
AcDbSpline
210
0
220
0
230
0
 70
    8
 71
    3
 72
    8
 73
    4
 74
    0
 42
1e-07
 43
1e-07
 40
0
 40
0
 40
0
 40
0
 40
1
 40
1
 40
1
 40
1
 10
3.158392500000001
 20
6.292958999999998
 30
0
 10
3.314952000000005
 20
6.352575000000002
 30
0
 10
3.403057499999996
 20
6.441342000000001
 30
0
 10
3.354183000000003
 20
6.490216499999999
 30
0
  0
LWPOLYLINE
  5
E9
100
AcDbEntity
  8
0
  6
ByLayer
 62
    7
370
   -1
100
AcDbPolyline
 90
    1
 70
    1
 43
0
 10
8.997129000000001
 20
6.679626000000001
  0
SPLINE
  5
EA
100
AcDbEntity
  8
0
  6
ByLayer
 62
    7
370
   -1
100
AcDbSpline
210
0
220
0
230
0
 70
    8
 71
    3
 72
    8
 73
    4
 74
    0
 42
1e-07
 43
1e-07
 40
0
 40
0
 40
0
 40
0
 40
1
 40
1
 40
1
 40
1
 10
4.104044999999999
 20
6.626013000000002
 30
0
 10
3.994902000000003
 20
6.670068000000002
 30
0
 10
3.8163105
 20
6.670068000000002
 30
0
 10
3.707167500000004
 20
6.626013000000002
 30
0
  0
SPLINE
  5
EB
100
AcDbEntity
  8
0
  6
ByLayer
 62
    7
370
   -1
100
AcDbSpline
210
0
220
0
230
0
 70
    8
 71
    3
 72
    8
 73
    4
 74
    0
 42
1e-07
 43
1e-07
 40
0
 40
0
 40
0
 40
0
 40
1
 40
1
 40
1
 40
1
 10
3.707167500000004
 20
6.626013000000002
 30
0
 10
3.598028999999997
 20
6.581958000000002
 30
0
 10
3.687322500000004
 20
6.545944499999997
 30
0
 10
3.905608499999996
 20
6.545944499999997
 30
0
  0
SPLINE
  5
EC
100
AcDbEntity
  8
0
  6
ByLayer
 62
    7
370
   -1
100
AcDbSpline
210
0
220
0
230
0
 70
    8
 71
    3
 72
    8
 73
    4
 74
    0
 42
1e-07
 43
1e-07
 40
0
 40
0
 40
0
 40
0
 40
1
 40
1
 40
1
 40
1
 10
3.905608499999996
 20
6.545944499999997
 30
0
 10
4.1238855
 20
6.545944499999997
 30
0
 10
4.213183499999996
 20
6.581989500000002
 30
0
 10
4.104044999999999
 20
6.626013000000002
 30
0
  0
LWPOLYLINE
  5
ED
100
AcDbEntity
  8
0
  6
ByLayer
 62
    7
370
   -1
100
AcDbPolyline
 90
    1
 70
    1
 43
0
 10
3.354183000000003
 20
6.490216499999999
  0
SPLINE
  5
EE
100
AcDbEntity
  8
0
  6
ByLayer
 62
    7
370
   -1
100
AcDbSpline
210
0
220
0
230
0
 70
    8
 71
    3
 72
    8
 73
    4
 74
    0
 42
1e-07
 43
1e-07
 40
0
 40
0
 40
0
 40
0
 40
1
 40
1
 40
1
 40
1
 10
10.255608
 20
7.015866000000003
 30
0
 10
10.255608
 20
7.190488500000003
 30
0
 10
10.1841705
 20
7.289214000000001
 30
0
 10
10.096857
 20
7.235254499999998
 30
0
  0
SPLINE
  5
EF
100
AcDbEntity
  8
0
  6
ByLayer
 62
    7
370
   -1
100
AcDbSpline
210
0
220
0
230
0
 70
    8
 71
    3
 72
    8
 73
    4
 74
    0
 42
1e-07
 43
1e-07
 40
0
 40
0
 40
0
 40
0
 40
1
 40
1
 40
1
 40
1
 10
10.096857
 20
7.235254499999998
 30
0
 10
10.0095435
 20
7.181290500000001
 30
0
 10
9.938106000000005
 20
6.994266
 30
0
 10
9.938106000000005
 20
6.819639
 30
0
  0
SPLINE
  5
F0
100
AcDbEntity
  8
0
  6
ByLayer
 62
    7
370
   -1
100
AcDbSpline
210
0
220
0
230
0
 70
    8
 71
    3
 72
    8
 73
    4
 74
    0
 42
1e-07
 43
1e-07
 40
0
 40
0
 40
0
 40
0
 40
1
 40
1
 40
1
 40
1
 10
9.938106000000005
 20
6.819639
 30
0
 10
9.938106000000005
 20
6.645016500000001
 30
0
 10
10.0095435
 20
6.546291000000002
 30
0
 10
10.096857
 20
6.6002505
 30
0
  0
SPLINE
  5
F1
100
AcDbEntity
  8
0
  6
ByLayer
 62
    7
370
   -1
100
AcDbSpline
210
0
220
0
230
0
 70
    8
 71
    3
 72
    8
 73
    4
 74
    0
 42
1e-07
 43
1e-07
 40
0
 40
0
 40
0
 40
0
 40
1
 40
1
 40
1
 40
1
 10
10.096857
 20
6.6002505
 30
0
 10
10.1841705
 20
6.654214500000002
 30
0
 10
10.255608
 20
6.841238999999998
 30
0
 10
10.255608
 20
7.015866000000003
 30
0
  0
LWPOLYLINE
  5
F2
100
AcDbEntity
  8
0
  6
ByLayer
 62
    7
370
   -1
100
AcDbPolyline
 90
    1
 70
    1
 43
0
 10
4.104044999999999
 20
6.626013000000002
  0
SPLINE
  5
F3
100
AcDbEntity
  8
0
  6
ByLayer
 62
    7
370
   -1
100
AcDbSpline
210
0
220
0
230
0
 70
    8
 71
    3
 72
    8
 73
    4
 74
    0
 42
1e-07
 43
1e-07
 40
0
 40
0
 40
0
 40
0
 40
1
 40
1
 40
1
 40
1
 10
9.884492999999996
 20
7.989315
 30
0
 10
9.840437999999995
 20
8.098453500000002
 30
0
 10
9.804419999999997
 20
8.00916
 30
0
 10
9.804419999999997
 20
7.790878500000002
 30
0
  0
SPLINE
  5
F4
100
AcDbEntity
  8
0
  6
ByLayer
 62
    7
370
   -1
100
AcDbSpline
210
0
220
0
230
0
 70
    8
 71
    3
 72
    8
 73
    4
 74
    0
 42
1e-07
 43
1e-07
 40
0
 40
0
 40
0
 40
0
 40
1
 40
1
 40
1
 40
1
 10
9.804419999999997
 20
7.790878500000002
 30
0
 10
9.804419999999997
 20
7.572596999999998
 30
0
 10
9.840465000000002
 20
7.483299000000002
 30
0
 10
9.884492999999996
 20
7.592441999999998
 30
0
  0
SPLINE
  5
F5
100
AcDbEntity
  8
0
  6
ByLayer
 62
    7
370
   -1
100
AcDbSpline
210
0
220
0
230
0
 70
    8
 71
    3
 72
    8
 73
    4
 74
    0
 42
1e-07
 43
1e-07
 40
0
 40
0
 40
0
 40
0
 40
1
 40
1
 40
1
 40
1
 10
9.884492999999996
 20
7.592441999999998
 30
0
 10
9.928547999999996
 20
7.7015805
 30
0
 10
9.928547999999996
 20
7.880176499999997
 30
0
 10
9.884492999999996
 20
7.989315
 30
0
  0
LWPOLYLINE
  5
F6
100
AcDbEntity
  8
0
  6
ByLayer
 62
    7
370
   -1
100
AcDbPolyline
 90
    1
 70
    1
 43
0
 10
10.255608
 20
7.015866000000003
  0
SPLINE
  5
F7
100
AcDbEntity
  8
0
  6
ByLayer
 62
    7
370
   -1
100
AcDbSpline
210
0
220
0
230
0
 70
    8
 71
    3
 72
    8
 73
    4
 74
    0
 42
1e-07
 43
1e-07
 40
0
 40
0
 40
0
 40
0
 40
1
 40
1
 40
1
 40
1
 10
7.189051500000001
 20
8.138143500000002
 30
0
 10
7.138372500000003
 20
8.264782500000003
 30
0
 10
7.100757000000019
 20
8.227166999999998
 30
0
 10
7.093138499999995
 20
8.042230500000001
 30
0
  0
SPLINE
  5
F8
100
AcDbEntity
  8
0
  6
ByLayer
 62
    7
370
   -1
100
AcDbSpline
210
0
220
0
230
0
 70
    8
 71
    3
 72
    8
 73
    4
 74
    0
 42
1e-07
 43
1e-07
 40
0
 40
0
 40
0
 40
0
 40
1
 40
1
 40
1
 40
1
 10
7.093138499999995
 20
8.042230500000001
 30
0
 10
7.086253500000005
 20
7.874884499999999
 30
0
 10
7.123783500000002
 20
7.781122500000002
 30
0
 10
7.176518999999999
 20
7.833871500000003
 30
0
  0
SPLINE
  5
F9
100
AcDbEntity
  8
0
  6
ByLayer
 62
    7
370
   -1
100
AcDbSpline
210
0
220
0
230
0
 70
    8
 71
    3
 72
    8
 73
    4
 74
    0
 42
1e-07
 43
1e-07
 40
0
 40
0
 40
0
 40
0
 40
1
 40
1
 40
1
 40
1
 10
7.176518999999999
 20
7.833871500000003
 30
0
 10
7.229268000000005
 20
7.886620499999998
 30
0
 10
7.234906499999997
 20
8.0235465
 30
0
 10
7.189029000000005
 20
8.138143500000002
 30
0
  0
LWPOLYLINE
  5
FA
100
AcDbEntity
  8
0
  6
ByLayer
 62
    7
370
   -1
100
AcDbPolyline
 90
    1
 70
    1
 43
0
 10
9.884492999999996
 20
7.989315
  0
SPLINE
  5
FB
100
AcDbEntity
  8
0
  6
ByLayer
 62
    7
370
   -1
100
AcDbSpline
210
0
220
0
230
0
 70
    8
 71
    3
 72
    8
 73
    4
 74
    0
 42
1e-07
 43
1e-07
 40
0
 40
0
 40
0
 40
0
 40
1
 40
1
 40
1
 40
1
 10
8.610399000000019
 20
8.583648000000002
 30
0
 10
8.859838500000002
 20
8.584548
 30
0
 10
8.966758500000005
 20
8.701723499999998
 30
0
 10
9.014530499999999
 20
9.027230999999999
 30
0
  0
LWPOLYLINE
  5
FC
100
AcDbEntity
  8
0
  6
ByLayer
 62
    7
370
   -1
100
AcDbPolyline
 90
    1
 70
    1
 43
0
 10
7.189029000000005
 20
8.138143500000002
  0
SPLINE
  5
FD
100
AcDbEntity
  8
0
  6
ByLayer
 62
    7
370
   -1
100
AcDbSpline
210
0
220
0
230
0
 70
    8
 71
    3
 72
    8
 73
    4
 74
    0
 42
1e-07
 43
1e-07
 40
0
 40
0
 40
0
 40
0
 40
1
 40
1
 40
1
 40
1
 10
8.522734500000002
 20
9.185977500000002
 30
0
 10
8.216514000000004
 20
9.029858999999998
 30
0
 10
7.881565500000018
 20
8.902126499999998
 30
0
 10
7.778398500000005
 20
8.902126499999998
 30
0
  0
SPLINE
  5
FE
100
AcDbEntity
  8
0
  6
ByLayer
 62
    7
370
   -1
100
AcDbSpline
210
0
220
0
230
0
 70
    8
 71
    3
 72
    8
 73
    4
 74
    0
 42
1e-07
 43
1e-07
 40
0
 40
0
 40
0
 40
0
 40
1
 40
1
 40
1
 40
1
 10
7.778398500000005
 20
8.902126499999998
 30
0
 10
7.600959000000003
 20
8.902126499999998
 30
0
 10
7.398107999999997
 20
8.561503499999999
 30
0
 10
7.398107999999997
 20
8.263558500000002
 30
0
  0
SPLINE
  5
FF
100
AcDbEntity
  8
0
  6
ByLayer
 62
    7
370
   -1
100
AcDbSpline
210
0
220
0
230
0
 70
    8
 71
    3
 72
    8
 73
    4
 74
    0
 42
1e-07
 43
1e-07
 40
0
 40
0
 40
0
 40
0
 40
1
 40
1
 40
1
 40
1
 10
7.398107999999997
 20
8.263558500000002
 30
0
 10
7.398107999999997
 20
8.188565999999998
 30
0
 10
7.594560000000001
 20
8.229673500000001
 30
0
 10
7.834671000000004
 20
8.354939999999997
 30
0
  0
SPLINE
  5
100
100
AcDbEntity
  8
0
  6
ByLayer
 62
    7
370
   -1
100
AcDbSpline
210
0
220
0
230
0
 70
    8
 71
    3
 72
    8
 73
    4
 74
    0
 42
1e-07
 43
1e-07
 40
0
 40
0
 40
0
 40
0
 40
1
 40
1
 40
1
 40
1
 10
7.834671000000004
 20
8.354939999999997
 30
0
 10
8.074777499999996
 20
8.480193000000002
 30
0
 10
8.4238605
 20
8.5831125
 30
0
 10
8.610399000000019
 20
8.583648000000002
 30
0
  0
LWPOLYLINE
  5
101
100
AcDbEntity
  8
0
  6
ByLayer
 62
    7
370
   -1
100
AcDbPolyline
 90
    3
 70
    0
 43
0
 10
9.014530499999999
 20
9.027230999999999
 10
9.079492500000004
 20
9.4698285
 10
8.522734500000002
 20
9.185977500000002
  0
SPLINE
  5
102
100
AcDbEntity
  8
0
  6
ByLayer
 62
    7
370
   -1
100
AcDbSpline
210
0
220
0
230
0
 70
    8
 71
    3
 72
    8
 73
    4
 74
    0
 42
1e-07
 43
1e-07
 40
0
 40
0
 40
0
 40
0
 40
1
 40
1
 40
1
 40
1
 10
13.4091585
 20
10.0523805
 30
0
 10
13.002102
 20
10.2029595
 30
0
 10
12.795606
 20
10.0823055
 30
0
 10
12.795606
 20
9.6938925
 30
0
  0
SPLINE
  5
103
100
AcDbEntity
  8
0
  6
ByLayer
 62
    7
370
   -1
100
AcDbSpline
210
0
220
0
230
0
 70
    8
 71
    3
 72
    8
 73
    4
 74
    0
 42
1e-07
 43
1e-07
 40
0
 40
0
 40
0
 40
0
 40
1
 40
1
 40
1
 40
1
 10
12.795606
 20
9.6938925
 30
0
 10
12.795606
 20
9.405789
 30
0
 10
12.815361
 20
9.404470499999999
 30
0
 10
13.2650685
 20
9.662572499999998
 30
0
  0
SPLINE
  5
104
100
AcDbEntity
  8
0
  6
ByLayer
 62
    7
370
   -1
100
AcDbSpline
210
0
220
0
230
0
 70
    8
 71
    3
 72
    8
 73
    4
 74
    0
 42
1e-07
 43
1e-07
 40
0
 40
0
 40
0
 40
0
 40
1
 40
1
 40
1
 40
1
 10
13.2650685
 20
9.662572499999998
 30
0
 10
13.707036
 20
9.916224
 30
0
 10
13.715478
 20
9.939057000000002
 30
0
 10
13.4091585
 20
10.0523715
 30
0
  0
LWPOLYLINE
  5
105
100
AcDbEntity
  8
0
  6
ByLayer
 62
    7
370
   -1
100
AcDbPolyline
 90
    1
 70
    1
 43
0
 10
8.610399000000019
 20
8.583648000000002
  0
SPLINE
  5
106
100
AcDbEntity
  8
0
  6
ByLayer
 62
    7
370
   -1
100
AcDbSpline
210
0
220
0
230
0
 70
    8
 71
    3
 72
    8
 73
    4
 74
    0
 42
1e-07
 43
1e-07
 40
0
 40
0
 40
0
 40
0
 40
1
 40
1
 40
1
 40
1
 10
13.113108
 20
10.7281185
 30
0
 10
13.113108
 20
10.848984
 30
0
 10
13.26123
 20
11.0516235
 30
0
 10
13.442265
 20
11.1784245
 30
0
  0
SPLINE
  5
107
100
AcDbEntity
  8
0
  6
ByLayer
 62
    7
370
   -1
100
AcDbSpline
210
0
220
0
230
0
 70
    8
 71
    3
 72
    8
 73
    4
 74
    0
 42
1e-07
 43
1e-07
 40
0
 40
0
 40
0
 40
0
 40
1
 40
1
 40
1
 40
1
 10
13.442265
 20
11.1784245
 30
0
 10
13.6584945
 20
11.3298765
 30
0
 10
13.710573
 20
11.4465885
 30
0
 10
13.5940635
 20
11.518593
 30
0
  0
SPLINE
  5
108
100
AcDbEntity
  8
0
  6
ByLayer
 62
    7
370
   -1
100
AcDbSpline
210
0
220
0
230
0
 70
    8
 71
    3
 72
    8
 73
    4
 74
    0
 42
1e-07
 43
1e-07
 40
0
 40
0
 40
0
 40
0
 40
1
 40
1
 40
1
 40
1
 10
13.5940635
 20
11.518593
 30
0
 10
13.49651250000003
 20
11.578884
 30
0
 10
13.320441
 20
11.548338
 30
0
 10
13.2027975
 20
11.450688
 30
0
  0
SPLINE
  5
109
100
AcDbEntity
  8
0
  6
ByLayer
 62
    7
370
   -1
100
AcDbSpline
210
0
220
0
230
0
 70
    8
 71
    3
 72
    8
 73
    4
 74
    0
 42
1e-07
 43
1e-07
 40
0
 40
0
 40
0
 40
0
 40
1
 40
1
 40
1
 40
1
 10
13.2027975
 20
11.450688
 30
0
 10
12.973392
 20
11.2602975
 30
0
 10
12.765717
 20
10.293666
 30
0
 10
12.9830805
 20
10.4280045
 30
0
  0
SPLINE
  5
10A
100
AcDbEntity
  8
0
  6
ByLayer
 62
    7
370
   -1
100
AcDbSpline
210
0
220
0
230
0
 70
    8
 71
    3
 72
    8
 73
    4
 74
    0
 42
1e-07
 43
1e-07
 40
0
 40
0
 40
0
 40
0
 40
1
 40
1
 40
1
 40
1
 10
12.9830805
 20
10.4280045
 30
0
 10
13.0545945
 20
10.4721945
 30
0
 10
13.113108
 20
10.607253
 30
0
 10
13.113108
 20
10.7281185
 30
0
  0
LWPOLYLINE
  5
10B
100
AcDbEntity
  8
0
  6
ByLayer
 62
    7
370
   -1
100
AcDbPolyline
 90
    1
 70
    1
 43
0
 10
13.4091585
 20
10.0523715
  0
SPLINE
  5
10C
100
AcDbEntity
  8
0
  6
ByLayer
 62
    7
370
   -1
100
AcDbSpline
210
0
220
0
230
0
 70
    8
 71
    3
 72
    8
 73
    4
 74
    0
 42
1e-07
 43
1e-07
 40
0
 40
0
 40
0
 40
0
 40
1
 40
1
 40
1
 40
1
 10
13.73562
 20
12.499422
 30
0
 10
13.84227
 20
12.6244455
 30
0
 10
13.824729
 20
12.7096755
 30
0
 10
13.6810035
 20
12.7648275
 30
0
  0
SPLINE
  5
10D
100
AcDbEntity
  8
0
  6
ByLayer
 62
    7
370
   -1
100
AcDbSpline
210
0
220
0
230
0
 70
    8
 71
    3
 72
    8
 73
    4
 74
    0
 42
1e-07
 43
1e-07
 40
0
 40
0
 40
0
 40
0
 40
1
 40
1
 40
1
 40
1
 10
13.6810035
 20
12.7648275
 30
0
 10
13.37927849999998
 20
12.8806125
 30
0
 10
13.11225749999999
 20
12.5581245
 30
0
 10
13.118157
 20
12.0850665
 30
0
  0
SPLINE
  5
10E
100
AcDbEntity
  8
0
  6
ByLayer
 62
    7
370
   -1
100
AcDbSpline
210
0
220
0
230
0
 70
    8
 71
    3
 72
    8
 73
    4
 74
    0
 42
1e-07
 43
1e-07
 40
0
 40
0
 40
0
 40
0
 40
1
 40
1
 40
1
 40
1
 10
13.118157
 20
12.0850665
 30
0
 10
13.123062
 20
11.6915415
 30
0
 10
13.129542
 20
11.689107
 30
0
 10
13.3508655
 20
11.997753
 30
0
  0
SPLINE
  5
10F
100
AcDbEntity
  8
0
  6
ByLayer
 62
    7
370
   -1
100
AcDbSpline
210
0
220
0
230
0
 70
    8
 71
    3
 72
    8
 73
    4
 74
    0
 42
1e-07
 43
1e-07
 40
0
 40
0
 40
0
 40
0
 40
1
 40
1
 40
1
 40
1
 10
13.3508655
 20
11.997753
 30
0
 10
13.4760825
 20
12.1723755
 30
0
 10
13.64922
 20
12.398127
 30
0
 10
13.73562
 20
12.499422
 30
0
  0
LWPOLYLINE
  5
110
100
AcDbEntity
  8
0
  6
ByLayer
 62
    7
370
   -1
100
AcDbPolyline
 90
    1
 70
    1
 43
0
 10
13.113108
 20
10.7281185
  0
SPLINE
  5
111
100
AcDbEntity
  8
0
  6
ByLayer
 62
    7
370
   -1
100
AcDbSpline
210
0
220
0
230
0
 70
    8
 71
    3
 72
    8
 73
    4
 74
    0
 42
1e-07
 43
1e-07
 40
0
 40
0
 40
0
 40
0
 40
1
 40
1
 40
1
 40
1
 10
13.951053
 20
13.79931
 30
0
 10
13.816701
 20
13.82973
 30
0
 10
13.6457325
 20
13.758315
 30
0
 10
13.5711225
 20
13.640559
 30
0
  0
SPLINE
  5
112
100
AcDbEntity
  8
0
  6
ByLayer
 62
    7
370
   -1
100
AcDbSpline
210
0
220
0
230
0
 70
    8
 71
    3
 72
    8
 73
    4
 74
    0
 42
1e-07
 43
1e-07
 40
0
 40
0
 40
0
 40
0
 40
1
 40
1
 40
1
 40
1
 10
13.5711225
 20
13.640559
 30
0
 10
13.3225605
 20
13.2483345
 30
0
 10
13.42631250000001
 20
13.1703495
 30
0
 10
13.8129705
 20
13.4587815
 30
0
  0
SPLINE
  5
113
100
AcDbEntity
  8
0
  6
ByLayer
 62
    7
370
   -1
100
AcDbSpline
210
0
220
0
230
0
 70
    8
 71
    3
 72
    8
 73
    4
 74
    0
 42
1e-07
 43
1e-07
 40
0
 40
0
 40
0
 40
0
 40
1
 40
1
 40
1
 40
1
 10
13.8129705
 20
13.4587815
 30
0
 10
14.1095295
 20
13.6800015
 30
0
 10
14.1405165
 20
13.756416
 30
0
 10
13.951053
 20
13.79931
 30
0
  0
LWPOLYLINE
  5
114
100
AcDbEntity
  8
0
  6
ByLayer
 62
    7
370
   -1
100
AcDbPolyline
 90
    1
 70
    1
 43
0
 10
13.73562
 20
12.499422
  0
SPLINE
  5
115
100
AcDbEntity
  8
0
  6
ByLayer
 62
    7
370
   -1
100
AcDbSpline
210
0
220
0
230
0
 70
    8
 71
    3
 72
    8
 73
    4
 74
    0
 42
1e-07
 43
1e-07
 40
0
 40
0
 40
0
 40
0
 40
1
 40
1
 40
1
 40
1
 10
7.874356500000005
 20
14.299665
 30
0
 10
7.874356500000005
 20
14.3869785
 30
0
 10
7.749341999999995
 20
14.457318
 30
0
 10
7.5965445
 20
14.4559815
 30
0
  0
SPLINE
  5
116
100
AcDbEntity
  8
0
  6
ByLayer
 62
    7
370
   -1
100
AcDbSpline
210
0
220
0
230
0
 70
    8
 71
    3
 72
    8
 73
    4
 74
    0
 42
1e-07
 43
1e-07
 40
0
 40
0
 40
0
 40
0
 40
1
 40
1
 40
1
 40
1
 10
7.5965445
 20
14.4559815
 30
0
 10
7.359124500000004
 20
14.4537315
 30
0
 10
7.353355499999999
 20
14.4311865
 30
0
 10
7.5568545
 20
14.299665
 30
0
  0
SPLINE
  5
117
100
AcDbEntity
  8
0
  6
ByLayer
 62
    7
370
   -1
100
AcDbSpline
210
0
220
0
230
0
 70
    8
 71
    3
 72
    8
 73
    4
 74
    0
 42
1e-07
 43
1e-07
 40
0
 40
0
 40
0
 40
0
 40
1
 40
1
 40
1
 40
1
 10
7.5568545
 20
14.299665
 30
0
 10
7.856451
 20
14.1060525
 30
0
 10
7.874356500000005
 20
14.1060525
 30
0
 10
7.874356500000005
 20
14.299665
 30
0
  0
LWPOLYLINE
  5
118
100
AcDbEntity
  8
0
  6
ByLayer
 62
    7
370
   -1
100
AcDbPolyline
 90
    1
 70
    1
 43
0
 10
13.951053
 20
13.79931
  0
LWPOLYLINE
  5
119
100
AcDbEntity
  8
0
  6
ByLayer
 62
    7
370
   -1
100
AcDbPolyline
 90
    1
 70
    1
 43
0
 10
7.874356500000005
 20
14.299665
  0
ENDSEC
  0
SECTION
  2
OBJECTS
  0
DICTIONARY
  5
C
330
0
100
AcDbDictionary
281
    1
  3
ACAD_GROUP
350
D
  0
DICTIONARY
  5
D
330
C
100
AcDbDictionary
281
    1
  0
ENDSEC
  0
EOF
